<svg width="429" height="79" viewBox="0 0 429 79" fill="none" xmlns="http://www.w3.org/2000/svg">
<rect width="8.2221" height="10.9628" rx="4.11105" transform="matrix(0.712657 -0.701512 0.712657 0.701512 32 58.8733)" fill="#0066FF"/>
<rect width="8.2221" height="68.5175" rx="4.11105" transform="matrix(0.712657 -0.701512 0.712657 0.701512 32 18.7678)" fill="#0066FF"/>
<rect width="8.2221" height="41.1105" rx="4.11105" transform="matrix(0.712657 -0.701512 0.712657 0.701512 32 39.1605)" fill="#0066FF"/>
<rect width="8.21871" height="23.991" rx="4.10935" transform="matrix(0.694044 0.719932 -0.730767 0.682627 81.2959 13.6798)" fill="#0066FF"/>
<rect width="8.2221" height="23.9811" rx="4.11105" transform="matrix(0.712657 -0.701512 0.712657 0.701512 63.7637 30.3237)" fill="#0066FF"/>
<path d="M121.536 60V23.6H135.004C137.916 23.6 140.325 24.0853 142.232 25.056C144.139 26.0267 145.56 27.3613 146.496 29.06C147.432 30.7587 147.9 32.6653 147.9 34.78C147.9 36.7907 147.449 38.6453 146.548 40.344C145.647 42.008 144.243 43.36 142.336 44.4C140.429 45.4053 137.985 45.908 135.004 45.908H128.192V60H121.536ZM128.192 40.5H134.588C136.911 40.5 138.575 39.9973 139.58 38.992C140.62 37.952 141.14 36.548 141.14 34.78C141.14 32.9773 140.62 31.5733 139.58 30.568C138.575 29.528 136.911 29.008 134.588 29.008H128.192V40.5ZM156.872 60L170.184 23.6H177.672L190.984 60H183.912L181 51.576H166.804L163.84 60H156.872ZM168.624 46.376H179.18L173.876 31.244L168.624 46.376ZM210.87 60V47.052L198.65 23.6H206.19L214.25 40.396L222.258 23.6H229.694L217.526 47.052V60H210.87Z" fill="#0066FF"/>
<path d="M243.958 60V23.6H251.862L263.458 46.688L274.898 23.6H282.802V60H276.146V34.884L266.006 54.8H260.754L250.614 34.884V60H243.958ZM299.864 60V23.6H306.52V60H299.864ZM323.575 60V23.6H330.231L347.339 49.236V23.6H353.995V60H347.339L330.231 34.416V60H323.575ZM379.528 60V28.956H368.92V23.6H396.844V28.956H386.184V60H379.528Z" fill="black"/>
</svg>
