<svg width="24" height="24" viewBox="0 0 24 24" fill="none" xmlns="http://www.w3.org/2000/svg">
<path d="M9 13L8.11612 12.1161L9 11.2322L9.88388 12.1161L9 13ZM10.25 22C10.25 22.6904 9.69036 23.25 9 23.25C8.30964 23.25 7.75 22.6904 7.75 22L10.25 22ZM3.11612 17.1161L8.11612 12.1161L9.88388 13.8839L4.88388 18.8839L3.11612 17.1161ZM9.88388 12.1161L14.8839 17.1161L13.1161 18.8839L8.11612 13.8839L9.88388 12.1161ZM10.25 13L10.25 22L7.75 22L7.75 13L10.25 13Z" fill="#0066FF"/>
<path d="M15 11L14.1161 11.8839L15 12.7678L15.8839 11.8839L15 11ZM16.25 2C16.25 1.30964 15.6904 0.75 15 0.75C14.3096 0.75 13.75 1.30964 13.75 2L16.25 2ZM9.11612 6.88388L14.1161 11.8839L15.8839 10.1161L10.8839 5.11612L9.11612 6.88388ZM15.8839 11.8839L20.8839 6.88388L19.1161 5.11612L14.1161 10.1161L15.8839 11.8839ZM16.25 11L16.25 2L13.75 2L13.75 11L16.25 11Z" fill="#0066FF"/>
</svg>
