<svg width="24" height="24" viewBox="0 0 24 24" fill="none" xmlns="http://www.w3.org/2000/svg">
<path d="M21.6437 6.27636L15.8255 0.458181C15.7588 0.397564 15.672 0.363871 15.5819 0.363636H6.39279C5.78294 0.363635 5.19802 0.605648 4.76645 1.03654C4.33488 1.46743 4.09194 2.05197 4.09098 2.66182V10.0109H3.8037C3.39189 10.0109 2.99695 10.1745 2.70576 10.4657C2.41457 10.7569 2.25098 11.1518 2.25098 11.5636V18.6073C2.25194 19.0165 2.41519 19.4087 2.70491 19.6977C2.99464 19.9868 3.38718 20.1491 3.79643 20.1491H4.09461V21.3382C4.09557 21.9474 4.33801 22.5314 4.7688 22.9622C5.19958 23.393 5.78357 23.6354 6.39279 23.6364H19.4546C20.0638 23.6354 20.6478 23.393 21.0786 22.9622C21.5094 22.5314 21.7518 21.9474 21.7528 21.3382V6.54545C21.7541 6.49551 21.745 6.44585 21.7263 6.39955C21.7075 6.35325 21.6794 6.31132 21.6437 6.27636ZM4.08734 12.3927H3.8037C3.59378 12.3788 3.39699 12.2856 3.25323 12.132C3.10947 11.9784 3.02949 11.7758 3.02949 11.5655C3.02949 11.3551 3.10947 11.1525 3.25323 10.9989C3.39699 10.8453 3.59378 10.7521 3.8037 10.7382H4.08734V12.3927ZM21.0255 21.3382C21.0246 21.7545 20.8587 22.1535 20.5644 22.4479C20.27 22.7423 19.8709 22.9081 19.4546 22.9091H6.39279C5.97583 22.9091 5.57589 22.7437 5.28071 22.4492C4.98553 22.1547 4.81921 21.7551 4.81825 21.3382V20.1491H16.3019C16.3983 20.1491 16.4908 20.1108 16.559 20.0426C16.6272 19.9744 16.6655 19.8819 16.6655 19.7855V12.7527C16.6655 12.6563 16.6272 12.5638 16.559 12.4956C16.4908 12.4274 16.3983 12.3891 16.3019 12.3891H4.81825V2.66182C4.81921 2.24485 4.98553 1.84529 5.28071 1.5508C5.57589 1.2563 5.97583 1.09091 6.39279 1.09091H15.2182V4.59636C15.2168 4.89925 15.2752 5.19945 15.39 5.47974C15.5048 5.76003 15.6738 6.01491 15.8873 6.22976C16.1008 6.44462 16.3546 6.61522 16.6342 6.73179C16.9137 6.84836 17.2135 6.90862 17.5164 6.90909H21.0255V21.3382ZM5.73098 14.5855H6.52007L7.19279 15.6764L7.85098 14.5855H8.63279L7.59279 16.2109L8.72734 17.9345H7.92007L7.19279 16.7745L6.46552 17.9345H5.62189L6.76734 16.1855L5.73098 14.5855ZM11.4582 17.3709V17.9345H9.09098V14.6145H9.76734V17.3709H11.4582ZM13.7419 16.76C13.677 16.6901 13.5939 16.6398 13.5019 16.6145C13.4219 16.5855 13.2401 16.5382 12.9601 16.4691C12.6833 16.4175 12.422 16.303 12.1964 16.1345C12.033 15.9964 11.9261 15.803 11.8959 15.5911C11.8657 15.3793 11.9144 15.1637 12.0328 14.9855C12.1355 14.8328 12.281 14.7139 12.451 14.6436C12.6617 14.5676 12.8854 14.5343 13.1092 14.5455C13.4484 14.5211 13.7851 14.6191 14.0582 14.8218C14.1616 14.913 14.2448 15.0249 14.3024 15.1501C14.36 15.2753 14.3908 15.4112 14.3928 15.5491L13.7164 15.5782C13.7006 15.4386 13.6347 15.3094 13.531 15.2145C13.4029 15.1236 13.2478 15.0787 13.091 15.0873C12.9277 15.0775 12.7657 15.1209 12.6292 15.2109C12.5959 15.2342 12.5689 15.2652 12.5505 15.3014C12.5322 15.3375 12.5229 15.3776 12.5237 15.4182C12.524 15.4576 12.5333 15.4965 12.551 15.5318C12.5686 15.5671 12.5941 15.5979 12.6255 15.6218C12.8161 15.7333 13.0257 15.8085 13.2437 15.8436C13.4945 15.8954 13.7386 15.9759 13.971 16.0836C14.1202 16.1635 14.2457 16.2814 14.3346 16.4255C14.4267 16.5868 14.4721 16.7707 14.4655 16.9564C14.4671 17.1488 14.4114 17.3374 14.3055 17.4982C14.1977 17.6643 14.0398 17.7916 13.8546 17.8618C13.623 17.9517 13.3756 17.9938 13.1273 17.9855C12.7776 18.0079 12.4316 17.9033 12.1528 17.6909C11.9116 17.4695 11.7656 17.1632 11.7455 16.8364L12.4037 16.7745C12.4255 16.9586 12.5103 17.1295 12.6437 17.2582C12.7828 17.3685 12.9574 17.4241 13.1346 17.4145C13.3093 17.427 13.4829 17.3781 13.6255 17.2764C13.6762 17.2387 13.7176 17.19 13.7466 17.1339C13.7756 17.0778 13.7914 17.0158 13.7928 16.9527C13.7987 16.8845 13.7807 16.8164 13.7419 16.76Z" fill="#20872C"/>
</svg>
