<svg width="32" height="32" viewBox="0 0 32 32" fill="none" xmlns="http://www.w3.org/2000/svg">
<path d="M15.9999 18.6667L15.2928 19.3739L15.9999 20.081L16.707 19.3739L15.9999 18.6667ZM16.9999 6.66675C16.9999 6.11446 16.5522 5.66675 15.9999 5.66675C15.4476 5.66675 14.9999 6.11446 14.9999 6.66675L16.9999 6.66675ZM8.62615 12.7072L15.2928 19.3739L16.707 17.9596L10.0404 11.293L8.62615 12.7072ZM16.707 19.3739L23.3737 12.7072L21.9595 11.293L15.2928 17.9596L16.707 19.3739ZM16.9999 18.6667L16.9999 6.66675L14.9999 6.66675L14.9999 18.6667L16.9999 18.6667Z" fill="#0066FF"/>
<path d="M6.66675 21.3333L6.66675 22.6666C6.66675 24.1393 7.86066 25.3333 9.33341 25.3333L22.6667 25.3333C24.1395 25.3333 25.3334 24.1393 25.3334 22.6666V21.3333" stroke="#0066FF" stroke-width="2"/>
</svg>
