<svg width="420" height="294" viewBox="0 0 420 294" fill="none" xmlns="http://www.w3.org/2000/svg">
<path d="M373.492 88.3587L368.133 115.613L364.683 112.079L358.814 116.477L354.329 110.626L344.271 118.306L335.675 103.212L326.088 109.109L322.286 103.606L310.111 110.809L306.449 102.571L314.983 59.1704L360.735 69.09L373.492 88.3587Z" fill="#EBEBEB"/>
<path d="M360.735 69.09L373.492 88.3587L357.622 84.9189L360.735 69.09Z" fill="#DBDBDB"/>
<path d="M366.99 121.057L359.134 161.041L297.506 147.682L305.306 108.021L308.969 116.253L321.149 109.05L324.946 114.554L334.538 108.662L343.129 123.756L353.192 116.077L357.672 121.922L363.546 117.529L366.99 121.057Z" fill="#EBEBEB"/>
<path d="M278.785 116.371L215.981 120.452L210.991 35.8033L257.628 32.7692L274.747 47.8514L278.785 116.371Z" fill="#EBEBEB"/>
<path d="M257.628 32.7692L274.747 47.8514L258.574 48.9039L257.628 32.7692Z" fill="#DBDBDB"/>
<path d="M240.24 89.7288L239.994 87.8178C239.361 83.8605 240.391 79.4329 243.667 74.8053C246.624 70.6893 248.226 67.7493 248.046 64.4095C247.845 60.6463 245.465 58.2708 241.035 58.4589C238.504 58.597 236.072 59.5403 234.063 61.1637L232.131 56.6185C234.371 54.7075 238.291 53.2963 242.015 53.0905C250.096 52.6201 254.027 57.6416 254.335 63.2452C254.604 68.2609 252.129 72.03 248.982 76.4341C246.092 80.4501 245.146 83.7606 245.554 87.5061L245.728 89.423L240.24 89.7288ZM239.243 100.142C239.098 97.4139 240.75 95.3912 243.208 95.2501C245.666 95.109 247.458 96.92 247.604 99.6542C247.738 102.236 246.232 104.317 243.634 104.47C241.153 104.617 239.361 102.724 239.221 100.142H239.243Z" fill="#DBDBDB"/>
<path d="M83.1487 75.3287L76.8319 72.324L75.9527 74.3526C75.8229 74.6425 75.6204 74.8898 75.3668 75.068C75.1133 75.2462 74.8183 75.3485 74.5135 75.3639C74.1664 75.3759 73.8204 75.4112 73.4775 75.4698C73.1766 75.5167 72.8692 75.4769 72.5881 75.3547C72.307 75.2325 72.0628 75.0325 71.8815 74.7759L70.6439 72.959L65.0047 77.2044L66.2423 79.0213C66.4145 79.2835 66.5158 79.5898 66.5355 79.9077C66.5552 80.2255 66.4926 80.543 66.3543 80.8265C66.1947 81.1498 66.0508 81.4815 65.9231 81.8202C65.8122 82.1188 65.6259 82.3801 65.3841 82.5759C65.1424 82.7717 64.8544 82.8946 64.5511 82.9315L62.4399 83.1491L63.1175 90.3991L65.2399 90.1757C65.5443 90.1501 65.8496 90.2122 66.1229 90.3551C66.3962 90.4981 66.6272 90.7166 66.7911 90.9871C66.8807 91.14 66.9759 91.287 67.0767 91.434C67.1775 91.581 67.2783 91.7221 67.3847 91.8632C67.578 92.1101 67.7023 92.4084 67.7438 92.725C67.7853 93.0416 67.7424 93.3641 67.6199 93.6566L66.7351 95.7029L73.0575 98.7134L73.9367 96.6731C74.0678 96.3834 74.2715 96.1367 74.5261 95.9596C74.7807 95.7824 75.0764 95.6814 75.3815 95.6676C75.7248 95.6527 76.0669 95.6174 76.4063 95.5617C76.7073 95.5148 77.0147 95.5546 77.2958 95.6768C77.5769 95.799 77.8211 95.999 78.0023 96.2556L79.2399 98.0725L84.8847 93.8271L83.6471 92.0102C83.4697 91.7504 83.3652 91.4435 83.3454 91.1244C83.3256 90.8054 83.3913 90.4869 83.5351 90.2051C83.6911 89.8835 83.8313 89.5538 83.9551 89.2172C84.0628 88.9164 84.2483 88.653 84.4906 88.4567C84.733 88.2604 85.0227 88.1389 85.3271 88.1059L87.4495 87.8825L86.7663 80.6324L84.6439 80.85C84.3415 80.8779 84.0375 80.8174 83.7658 80.6752C83.494 80.5331 83.2649 80.3147 83.1039 80.0444C83.0087 79.8915 82.9135 79.7445 82.8127 79.5975C82.7119 79.4505 82.6111 79.3035 82.5047 79.1683C82.3128 78.9184 82.1894 78.6182 82.148 78.3001C82.1066 77.982 82.1486 77.658 82.2695 77.3631L83.1487 75.3287ZM79.5647 82.0377C80.2196 82.9973 80.5888 84.1392 80.6255 85.319C80.6622 86.4989 80.3649 87.6637 79.7712 88.6661C79.1774 89.6685 78.3139 90.4635 77.2898 90.9506C76.2657 91.4377 75.127 91.5949 74.0178 91.4024C72.9086 91.21 71.8786 90.6764 71.0582 89.8693C70.2378 89.0622 69.6638 88.0177 69.4087 86.868C69.1537 85.7183 69.2291 84.515 69.6254 83.4103C70.0217 82.3056 70.7211 81.3491 71.6351 80.6618C72.8605 79.7404 74.3843 79.3677 75.8713 79.6258C77.3583 79.8838 78.6868 80.7514 79.5647 82.0377Z" fill="#EBEBEB"/>
<path d="M368.693 171.526L364.482 174.077L365.226 175.43C365.338 175.624 365.393 175.848 365.386 176.074C365.379 176.3 365.31 176.52 365.187 176.706C365.058 176.917 364.935 177.135 364.823 177.364C364.731 177.567 364.586 177.738 364.404 177.857C364.223 177.976 364.012 178.037 363.798 178.035H362.32V183.144H363.81C364.024 183.142 364.234 183.203 364.415 183.322C364.597 183.441 364.742 183.612 364.834 183.815C364.946 184.044 365.07 184.262 365.198 184.473C365.321 184.659 365.39 184.879 365.397 185.105C365.404 185.332 365.349 185.555 365.238 185.749L364.493 187.102L368.704 189.654L369.454 188.295C369.563 188.103 369.721 187.946 369.91 187.842C370.099 187.738 370.311 187.691 370.524 187.707H371.241C371.453 187.692 371.666 187.739 371.855 187.843C372.044 187.946 372.201 188.103 372.31 188.295L373.061 189.659L377.266 187.108L376.522 185.749C376.416 185.554 376.364 185.332 376.372 185.107C376.38 184.883 376.447 184.665 376.566 184.479C376.695 184.267 376.818 184.044 376.93 183.821C377.022 183.618 377.168 183.447 377.349 183.328C377.531 183.209 377.741 183.148 377.955 183.15H379.445V178.041H377.944C377.73 178.043 377.52 177.982 377.338 177.863C377.157 177.744 377.011 177.573 376.919 177.37C376.807 177.147 376.684 176.923 376.555 176.712C376.436 176.525 376.368 176.308 376.361 176.083C376.353 175.859 376.405 175.637 376.51 175.442L377.255 174.083L373.05 171.531L372.299 172.872C372.191 173.065 372.033 173.222 371.844 173.326C371.655 173.429 371.442 173.476 371.23 173.46H370.871H370.513C370.3 173.475 370.086 173.428 369.897 173.324C369.707 173.221 369.548 173.064 369.438 172.872L368.693 171.526ZM370.871 176.406C371.66 176.405 372.432 176.649 373.089 177.109C373.745 177.569 374.257 178.222 374.559 178.988C374.862 179.753 374.941 180.595 374.788 181.408C374.634 182.22 374.254 182.967 373.696 183.553C373.138 184.139 372.427 184.538 371.653 184.699C370.879 184.86 370.077 184.777 369.348 184.459C368.62 184.142 367.997 183.604 367.559 182.915C367.122 182.225 366.889 181.415 366.89 180.587C366.889 180.037 366.991 179.493 367.191 178.985C367.391 178.477 367.684 178.015 368.054 177.627C368.424 177.238 368.863 176.929 369.346 176.719C369.83 176.508 370.348 176.4 370.871 176.4V176.406Z" fill="#EBEBEB"/>
<path d="M95.928 53.6021L92.0696 56.7067L92.96 57.9474C93.0928 58.1242 93.1745 58.3373 93.1954 58.5614C93.2162 58.7855 93.1754 59.0111 93.0776 59.2116C92.9705 59.4405 92.877 59.6761 92.7976 59.9172C92.7286 60.1295 92.6045 60.3175 92.4393 60.4598C92.2741 60.6021 92.0743 60.6932 91.8624 60.7227L90.384 60.9227L91.0112 65.9853L92.4896 65.7854C92.7048 65.7539 92.9241 65.7869 93.1223 65.8805C93.3204 65.9741 93.4894 66.1246 93.6096 66.3146C93.7445 66.5192 93.8903 66.7155 94.0464 66.9026C94.1907 67.0692 94.2864 67.2758 94.3221 67.4978C94.3579 67.7198 94.3322 67.9479 94.248 68.1551L93.688 69.6015L98.168 71.5596L98.728 70.1131C98.8114 69.9056 98.9484 69.7268 99.1236 69.5968C99.2988 69.4669 99.5051 69.3912 99.7192 69.3781L100.078 69.3369L100.43 69.2781C100.638 69.2371 100.852 69.2566 101.049 69.3343C101.247 69.4121 101.42 69.5452 101.55 69.7191L102.463 70.9716L106.322 67.8669L105.42 66.6263C105.29 66.447 105.21 66.2332 105.189 66.0088C105.168 65.7844 105.208 65.5584 105.302 65.3562C105.409 65.1288 105.502 64.8952 105.582 64.6565C105.651 64.4441 105.776 64.2562 105.941 64.1139C106.106 63.9715 106.306 63.8805 106.518 63.8509L107.996 63.651L107.369 58.5883L105.89 58.7882C105.676 58.8203 105.457 58.7883 105.259 58.6957C105.061 58.6031 104.891 58.4538 104.77 58.2649C104.63 58.0532 104.485 57.8533 104.328 57.6769C104.198 57.5067 104.113 57.3028 104.084 57.0866C104.054 56.8704 104.08 56.6498 104.16 56.448L104.72 55.0015L100.24 53.0435L99.68 54.4899C99.5956 54.6966 99.4583 54.8748 99.2833 55.0045C99.1084 55.1342 98.9026 55.2105 98.6888 55.2249L98.3304 55.2602L98 55.272C97.7928 55.313 97.5788 55.2936 97.3814 55.2158C97.1839 55.1381 97.0105 55.005 96.88 54.831L95.928 53.6021ZM98.6888 58.1473C99.4689 58.042 100.261 58.1817 100.966 58.5486C101.67 58.9156 102.256 59.4934 102.648 60.2092C103.04 60.9251 103.221 61.7468 103.169 62.5708C103.117 63.3948 102.834 64.1841 102.355 64.8393C101.876 65.4944 101.223 65.9859 100.479 66.2518C99.7341 66.5178 98.9312 66.5462 98.1712 66.3336C97.4113 66.1209 96.7283 65.6767 96.2085 65.057C95.6887 64.4372 95.3553 63.6697 95.2504 62.8513C95.1805 62.3051 95.214 61.7498 95.3492 61.2173C95.4843 60.6848 95.7184 60.1856 96.0379 59.7485C96.3575 59.3113 96.7562 58.9448 97.2111 58.67C97.6661 58.3952 98.1683 58.2176 98.6888 58.1473Z" fill="#EBEBEB"/>
<path d="M67.0992 186.267C67.3096 180.582 67.2348 174.891 66.8752 169.215C66.0739 157.494 64.3716 145.861 61.7848 134.429C60.3624 127.996 58.6152 121.669 56.7896 115.348C56.7336 115.154 56.4424 115.207 56.4928 115.407C62.132 137.692 66.7576 160.683 66.4384 183.85C66.3488 190.318 65.632 196.698 65.0496 203.142C65.0496 203.313 65.3016 203.383 65.3408 203.207C66.5 197.674 66.8808 191.9 67.0992 186.267Z" fill="#EBEBEB"/>
<path d="M56.4928 115.389C56.4928 115.389 47.9584 138.145 49.868 143.472C51.7776 148.799 55.72 149.94 55.72 149.94C55.72 149.94 50.4952 157.772 54.1464 165.116C57.7976 172.46 65.9064 172.114 66.4664 180.44C66.4496 180.481 66.8976 145.665 56.4928 115.389Z" fill="#EBEBEB"/>
<path d="M65.52 166.104C65.5338 166.066 65.5338 166.024 65.52 165.987C64.3999 150.451 61.6236 135.096 57.2432 120.211C57.2432 120.17 57.1592 120.181 57.1704 120.211C58.8616 126.875 60.3549 133.566 61.6504 140.285C60.503 139.144 59.1013 138.323 57.5736 137.898C57.5736 137.898 57.5288 137.933 57.5736 137.945C59.1785 138.562 60.6215 139.57 61.7848 140.885C62.0312 142.208 62.2776 143.525 62.5072 144.848C60.5976 142.608 57.9544 141.496 55.3056 140.438C55.2996 140.441 55.2945 140.445 55.2909 140.451C55.2873 140.457 55.2854 140.463 55.2854 140.47C55.2854 140.477 55.2873 140.484 55.2909 140.49C55.2945 140.495 55.2996 140.5 55.3056 140.503C58.0664 141.679 60.8104 143.196 62.6808 145.695C63.3304 149.47 63.9016 153.258 64.3944 157.061C63.0156 155.544 61.2473 154.48 59.304 153.997C59.2424 153.997 59.2088 154.074 59.2704 154.091C61.2666 154.709 63.0489 155.922 64.4 157.584H64.4336C64.6016 158.917 64.7621 160.255 64.9152 161.6C63.8485 160.652 62.6442 159.89 61.348 159.342C61.3144 159.342 61.292 159.383 61.348 159.395C62.6708 159.997 63.8821 160.839 64.9264 161.882C64.9264 161.882 64.9544 161.882 64.9712 161.882C65.1112 163.158 65.2512 164.434 65.3744 165.71C63.4514 163.269 60.9558 161.397 58.1336 160.277C58.1217 160.277 58.1103 160.282 58.1019 160.291C58.0935 160.3 58.0888 160.312 58.0888 160.324C58.0888 160.337 58.0935 160.349 58.1019 160.357C58.1103 160.366 58.1217 160.371 58.1336 160.371C60.9204 161.661 63.3683 163.64 65.268 166.139C65.2889 166.167 65.3171 166.187 65.349 166.198C65.3809 166.208 65.4151 166.208 65.4472 166.198C65.632 168.156 65.8 170.114 65.9344 172.078C65.9344 172.108 65.9792 172.108 65.9792 172.078C65.8336 170.106 65.6805 168.115 65.52 166.104Z" fill="white"/>
<path d="M58.66 135.658C57.1144 134.647 55.3488 134.069 53.5304 133.976C53.5215 133.976 53.513 133.98 53.5067 133.986C53.5004 133.993 53.4968 134.002 53.4968 134.011C53.4968 134.02 53.5004 134.029 53.5067 134.036C53.513 134.043 53.5215 134.046 53.5304 134.046C55.2884 134.396 56.9945 134.99 58.604 135.81C58.6712 135.828 58.7216 135.705 58.66 135.658Z" fill="white"/>
<path d="M59.696 159.748C58.5081 159.032 57.2 158.563 55.8432 158.366C55.7984 158.366 55.7928 158.431 55.8432 158.442C57.1682 158.721 58.4497 159.192 59.6512 159.842C59.7016 159.871 59.7464 159.777 59.696 159.748Z" fill="white"/>
<path d="M89.5439 143.866C85.9335 146.486 82.6177 149.528 79.6599 152.933C76.6096 156.538 74.2568 160.732 72.7327 165.281C69.4891 174.758 67.745 184.729 67.5695 194.798C67.4608 200.375 67.97 205.945 69.0871 211.398C69.0962 211.437 69.1194 211.472 69.152 211.494C69.1846 211.516 69.2241 211.524 69.2622 211.517C69.3003 211.509 69.3343 211.486 69.3569 211.453C69.3796 211.42 69.3893 211.379 69.3839 211.339C67.9939 201.717 68.0468 191.926 69.5407 182.321C71.0079 172.913 73.3095 162.67 79.0103 155.02C82.1127 150.851 85.9823 147.576 89.8071 144.189C90.0087 144.001 89.7511 143.713 89.5439 143.866Z" fill="#EBEBEB"/>
<path d="M68.824 188.013C70.8791 184.523 73.2942 181.281 76.0256 178.346C80.2984 173.86 83.8936 170.673 84.4536 167.709C85.0136 164.746 80.1752 162.558 80.1752 162.558C80.1752 162.558 86.0832 163.676 87.7016 161.071C89.32 158.466 90.0984 143.378 90.0984 143.378C90.0984 143.378 79.3464 151.439 74.3344 162.741C69.3224 174.042 68.824 188.013 68.824 188.013Z" fill="#EBEBEB"/>
<path d="M86.24 157.531C85.532 157.42 84.8144 157.395 84.1008 157.455C84.0168 157.455 84.0224 157.608 84.1008 157.613C84.8064 157.613 85.5176 157.578 86.2232 157.613C86.2313 157.611 86.2386 157.607 86.2444 157.6C86.2502 157.594 86.2541 157.586 86.2559 157.578C86.2576 157.569 86.2571 157.56 86.2543 157.552C86.2515 157.544 86.2465 157.537 86.24 157.531Z" fill="white"/>
<path d="M78.5176 172.166C77.3822 172.191 76.2599 172.426 75.2024 172.86C75.2024 172.86 75.2024 172.919 75.2024 172.913C76.3224 172.637 77.4032 172.525 78.512 172.325C78.5265 172.319 78.5389 172.308 78.5478 172.294C78.5566 172.28 78.5617 172.264 78.5623 172.248C78.5628 172.231 78.559 172.215 78.5511 172.2C78.5432 172.186 78.5316 172.174 78.5176 172.166Z" fill="white"/>
<path d="M76.1992 167.11C75.7278 167.106 75.2572 167.149 74.7936 167.239C74.785 167.242 74.7776 167.248 74.7724 167.256C74.7672 167.264 74.7644 167.273 74.7644 167.283C74.7644 167.293 74.7672 167.302 74.7724 167.31C74.7776 167.318 74.785 167.324 74.7936 167.327C75.263 167.356 75.734 167.334 76.1992 167.262C76.2185 167.262 76.237 167.254 76.2507 167.24C76.2643 167.226 76.272 167.206 76.272 167.186C76.272 167.166 76.2643 167.146 76.2507 167.132C76.237 167.118 76.2185 167.11 76.1992 167.11Z" fill="white"/>
<path d="M37.3017 159.871C40.8012 161.117 44.1547 162.776 47.2977 164.816C50.5588 166.992 53.3868 169.812 55.6249 173.119C60.3339 180.002 63.9393 187.646 66.2985 195.751C67.6142 200.238 68.4261 204.872 68.7177 209.557C68.7115 209.588 68.6957 209.615 68.6727 209.634C68.6498 209.654 68.6212 209.664 68.5917 209.664C68.5621 209.664 68.5335 209.654 68.5106 209.634C68.4876 209.615 68.4718 209.588 68.4657 209.557C67.4772 201.434 65.2814 193.523 61.9585 186.114C58.6937 178.852 54.5777 171.126 48.2833 166.316C44.8561 163.699 41.0033 161.982 37.1617 160.171C36.9601 160.101 37.1001 159.801 37.3017 159.871Z" fill="#EBEBEB"/>
<path d="M63.7896 190.571C61.3567 188.246 58.6882 186.21 55.832 184.497C51.3856 181.904 47.7736 180.198 46.6704 177.935C45.5672 175.671 49 172.731 49 172.731C49 172.731 44.464 175.083 42.5824 173.348C40.7008 171.614 36.7472 159.618 36.7472 159.618C36.7472 159.618 47.2248 163.529 53.76 171.461C60.2952 179.393 63.7896 190.571 63.7896 190.571Z" fill="#EBEBEB"/>
<path d="M55.0928 179.528C54.0626 179.453 53.0283 179.586 52.0464 179.922C52.0464 179.922 52.0464 179.975 52.0464 179.969C53.0482 179.789 54.0603 179.679 55.076 179.64C55.1488 179.64 55.1656 179.534 55.0928 179.528Z" fill="white"/>
<path d="M45.9536 166.945C45.4837 166.905 45.0108 166.932 44.548 167.027C44.4976 167.027 44.5144 167.121 44.548 167.115C45.0128 167.063 45.4664 167.08 45.9256 167.068C45.9399 167.069 45.9539 167.064 45.9653 167.055C45.9767 167.046 45.9847 167.033 45.988 167.019C45.9913 167.004 45.9897 166.989 45.9834 166.975C45.9772 166.962 45.9666 166.951 45.9536 166.945Z" fill="white"/>
<path d="M77.3024 224.722H53.6536L57.0248 198.785L57.8872 192.135H73.0688L73.9312 198.785L77.3024 224.722Z" fill="#DBDBDB"/>
<path d="M73.9312 198.785H57.0248L57.8872 192.135H73.0688L73.9312 198.785Z" fill="#C7C7C7"/>
<path d="M75.236 189.83H55.7144V195.463H75.236V189.83Z" fill="#DBDBDB"/>
<path d="M38.6176 224.722L81.1832 224.581L123.749 224.528L208.88 224.428L294.011 224.528L336.577 224.581L379.142 224.722L336.577 224.869L294.011 224.916L208.88 225.016L123.749 224.916L81.1832 224.863L38.6176 224.722Z" fill="#263238"/>
<path d="M210 268.546C298.683 268.546 370.574 260.274 370.574 250.071C370.574 239.867 298.683 231.596 210 231.596C121.317 231.596 49.4257 239.867 49.4257 250.071C49.4257 260.274 121.317 268.546 210 268.546Z" fill="#EBEBEB"/>
<path d="M172.62 247.013C171.315 247.477 133.902 247.601 132.468 246.672C131.908 246.319 131.589 240.598 131.348 233.671C131.298 232.178 131.258 230.631 131.225 229.067L128.24 208.111L153.255 207.94L155.613 228.903L155.518 233.512C155.518 233.512 169.865 240.186 171.332 241.398C172.799 242.609 173.925 246.548 172.62 247.013Z" fill="#EB9481"/>
<path d="M172.62 247.013C171.315 247.478 133.901 247.601 132.468 246.672C131.807 246.237 131.449 237.881 131.247 229.067L155.585 228.903L155.489 233.513C155.489 233.513 169.837 240.186 171.304 241.398C172.771 242.609 173.925 246.548 172.62 247.013Z" fill="white"/>
<path d="M172.62 247.013C171.315 247.477 133.902 247.601 132.468 246.672C131.908 246.319 131.589 240.598 131.348 233.671L155.467 233.512C155.467 233.512 169.814 240.186 171.281 241.398C172.749 242.609 173.925 246.548 172.62 247.013Z" fill="#A6A6A6"/>
<path d="M172.077 245.443C165.805 245.302 140.493 245.367 134.282 245.731C134.232 245.731 134.232 245.766 134.282 245.772C140.498 246.049 165.81 245.772 172.077 245.549C172.211 245.543 172.211 245.443 172.077 245.443Z" fill="#263238"/>
<path d="M168.89 239.992C168.193 239.976 167.5 240.111 166.855 240.391C166.21 240.67 165.627 241.087 165.144 241.615C164.263 242.557 163.765 243.822 163.755 245.143C163.755 245.184 163.822 245.184 163.828 245.143C164.036 243.842 164.639 242.647 165.548 241.735C166.456 240.824 167.621 240.246 168.868 240.086C168.88 240.089 168.892 240.087 168.903 240.081C168.913 240.074 168.921 240.063 168.924 240.051C168.927 240.039 168.925 240.025 168.919 240.014C168.912 240.003 168.902 239.995 168.89 239.992Z" fill="#263238"/>
<path d="M157.92 234.159C155.411 234.13 152.505 235.071 150.948 237.234C150.892 237.317 151.004 237.405 151.077 237.364C153.269 236.149 155.578 235.183 157.965 234.483C158.002 234.472 158.034 234.448 158.055 234.414C158.076 234.38 158.084 234.34 158.079 234.3C158.073 234.26 158.054 234.224 158.025 234.198C157.996 234.172 157.958 234.158 157.92 234.159Z" fill="#263238"/>
<path d="M159.869 234.941C157.354 234.941 154.448 235.859 152.897 238.017C152.835 238.105 152.947 238.193 153.025 238.152C155.214 236.933 157.522 235.965 159.908 235.265C159.944 235.254 159.976 235.23 159.997 235.197C160.018 235.164 160.027 235.124 160.022 235.085C160.017 235.046 159.999 235.01 159.971 234.983C159.943 234.957 159.906 234.942 159.869 234.941Z" fill="#263238"/>
<path d="M161.806 235.729C159.298 235.729 156.391 236.641 154.834 238.804C154.778 238.887 154.89 238.975 154.963 238.934C157.155 237.719 159.464 236.753 161.851 236.053C161.888 236.042 161.92 236.018 161.941 235.984C161.962 235.95 161.971 235.91 161.965 235.87C161.96 235.83 161.94 235.794 161.911 235.768C161.882 235.742 161.845 235.728 161.806 235.729Z" fill="#263238"/>
<path d="M163.75 236.517C161.235 236.488 158.329 237.429 156.778 239.592C156.716 239.675 156.834 239.763 156.906 239.722C159.098 238.506 161.407 237.54 163.794 236.841C163.831 236.83 163.863 236.806 163.884 236.772C163.905 236.738 163.914 236.698 163.908 236.658C163.903 236.618 163.883 236.582 163.854 236.556C163.825 236.53 163.788 236.516 163.75 236.517Z" fill="#263238"/>
<path d="M135.861 239.469C133.061 239.469 133.061 244.085 135.861 244.067C138.661 244.049 138.684 239.451 135.861 239.469Z" fill="#263238"/>
<path d="M160.614 227.115C159.342 226.01 157.741 227.115 156.962 228.25C155.667 230.256 154.894 232.583 154.722 235C154.722 235.053 154.762 235.077 154.801 235.077C154.811 235.126 154.832 235.173 154.863 235.212C154.893 235.252 154.932 235.283 154.977 235.303C155.021 235.323 155.07 235.332 155.118 235.328C155.166 235.325 155.213 235.309 155.254 235.282C157.035 233.983 159.096 232.819 160.446 230.978C161.213 229.908 161.84 228.144 160.614 227.115ZM157.556 232.725C156.694 233.389 155.803 234.006 154.963 234.706C155.411 233.389 155.798 232.06 156.369 230.79C156.633 230.181 156.936 229.592 157.276 229.026C157.836 228.15 160.278 225.939 160.535 228.803C160.681 230.373 158.581 231.937 157.556 232.725Z" fill="#263238"/>
<path d="M148.473 236C150.657 236.341 152.914 235.682 155.058 235.324C155.105 235.311 155.148 235.287 155.184 235.253C155.22 235.22 155.248 235.178 155.266 235.131C155.284 235.084 155.292 235.034 155.288 234.983C155.284 234.933 155.268 234.884 155.243 234.841C155.251 234.835 155.258 234.826 155.262 234.817C155.267 234.807 155.269 234.796 155.269 234.786C155.269 234.775 155.267 234.764 155.262 234.754C155.258 234.745 155.251 234.736 155.243 234.73C153.52 233.116 151.422 232.007 149.162 231.513C147.84 231.249 145.97 231.631 145.802 233.354C145.6 234.977 147.196 235.788 148.473 236ZM146.95 234.506C145.27 232.248 148.478 232.054 149.442 232.289C150.066 232.454 150.68 232.662 151.278 232.913C152.503 233.446 153.701 234.045 154.868 234.706C153.804 234.818 152.757 235.018 151.698 235.171C150.433 235.347 147.89 235.747 146.95 234.506Z" fill="#263238"/>
<path d="M91.4592 111.25C91.4592 111.25 120.506 163.135 121.285 166.78C122.478 172.378 128.8 227.656 128.8 227.656L159.04 227.068C159.04 227.068 153.832 178.329 148.898 162.27C145.348 150.704 119.711 112.343 119.711 112.343L91.4592 111.25Z" fill="#37474F"/>
<path d="M156.29 222.223C151.95 222.188 136.567 222.005 130.788 222.57C130.743 222.57 130.749 222.652 130.788 222.658C132.776 222.958 151.945 222.493 156.285 222.346C156.294 222.35 156.303 222.351 156.313 222.35C156.323 222.348 156.332 222.345 156.34 222.339C156.348 222.334 156.354 222.326 156.359 222.317C156.364 222.308 156.367 222.299 156.367 222.289C156.368 222.278 156.366 222.268 156.362 222.259C156.358 222.25 156.352 222.242 156.345 222.235C156.337 222.229 156.328 222.224 156.319 222.222C156.309 222.22 156.3 222.22 156.29 222.223Z" fill="#263238"/>
<path d="M96.4151 116.012C98.3191 119.146 100.335 122.216 102.273 125.326C104.21 128.437 106.159 131.547 108.08 134.652C111.91 140.924 115.644 147.237 119.28 153.591C121.055 156.537 122.573 159.644 123.816 162.876C124.951 166.108 125.804 169.442 126.364 172.837C126.958 176.241 127.35 179.681 127.714 183.121C128.087 186.778 128.477 190.438 128.884 194.099C129.679 201.59 130.476 209.081 131.275 216.572C131.37 217.489 131.466 218.407 131.555 219.33C131.555 219.465 131.337 219.489 131.32 219.33C130.43 211.892 129.69 204.424 128.884 196.986C128.481 193.274 128.079 189.563 127.68 185.855C127.305 182.403 126.946 178.946 126.437 175.518C125.969 172.134 125.258 168.793 124.309 165.522C123.263 162.135 121.862 158.881 120.131 155.82C116.631 149.475 112.924 143.243 109.217 137.004C105.51 130.765 101.702 124.474 97.7928 118.311C97.3112 117.553 96.8239 116.794 96.3199 116.048C96.2807 116.006 96.3815 115.954 96.4151 116.012Z" fill="#263238"/>
<path d="M100.979 250.071C99.6016 249.982 64.0192 234.847 63.0336 233.412C62.9897 233.328 62.9702 233.232 62.9776 233.136C62.9776 231.848 65.4472 227.356 67.508 221.453C67.6368 221.076 68.5552 219.324 69.8264 216.966C73.36 210.504 79.52 199.373 79.52 199.373L102.777 209.075L91.644 226.568L89.9136 230.802C89.9136 230.802 100.828 242.65 101.746 244.326C102.665 246.002 102.351 250.153 100.979 250.071Z" fill="#EB9481"/>
<path d="M100.979 250.07C99.6016 249.982 64.0192 234.847 63.0336 233.412C62.9897 233.328 62.9702 233.232 62.9776 233.136C62.9776 231.848 65.4472 227.356 67.508 221.453C67.6368 221.076 68.5552 219.324 69.8264 216.966L91.6664 226.568L89.936 230.802C89.936 230.802 100.85 242.65 101.769 244.326C102.687 246.002 102.351 250.153 100.979 250.07Z" fill="white"/>
<path d="M100.979 250.07C99.6016 249.982 64.0192 234.847 63.0336 233.412C62.6528 232.866 64.2432 227.768 67.5136 221.453L89.9136 230.808C89.9136 230.808 100.828 242.644 101.752 244.332C102.676 246.019 102.351 250.153 100.979 250.07Z" fill="#A6A6A6"/>
<path d="M101.035 248.401C95.2727 245.802 71.7863 235.888 65.9007 233.783C65.8503 233.783 65.8391 233.783 65.9007 233.818C71.5623 236.523 95.1215 246.237 101.013 248.518C101.125 248.548 101.158 248.454 101.035 248.401Z" fill="#263238"/>
<path d="M100.027 242.091C99.3882 241.797 98.6979 241.644 98 241.644C97.3021 241.644 96.6118 241.797 95.9728 242.091C94.8239 242.62 93.9133 243.593 93.4304 244.808C93.4304 244.843 93.4808 244.873 93.4976 244.837C94.1578 243.71 95.1482 242.838 96.3203 242.351C97.4925 241.864 98.7833 241.79 99.9992 242.138C100.009 242.136 100.017 242.129 100.022 242.121C100.027 242.112 100.029 242.101 100.027 242.091Z" fill="#263238"/>
<path d="M91.9464 232.366C89.6336 231.349 86.5984 231.078 84.3864 232.472C84.3024 232.525 84.3864 232.648 84.4592 232.642C86.9251 232.38 89.4105 232.393 91.8736 232.683C91.9115 232.688 91.9496 232.677 91.9808 232.654C92.012 232.631 92.0341 232.597 92.043 232.558C92.0519 232.519 92.047 232.478 92.0293 232.443C92.0115 232.408 91.982 232.38 91.9464 232.366Z" fill="#263238"/>
<path d="M93.464 233.859C91.1512 232.842 88.116 232.572 85.904 233.965C85.82 234.018 85.904 234.142 85.9768 234.136C88.4425 233.87 90.9283 233.884 93.3912 234.177C93.4291 234.181 93.4672 234.171 93.4984 234.148C93.5295 234.125 93.5517 234.091 93.5606 234.052C93.5695 234.013 93.5646 233.972 93.5468 233.936C93.5291 233.901 93.4996 233.874 93.464 233.859Z" fill="#263238"/>
<path d="M94.9872 235.353C92.6688 234.336 89.6336 234.065 87.4272 235.459C87.3376 235.512 87.4272 235.635 87.4944 235.629C89.9601 235.364 92.4459 235.377 94.9088 235.67C94.9475 235.677 94.9872 235.669 95.0201 235.646C95.053 235.624 95.0767 235.589 95.0865 235.549C95.0964 235.51 95.0916 235.467 95.0733 235.431C95.0549 235.394 95.0242 235.367 94.9872 235.353Z" fill="#263238"/>
<path d="M96.5048 236.846C94.1864 235.829 91.1568 235.559 88.9448 236.946C88.8552 237.005 88.9448 237.129 89.012 237.123C91.4777 236.857 93.9635 236.871 96.4264 237.164C96.4651 237.171 96.5048 237.162 96.5377 237.14C96.5706 237.117 96.5943 237.083 96.6041 237.043C96.6139 237.003 96.6092 236.961 96.5908 236.924C96.5724 236.888 96.5418 236.86 96.5048 236.846Z" fill="#263238"/>
<path d="M69.5968 228.597C66.9816 227.503 65.3576 231.778 67.984 232.872C70.6104 233.965 72.24 229.69 69.5968 228.597Z" fill="#263238"/>
<path d="M96.9583 226.897C96.1687 225.375 94.3039 225.751 93.1671 226.509C91.2522 227.856 89.7074 229.708 88.6871 231.878C88.6827 231.887 88.6803 231.898 88.6802 231.908C88.6801 231.919 88.6823 231.93 88.6866 231.939C88.6909 231.949 88.6972 231.957 88.7051 231.964C88.7129 231.971 88.7221 231.975 88.7319 231.978C88.7319 232.172 88.8551 232.401 89.0735 232.354C91.1959 231.843 93.5199 231.578 95.4239 230.402C96.5159 229.72 97.7031 228.338 96.9583 226.897ZM92.1143 230.89C91.0783 231.166 90.0367 231.39 89.0119 231.707C89.8596 230.635 90.7586 229.609 91.7055 228.632C92.1717 228.166 92.6675 227.734 93.1895 227.338C94.0015 226.75 97.0703 225.663 96.2863 228.42C95.8551 229.943 93.3519 230.561 92.1143 230.89Z" fill="#263238"/>
<path d="M82.5272 230.349C84.4312 231.525 86.7552 231.801 88.872 232.319C89.0904 232.372 89.236 232.142 89.2192 231.942C89.2297 231.941 89.2397 231.937 89.2483 231.931C89.2569 231.924 89.2638 231.916 89.2683 231.906C89.2728 231.896 89.2748 231.885 89.274 231.874C89.2733 231.862 89.2698 231.852 89.264 231.843C88.2454 229.668 86.7005 227.813 84.784 226.462C83.664 225.698 81.788 225.316 80.9928 226.833C80.1976 228.35 81.4128 229.661 82.5272 230.349ZM81.6536 228.362C80.8752 225.604 83.9384 226.698 84.7504 227.291C85.2718 227.687 85.7658 228.122 86.2288 228.591C87.1739 229.569 88.071 230.598 88.9168 231.672C87.892 231.354 86.8504 231.125 85.8144 230.849C84.56 230.496 82.0792 229.908 81.6536 228.362Z" fill="#263238"/>
<path d="M93.4527 225.592L67.4183 214.555C67.4183 214.555 99.6967 164.722 99.9319 161.012C100.145 157.731 85.9655 129.142 85.4111 120.811C84.8063 111.814 88.9279 104.858 93.4639 100.536L120.316 112.526C120.316 112.526 117.482 117.282 113.036 119.934C113.036 119.934 126.806 152.98 126.022 163.141C125.238 173.301 93.4527 225.592 93.4527 225.592Z" fill="#37474F"/>
<path d="M94.6064 220.394C90.8432 218.695 91.9464 219.124 88.1608 217.454C86.3128 216.643 74.1608 211.333 72.2904 210.892C72.2512 210.892 72.2232 210.951 72.2624 210.974C73.8808 212.015 86.1336 217.101 87.9984 217.878C91.812 219.453 90.7312 218.959 94.5616 220.488C94.5673 220.496 94.5749 220.503 94.5836 220.507C94.5924 220.511 94.6019 220.512 94.6114 220.512C94.6209 220.511 94.6301 220.507 94.638 220.502C94.6458 220.496 94.6522 220.488 94.6565 220.479C94.6608 220.47 94.6628 220.46 94.6624 220.45C94.6619 220.44 94.6591 220.431 94.6541 220.422C94.649 220.414 94.642 220.407 94.6337 220.402C94.6253 220.397 94.616 220.394 94.6064 220.394Z" fill="#263238"/>
<path d="M117.438 119.329C114.642 120.013 111.907 120.945 109.262 122.116C109.251 122.12 109.241 122.126 109.233 122.134C109.224 122.141 109.217 122.151 109.212 122.162C109.207 122.172 109.205 122.184 109.204 122.196C109.203 122.207 109.205 122.219 109.208 122.231C109.212 122.242 109.218 122.252 109.225 122.261C109.233 122.27 109.242 122.277 109.252 122.282C109.262 122.287 109.273 122.29 109.284 122.291C109.296 122.292 109.307 122.29 109.318 122.286C112.062 121.446 114.85 120.658 117.55 119.664C117.757 119.587 117.65 119.282 117.438 119.329Z" fill="#263238"/>
<path d="M114.24 118.188C113.979 118.675 113.749 119.18 113.551 119.699C113.358 120.093 113.238 120.522 113.198 120.963C113.198 121.052 113.31 121.069 113.361 121.016C113.642 120.663 113.868 120.267 114.033 119.84C114.262 119.376 114.498 118.917 114.716 118.441C114.867 118.094 114.414 117.87 114.24 118.188Z" fill="#263238"/>
<path d="M114.576 115.518C114.744 115.083 114.906 114.654 115.08 114.219C115.254 113.784 115.472 113.337 115.64 112.878C115.64 112.808 115.774 112.878 115.746 112.931C115.578 113.366 115.472 113.825 115.343 114.272C115.214 114.719 115.069 115.166 114.929 115.613C114.666 116.442 114.369 117.265 114.005 118.07C114.445 118.093 114.885 118.013 115.293 117.835C115.709 117.556 116.029 117.143 116.206 116.659C116.441 116.177 116.659 115.683 116.9 115.201C117.196 114.68 117.446 114.13 117.645 113.56C117.645 113.49 117.779 113.56 117.751 113.613C117.386 114.819 116.908 115.983 116.323 117.088C116.071 117.518 115.875 117.97 115.416 118.135C114.919 118.281 114.399 118.319 113.887 118.247C113.82 118.247 113.742 118.247 113.764 118.141C113.993 117.253 114.264 116.378 114.576 115.518Z" fill="#263238"/>
<path d="M113.434 121.01C114.391 123.133 115.231 125.25 116.122 127.367C117.012 129.484 117.802 131.53 118.602 133.635C120.204 137.88 121.638 142.208 122.898 146.571C123.519 148.735 124.096 150.916 124.611 153.115C125.179 155.307 125.594 157.54 125.854 159.795C126.079 162.046 125.889 164.322 125.294 166.498C124.677 168.649 123.884 170.74 122.926 172.749C122.338 174.019 122.142 173.848 122.422 173.207C123.222 171.384 125.322 165.863 125.171 161.224C125.049 159.003 124.722 156.799 124.197 154.644C123.708 152.421 123.157 150.216 122.545 148.029C121.352 143.713 119.935 139.485 118.479 135.264C117.662 132.912 116.799 130.56 115.959 128.208C115.119 125.856 114.279 123.692 113.338 121.093C113.31 120.987 113.406 120.946 113.434 121.01Z" fill="#263238"/>
<path d="M93.6712 113.996C94.136 113.813 94.7912 114.113 95.2616 114.196C95.8708 114.304 96.4864 114.369 97.104 114.39C97.7151 114.412 98.3269 114.391 98.9352 114.325C99.5478 114.308 100.148 114.141 100.688 113.837C101.574 113.159 102.333 112.316 102.928 111.35C103.637 110.362 104.222 109.283 104.67 108.139C104.67 108.069 104.787 108.139 104.765 108.186C104.569 108.839 104.423 109.497 104.205 110.138C103.963 110.74 103.675 111.321 103.342 111.873C102.803 112.984 102.006 113.935 101.024 114.637C99.9432 115.283 98.5544 115.224 97.3504 115.172C96.6521 115.129 95.9577 115.033 95.2728 114.883C94.78 114.772 93.9512 114.689 93.6376 114.237C93.6228 114.219 93.6119 114.199 93.6055 114.177C93.5992 114.154 93.5975 114.131 93.6007 114.108C93.6039 114.085 93.6119 114.063 93.6241 114.044C93.6362 114.024 93.6523 114.008 93.6712 113.996Z" fill="#263238"/>
<path d="M74.8496 209.328C79.128 202.523 83.328 195.663 87.4496 188.748C91.5712 181.833 95.6368 174.865 99.6464 167.845C100.604 166.169 101.707 164.499 102.323 162.641C102.995 160.624 102.614 158.666 102.01 156.69C100.868 153.086 99.5326 149.552 98.0112 146.106C96.5104 142.631 94.892 139.215 93.3016 135.787C91.7112 132.359 90.048 128.972 88.8216 125.397C87.7016 121.981 87.248 118.441 88.1216 114.901C88.9952 111.361 90.8768 108.233 92.8424 105.287C93.3576 104.511 93.8896 103.741 94.4104 102.935C94.4496 102.877 94.5336 102.935 94.4944 103.006C92.3272 106.075 90.216 109.327 88.9448 112.931C88.2951 114.708 87.9317 116.586 87.8696 118.488C87.859 120.419 88.1445 122.338 88.7152 124.174C89.768 127.749 91.4312 131.13 92.9824 134.493C94.5336 137.857 96.1912 141.338 97.72 144.801C99.2972 148.287 100.699 151.857 101.92 155.497C102.441 157.114 103.04 158.807 102.995 160.542C102.956 162.441 102.094 164.152 101.198 165.751C97.2776 172.719 93.2624 179.605 89.1744 186.449C85.0864 193.293 80.8808 200.138 76.6248 206.911L75.012 209.469C74.928 209.575 74.7824 209.452 74.8496 209.328Z" fill="#263238"/>
<path d="M121.806 80.8324C124.23 86.4184 136.478 94.1153 142.212 94.9444C146.334 95.5324 158.866 95.7441 163.162 95.0561C168.202 94.2447 164.349 79.9857 161.375 80.3561C153.199 81.3557 146.255 82.4729 144.071 82.4729C141.406 82.4729 126.986 77.616 125.25 76.9281C120.994 75.264 120.434 77.6631 121.806 80.8324Z" fill="#EB9481"/>
<path d="M121.884 82.32C124.953 87.0887 135.15 94.8856 135.15 94.8856L136.567 91.5928L141.254 80.703C141.254 80.703 131.886 77.616 125.72 76.2048C124.994 76.0314 124.256 75.9213 123.514 75.8755C119.577 75.6521 119.235 78.204 121.884 82.32Z" fill="#407BFF"/>
<path d="M121.884 82.32C124.953 87.0887 135.15 94.8856 135.15 94.8856L136.567 91.5928C132.765 86.9535 126.89 79.9269 123.514 75.8873C119.577 75.6521 119.235 78.204 121.884 82.32Z" fill="#263238"/>
<path d="M133.314 92.6747C134.092 90.6696 137.553 82.5963 138.415 80.9147C138.471 80.7971 138.561 80.8088 138.51 80.9147C137.009 84.9295 135.301 88.8553 133.392 92.6747C133.37 92.7452 133.28 92.7217 133.314 92.6747Z" fill="#263238"/>
<path d="M159.875 80.503C164.847 79.821 171.002 78.6508 176.215 80.9734C176.801 81.2146 177.292 81.6558 177.61 82.2259C179.962 83.2255 180.219 84.6896 180.219 84.6896C182.14 86.3242 182.207 87.8648 182.207 87.8648C182.207 87.8648 184.963 89.0408 184.543 90.9342C184.083 93.0274 180.309 90.9342 177.565 91.1047C171.265 91.5163 162.445 93.9447 160.625 94.2505L159.875 80.503Z" fill="#EB9481"/>
<path d="M170.677 86.6654C172.519 86.5331 174.368 86.5331 176.21 86.6654C178.216 86.9296 180.2 87.3522 182.146 87.9296C182.158 87.9342 182.172 87.9335 182.184 87.9274C182.196 87.9213 182.206 87.9105 182.21 87.8972C182.214 87.884 182.214 87.8694 182.208 87.8567C182.202 87.844 182.192 87.8343 182.179 87.8296C178.524 86.3238 174.545 85.9008 170.677 86.6066C170.587 86.5948 170.587 86.6712 170.677 86.6654Z" fill="#263238"/>
<path d="M169.506 80.556C172.581 80.7207 174.502 81.2381 177.593 82.2142V82.1789C174.188 80.6854 172.794 80.5443 169.49 80.4149C169.383 80.462 169.389 80.556 169.506 80.556Z" fill="#263238"/>
<path d="M170.005 92.1044C169.204 92.4983 169.4 92.9393 170.929 93.3098C172.458 93.6802 178.814 93.7919 178.59 96.1204C178.366 98.4489 169.4 98.1549 166.897 97.3317C164.394 96.5085 160.625 94.2506 160.625 94.2506C162.4 93.9389 166.566 92.7571 170.005 92.1044Z" fill="#EB9481"/>
<path d="M128.464 89.7347C128.425 90.7401 128.335 91.7633 128.201 92.7805C128.201 92.7393 128.201 92.7041 128.24 92.6688C128.425 92.1396 128.61 91.5986 128.834 91.0871C128.834 91.0871 128.89 91.0871 128.884 91.0871C128.776 91.6476 128.615 92.1953 128.402 92.7217C128.302 92.9745 128.206 93.2215 128.1 93.4685C128.033 93.9212 127.954 94.3681 127.87 94.815C127.702 95.6558 126.946 99.2309 126.75 99.8365C126.717 99.96 126.571 99.9306 126.582 99.7895C126.622 99.1309 127.254 95.4089 127.383 94.5621C127.633 92.9273 127.968 91.3079 128.386 89.7111C128.414 89.6817 128.47 89.7053 128.464 89.7347Z" fill="#263238"/>
<path d="M122.64 116.471C121.145 117.277 119.218 118.529 110.538 116.736C109.978 116.618 109.452 116.477 108.903 116.306C100.766 113.743 90.9832 103.694 90.4512 102.982C90.4512 102.982 103.382 80.9735 119.918 74.0527C121.962 73.2001 125.345 74.8465 127.198 76.8987C127.865 77.6337 129.315 83.0374 128.761 87.4121C128.206 91.7868 124.13 115.665 122.64 116.471Z" fill="#407BFF"/>
<path d="M121.475 87.2122C121.538 88.1422 121.414 89.0756 121.111 89.9522C121.04 89.0219 121.164 88.0866 121.475 87.2122Z" fill="white"/>
<path d="M115.836 102.2C115.872 102.663 115.857 103.129 115.791 103.588C115.737 104.051 115.63 104.505 115.472 104.94C115.433 104.476 115.448 104.008 115.517 103.547C115.574 103.087 115.681 102.635 115.836 102.2Z" fill="white"/>
<path d="M106.254 90.8695C106.317 91.8015 106.193 92.737 105.89 93.6155C105.82 92.6832 105.944 91.7461 106.254 90.8695Z" fill="white"/>
<path d="M125.166 101.436C125.201 101.901 125.186 102.368 125.121 102.829C125.067 103.292 124.96 103.746 124.802 104.182C124.763 103.717 124.778 103.249 124.846 102.788C124.903 102.326 125.01 101.872 125.166 101.436Z" fill="white"/>
<path d="M112.862 88.9291C113.303 88.8897 113.746 88.9035 114.184 88.9703C114.625 89.0289 115.057 89.1434 115.472 89.3113C114.586 89.3781 113.697 89.2479 112.862 88.9291Z" fill="white"/>
<path d="M101.987 99.7542C102.873 99.6886 103.762 99.8188 104.597 100.136C103.711 100.211 102.82 100.08 101.987 99.7542Z" fill="white"/>
<path d="M114.8 111.473C115.686 111.406 116.575 111.537 117.41 111.855C116.524 111.929 115.633 111.798 114.8 111.473Z" fill="white"/>
<path d="M98.6328 107.216C99.5186 107.15 100.408 107.281 101.242 107.598C100.356 107.672 99.4659 107.541 98.6328 107.216Z" fill="white"/>
<path d="M121.391 76.6752C122.277 76.6096 123.166 76.7398 124.001 77.0574C123.115 77.123 122.226 76.9928 121.391 76.6752Z" fill="white"/>
<path d="M118.227 80.4266C117.944 80.784 117.621 81.1038 117.264 81.3792C116.917 81.661 116.541 81.9015 116.144 82.0966C116.425 81.7415 116.745 81.4219 117.096 81.144C117.446 80.8612 117.826 80.6205 118.227 80.4266Z" fill="white"/>
<path d="M100.985 91.087C100.698 91.4413 100.373 91.759 100.016 92.0337C99.6725 92.3208 99.2963 92.5618 98.896 92.7511C99.1841 92.3983 99.5091 92.0808 99.8648 91.8044C100.209 91.5185 100.585 91.2777 100.985 91.087Z" fill="white"/>
<path d="M122.517 95.897C122.23 96.2531 121.905 96.5727 121.548 96.8495C121.204 97.1354 120.828 97.3763 120.428 97.5669C120.714 97.2108 121.04 96.8911 121.397 96.6143C121.743 96.3314 122.119 96.0907 122.517 95.897Z" fill="white"/>
<path d="M108.573 105.117C108.286 105.473 107.961 105.793 107.604 106.069C107.259 106.354 106.883 106.595 106.484 106.787C106.77 106.431 107.096 106.111 107.453 105.834C107.799 105.551 108.175 105.311 108.573 105.117Z" fill="white"/>
<path d="M127.859 83.302C127.573 83.6581 127.248 83.9778 126.891 84.2546C126.544 84.5363 126.168 84.7769 125.771 84.9719C126.057 84.6158 126.382 84.2962 126.739 84.0194C127.084 83.7344 127.46 83.4935 127.859 83.302Z" fill="white"/>
<path d="M127.568 93.986C127.229 93.6852 126.924 93.3438 126.661 92.9687C126.388 92.6074 126.159 92.2125 125.978 91.7927C126.318 92.09 126.623 92.4296 126.885 92.8041C127.152 93.1711 127.381 93.5674 127.568 93.986Z" fill="white"/>
<path d="M96.488 101.348C96.1489 101.047 95.8444 100.705 95.5808 100.33C95.3113 99.9669 95.0821 99.5724 94.8976 99.1544C95.2367 99.4552 95.5412 99.7966 95.8048 100.172C96.0762 100.534 96.3056 100.929 96.488 101.348Z" fill="white"/>
<path d="M123.788 110.103C123.448 109.806 123.143 109.466 122.881 109.092C122.612 108.727 122.383 108.333 122.198 107.916C122.537 108.216 122.841 108.558 123.105 108.933C123.375 109.294 123.604 109.686 123.788 110.103Z" fill="white"/>
<path d="M110.107 85.1424C109.768 84.8437 109.464 84.5043 109.2 84.1311C108.933 83.7659 108.704 83.3716 108.517 82.9551C108.857 83.2523 109.162 83.5919 109.424 83.9664C109.691 84.3316 109.92 84.7259 110.107 85.1424Z" fill="white"/>
<path d="M110.348 115.089C110.009 114.788 109.704 114.447 109.441 114.072C109.172 113.708 108.943 113.313 108.758 112.896C109.098 113.193 109.403 113.533 109.665 113.907C109.934 114.273 110.163 114.669 110.348 115.089Z" fill="white"/>
<path d="M112.672 97.4257C112.336 97.1232 112.034 96.782 111.77 96.4084C111.497 96.0478 111.267 95.6527 111.087 95.2324C111.425 95.5333 111.727 95.8747 111.989 96.2497C112.261 96.6112 112.49 97.0061 112.672 97.4257Z" fill="white"/>
<path d="M124.169 82.761C122.058 82.3494 120.075 77.7689 119.823 74.6878C119.823 74.4761 120.809 72.8003 121.934 70.7011C122.618 69.4252 123.34 67.9846 123.917 66.6204C124.034 66.3441 124.723 67.279 124.723 67.279L126.224 68.455L131.18 72.4475C130 73.9345 128.997 75.5675 128.195 77.3103C128.116 77.4991 128.056 77.6962 128.016 77.8983C128.014 77.9315 128.014 77.9649 128.016 77.9982C127.708 79.1625 126.202 83.155 124.169 82.761Z" fill="#EB9481"/>
<path d="M128.016 77.9276C128.014 77.9609 128.014 77.9943 128.016 78.0276C127.722 77.937 127.435 77.821 127.159 77.6807C121.733 75.0111 124.124 67.3789 124.124 67.3789L126.252 68.4843L131.208 72.4769C130.028 73.9638 129.025 75.5969 128.223 77.3396C128.134 77.5273 128.065 77.7244 128.016 77.9276Z" fill="#263238"/>
<path d="M136.875 56.201C136.875 56.201 139.356 57.8533 139.367 60.7933C139.378 63.7333 138.247 66.6086 138.012 66.7145C137.777 66.8203 136.875 56.201 136.875 56.201Z" fill="#263238"/>
<path d="M124.566 57.7299C123.077 60.8169 123.155 70.5483 125.014 73.0531C127.714 76.687 132.91 77.9394 136.052 74.3467C139.093 70.8658 138.779 58.1885 136.612 55.8247C133.459 52.332 126.773 53.1611 124.566 57.7299Z" fill="#EB9481"/>
<path d="M132.474 65.5209C132.474 65.5209 132.423 65.5562 132.429 65.5797C132.462 66.2441 132.395 67.0085 131.83 67.2437C131.83 67.2437 131.83 67.2849 131.83 67.279C132.53 67.1614 132.608 66.1442 132.474 65.5209Z" fill="#263238"/>
<path d="M131.897 64.8447C130.878 64.7859 130.844 66.9262 131.79 66.9791C132.737 67.0321 132.748 64.8917 131.897 64.8447Z" fill="#263238"/>
<path d="M135.929 65.4973C135.929 65.4973 135.979 65.4973 135.979 65.5561C135.946 66.2206 136.018 66.985 136.59 67.2143C136.59 67.2143 136.59 67.2554 136.59 67.2496C135.884 67.1378 135.8 66.1206 135.929 65.4973Z" fill="#263238"/>
<path d="M136.505 64.8153C137.519 64.7506 137.569 66.8909 136.629 66.9497C135.688 67.0085 135.654 64.8682 136.505 64.8153Z" fill="#263238"/>
<path d="M131.258 63.2159C131.526 63.1359 131.79 63.0417 132.048 62.9336C132.342 62.8777 132.61 62.7205 132.81 62.4867C132.858 62.4012 132.878 62.3012 132.867 62.2024C132.856 62.1035 132.814 62.0113 132.748 61.9399C132.596 61.8189 132.417 61.7426 132.228 61.7188C132.039 61.6951 131.847 61.7247 131.673 61.8047C131.295 61.9109 130.968 62.1601 130.754 62.5044C130.712 62.5863 130.692 62.6793 130.699 62.7724C130.705 62.8655 130.736 62.9548 130.789 63.0296C130.842 63.1045 130.915 63.1619 130.998 63.1949C131.081 63.2279 131.171 63.2352 131.258 63.2159Z" fill="#263238"/>
<path d="M137.2 64.1626C136.928 64.0986 136.659 64.0201 136.394 63.9274C136.099 63.8864 135.825 63.7437 135.615 63.5217C135.561 63.4399 135.535 63.3414 135.541 63.2421C135.547 63.1428 135.585 63.0486 135.649 62.9748C135.793 62.8452 135.968 62.7587 136.156 62.7246C136.343 62.6904 136.535 62.7098 136.713 62.7808C137.096 62.8641 137.436 63.0948 137.665 63.4276C137.713 63.5063 137.738 63.598 137.737 63.6915C137.737 63.785 137.71 63.8762 137.661 63.9541C137.611 64.032 137.542 64.0932 137.46 64.1302C137.378 64.1672 137.288 64.1785 137.2 64.1626Z" fill="#263238"/>
<path d="M131.04 71.8065C131.191 71.9653 131.337 72.177 131.566 72.2005C131.802 72.2003 132.034 72.1483 132.25 72.0476C132.25 72.0476 132.289 72.0476 132.25 72.0829C132.158 72.2121 132.034 72.3127 131.892 72.3738C131.75 72.4349 131.595 72.4543 131.443 72.4298C131.315 72.3932 131.2 72.3179 131.113 72.2134C131.025 72.1089 130.969 71.9797 130.95 71.8418C130.946 71.8293 130.946 71.8155 130.952 71.8034C130.957 71.7912 130.966 71.7818 130.978 71.7771C130.99 71.7724 131.003 71.7729 131.015 71.7784C131.026 71.7839 131.035 71.7941 131.04 71.8065Z" fill="#263238"/>
<path d="M134.702 68.9724C134.702 68.9724 134.73 69.9602 134.702 70.4247C133.842 70.3289 132.973 70.3605 132.121 70.5188C131.919 70.5659 131.942 70.3953 132.171 70.2836C132.858 69.9542 133.622 69.8478 134.366 69.9779C134.411 69.8544 134.294 68.4491 134.366 68.4549C134.705 68.5248 135.033 68.6435 135.341 68.8077C135.341 66.738 135.027 64.6918 135.055 62.622C135.055 62.5514 135.162 62.5397 135.173 62.622C135.571 64.8115 135.758 67.0375 135.733 69.2664C135.738 69.5192 134.87 69.0665 134.702 68.9724Z" fill="#263238"/>
<path d="M133.442 70.072C133.219 70.6886 132.805 71.2084 132.266 71.5479C131.421 71.9066 131.146 71.101 131.998 70.3719C132.444 70.135 132.944 70.0313 133.442 70.072Z" fill="#263238"/>
<path d="M132.563 71.3656C132.474 71.442 132.374 71.5035 132.266 71.5479C131.488 71.8772 131.18 71.2245 131.807 70.5659C132.233 70.6012 132.72 70.7658 132.563 71.3656Z" fill="#FF99BA"/>
<path d="M124.141 66.05C125.166 66.3793 126.342 63.1453 126.678 61.934C126.969 60.8404 127.305 57.3653 127.355 57.1242C127.406 56.8831 131.835 60.1994 134.4 59.4115C136.965 58.6236 138.706 56.1834 138.746 55.0486C138.785 53.9137 135.576 51.0325 132.804 50.8855C130.032 50.7385 126.274 54.4135 126.274 54.4135C126.728 53.8727 127.14 53.2946 127.506 52.6848C127.462 52.5554 125.67 53.3081 125.339 54.6487C125.339 54.6487 125.698 52.9612 125.563 52.9318C125.429 52.9024 124.034 54.343 124.348 55.4366C124.348 55.4366 122.735 56.9008 122.59 58.506C122.444 60.1112 122.937 65.662 124.141 66.05Z" fill="#263238"/>
<path d="M136.237 58.8C135.474 59.2343 134.653 59.5436 133.801 59.7173C132.845 59.8068 131.882 59.6452 131.001 59.2469C130.113 58.8866 129.287 58.3739 128.559 57.7298C127.915 57.1771 127.338 56.5009 126.65 56.007C126.476 55.8776 126.28 56.1422 126.386 56.3069C127.536 58.0112 129.177 59.2814 131.068 59.929C131.946 60.2296 132.884 60.2858 133.789 60.092C134.694 59.8983 135.535 59.4612 136.231 58.8235C136.231 58.8235 136.248 58.8 136.237 58.8Z" fill="#263238"/>
<path d="M125.21 65.7619C125.21 65.7619 123.62 62.375 122.186 62.9219C120.753 63.4687 121.626 68.1551 123.099 69.0135C123.28 69.1361 123.482 69.2191 123.693 69.2577C123.905 69.2962 124.122 69.2895 124.331 69.2379C124.54 69.1863 124.738 69.0909 124.911 68.9573C125.084 68.8238 125.23 68.6549 125.339 68.4608L125.21 65.7619Z" fill="#EB9481"/>
<path d="M122.472 64.2566C122.472 64.2566 122.438 64.2566 122.472 64.3036C123.491 64.9387 123.906 66.0676 124.152 67.2436C124.106 67.1191 124.034 67.0067 123.942 66.9141C123.85 66.8215 123.74 66.751 123.62 66.7074C123.5 66.6638 123.372 66.6481 123.245 66.6615C123.118 66.6749 122.996 66.717 122.886 66.785C122.853 66.785 122.886 66.8497 122.886 66.8497C123.087 66.817 123.292 66.8503 123.473 66.9451C123.655 67.0398 123.804 67.1914 123.9 67.3789C124.06 67.6929 124.188 68.024 124.281 68.3667C124.314 68.4784 124.499 68.449 124.482 68.3256C124.723 66.8614 123.939 64.6447 122.472 64.2566Z" fill="#263238"/>
<path d="M114.71 80.8853C113.59 87.5473 120.467 109.991 124.874 114.184C131.432 120.416 143.556 124.515 147.952 125.85C149.867 126.438 155.165 112.284 153.227 111.35C149.078 109.368 136.186 105.134 134.96 104.076C133.734 103.018 126.342 91.8044 123.049 85.3482C118.642 76.6575 115.265 77.516 114.71 80.8853Z" fill="#EB9481"/>
<path d="M149.962 110.103C149.962 110.103 155.686 111.638 159.376 112.82C161.437 113.484 164.875 114.948 166.18 116.159C168.129 117.976 175.173 126.867 173.157 128.707C171.332 130.377 166.202 121.928 166.202 121.928C166.202 121.928 172.094 129.972 169.562 131.553C167.031 133.135 162.4 122.78 162.4 122.78C162.4 122.78 168.274 131.189 165.401 132.382C163.229 133.282 158.57 124.15 158.57 124.15C158.57 124.15 163.576 131.412 161.37 132.441C158.939 133.582 154.14 125.432 154.14 125.432C148.137 127.061 144.62 125.256 142.307 123.668C141.764 123.28 149.962 110.103 149.962 110.103Z" fill="#EB9481"/>
<path d="M164.332 119.005C165.06 119.923 165.799 120.852 166.443 121.834C167.087 122.816 167.698 123.827 168.252 124.868C169.003 126.214 169.605 127.646 170.044 129.137C169.081 126.549 166.824 122.992 166.18 122.01C165.536 121.028 164.937 120.011 164.299 119.029C164.282 119.005 164.315 118.982 164.332 119.005Z" fill="#263238"/>
<path d="M160.91 121.387C162.154 122.422 164.758 126.267 165.76 128.848C165.805 128.954 165.76 128.948 165.687 128.848C164.903 127.572 161.722 122.633 160.882 121.404C160.866 121.387 160.894 121.369 160.91 121.387Z" fill="#263238"/>
<path d="M157.623 122.892C159.168 124.593 160.388 126.589 161.219 128.772C161.258 128.878 161.179 128.86 161.118 128.772C159.959 126.79 159.063 125.244 157.562 122.945C157.539 122.892 157.59 122.839 157.623 122.892Z" fill="#263238"/>
<path d="M120.96 81.3733C115.847 73.7822 112.79 76.5929 113.814 84.8366C114.778 92.5453 117.348 101.73 117.348 101.73L130.228 95.1678C130.228 95.1678 124.214 86.2361 120.96 81.3733Z" fill="#407BFF"/>
<path d="M124.068 84.3604C124.238 84.7891 124.36 85.237 124.432 85.6951C124.511 86.1547 124.539 86.6223 124.516 87.0887C124.348 86.6577 124.228 86.2078 124.158 85.748C124.074 85.291 124.044 84.825 124.068 84.3604Z" fill="white"/>
<path d="M116.435 88.9762C117.257 88.6252 118.142 88.4647 119.028 88.5058C118.619 88.6821 118.193 88.8084 117.757 88.8821C117.321 88.9694 116.878 89.001 116.435 88.9762Z" fill="white"/>
<path d="M116.766 77.1691C116.419 78.0284 115.901 78.8002 115.248 79.4329C115.595 78.5735 116.112 77.8018 116.766 77.1691Z" fill="white"/>
<path d="M127.68 92.5219C127.51 92.9519 127.294 93.3602 127.036 93.739C126.785 94.1226 126.492 94.4739 126.162 94.7856C126.509 93.9263 127.027 93.1545 127.68 92.5219Z" fill="white"/>
<path d="M118.72 97.1258C118.309 96.9494 117.92 96.7224 117.561 96.4496C117.195 96.1861 116.861 95.8782 116.564 95.5323C117.382 95.8965 118.117 96.4397 118.72 97.1258Z" fill="white"/>
<path d="M122.64 83.6606C123.329 84.6544 124.04 85.6246 124.746 86.6006C124.566 86.1067 124.41 85.6069 124.275 85.1012H124.309C124.449 85.4893 124.611 85.8715 124.746 86.2772L124.947 86.8652C124.965 86.9054 124.98 86.9466 124.992 86.9887C125.552 87.7472 126.112 88.5058 126.627 89.2819C127.26 90.211 127.87 91.1518 128.486 92.0926C129.102 93.0334 129.724 94.2035 130.39 95.1502C130.452 95.2325 129.27 95.7382 129.142 95.8028C129.013 95.8675 128.946 95.7558 129.069 95.7146C129.192 95.6735 130.133 95.0678 130.144 95.0561C129.528 94.1035 128.817 93.2274 128.173 92.3042C127.529 91.3811 126.89 90.4579 126.269 89.523C125.009 87.6179 123.855 85.6422 122.601 83.7312L122.64 83.6606Z" fill="#263238"/>
<path d="M114.117 90.2932C114.313 90.6931 114.526 91.087 114.677 91.4986L114.89 92.0102C114.593 90.5461 114.33 89.0702 114.022 87.6061C114.615 89.9581 115.214 92.363 115.763 94.7503C116.284 97.0317 116.917 99.3367 117.219 101.665C117.61 101.485 118.014 101.342 118.429 101.236C118.013 101.519 117.565 101.746 117.096 101.912C116.421 99.5443 115.86 97.1422 115.416 94.715C115.276 94.0564 115.147 93.3979 115.013 92.7393C114.867 92.3395 114.694 91.9573 114.52 91.5633C114.346 91.1694 114.19 90.7284 114.033 90.3109C114.066 90.2874 114.106 90.2638 114.117 90.2932Z" fill="#263238"/>
<path d="M117.538 99.4602C119.33 98.4018 126.818 94.3328 128.492 93.5802C128.61 93.5273 128.671 93.5802 128.554 93.6625C125 95.8309 121.335 97.7938 117.578 99.5425C117.533 99.5543 117.488 99.4896 117.538 99.4602Z" fill="#263238"/>
<path d="M322.739 254.045H152.118L176.786 107.134H347.407L322.739 254.045Z" fill="#407BFF"/>
<path d="M235.183 91.9161H179.346L176.786 107.134H236.544L235.183 91.9161Z" fill="#407BFF"/>
<g opacity="0.1">
<path d="M322.739 254.045H152.118L176.786 107.134H347.407L322.739 254.045Z" fill="black"/>
<path d="M235.183 91.9161H179.346L176.786 107.134H236.544L235.183 91.9161Z" fill="black"/>
</g>
<path d="M173.32 98.1254C172.946 96.4427 172.946 94.6924 173.32 93.0098C173.693 94.6924 173.693 96.4427 173.32 98.1254Z" fill="#263238"/>
<path d="M168.358 99.6307C167.788 99.0099 167.297 98.3142 166.897 97.561C166.477 96.8234 166.148 96.0332 165.917 95.209C166.489 95.8262 166.98 96.5201 167.378 97.2729C167.797 98.013 168.126 98.8051 168.358 99.6307Z" fill="#263238"/>
<path d="M164.774 103.541C163.201 103.038 161.758 102.163 160.558 100.983C161.343 101.223 162.095 101.566 162.798 102.006C163.515 102.429 164.179 102.945 164.774 103.541Z" fill="#263238"/>
<path d="M163.52 108.809C161.917 109.201 160.25 109.201 158.648 108.809C160.25 108.417 161.917 108.417 163.52 108.809Z" fill="#263238"/>
<path d="M164.976 114.019C164.382 114.615 163.72 115.13 163.005 115.554C162.302 115.993 161.55 116.337 160.765 116.577C161.356 115.978 162.018 115.462 162.736 115.042C163.437 114.6 164.19 114.256 164.976 114.019Z" fill="#263238"/>
<path d="M168.694 117.776C168.218 119.431 167.384 120.948 166.258 122.21C166.486 121.385 166.816 120.594 167.238 119.858C167.637 119.102 168.127 118.402 168.694 117.776Z" fill="#263238"/>
<path d="M173.712 119.076C173.907 119.913 174.001 120.772 173.992 121.634C174.004 122.495 173.91 123.355 173.712 124.191C173.511 123.356 173.417 122.495 173.432 121.634C173.423 120.772 173.517 119.913 173.712 119.076Z" fill="#263238"/>
<path d="M178.674 117.6C179.244 118.221 179.735 118.917 180.135 119.67C180.556 120.406 180.884 121.197 181.11 122.022C179.984 120.76 179.15 119.243 178.674 117.588V117.6Z" fill="#263238"/>
<path d="M182.252 113.66C183.038 113.898 183.791 114.242 184.492 114.684C185.209 115.104 185.872 115.619 186.463 116.218C185.677 115.981 184.924 115.637 184.223 115.195C183.506 114.775 182.843 114.259 182.252 113.66Z" fill="#263238"/>
<path d="M183.49 108.392C185.094 108 186.763 108 188.367 108.392C186.763 108.784 185.094 108.784 183.49 108.392Z" fill="#263238"/>
<path d="M182.056 103.182C182.649 102.587 183.311 102.073 184.027 101.653C184.727 101.207 185.48 100.861 186.267 100.624C185.066 101.806 183.621 102.682 182.045 103.182H182.056Z" fill="#263238"/>
<path d="M178.332 99.4249C178.563 98.6015 178.89 97.8114 179.306 97.0729C179.707 96.3197 180.198 95.624 180.768 95.0032C180.542 95.8283 180.214 96.619 179.794 97.3552C179.394 98.1084 178.902 98.8041 178.332 99.4249Z" fill="#263238"/>
<path d="M322.487 254.045H151.502L127.221 112.467H298.211L322.487 254.045Z" fill="#407BFF"/>
<path d="M186.474 199.015C190.399 199.015 193.581 195.674 193.581 191.553C193.581 187.432 190.399 184.091 186.474 184.091C182.55 184.091 179.368 187.432 179.368 191.553C179.368 195.674 182.55 199.015 186.474 199.015Z" fill="#263238"/>
<path d="M242.654 199.015C246.578 199.015 249.76 195.674 249.76 191.553C249.76 187.432 246.578 184.091 242.654 184.091C238.729 184.091 235.547 187.432 235.547 191.553C235.547 195.674 238.729 199.015 242.654 199.015Z" fill="#263238"/>
<path d="M224.773 200.208L224.381 199.426C224.347 199.356 220.673 192.229 213.287 192.229C206.567 192.229 204.887 198.938 204.842 199.226L204.641 200.079L203.011 199.667L203.207 198.809C203.207 198.726 205.212 190.465 213.287 190.465C221.687 190.465 225.702 198.274 225.87 198.609L226.262 199.385L224.773 200.208Z" fill="#263238"/>
<path d="M311.198 190.982L311.08 190.394C311.444 190.312 311.802 190.224 312.161 190.124L312.301 190.712C311.92 190.812 311.567 190.9 311.198 190.982Z" fill="#263238"/>
<path d="M314.468 190.036L314.289 189.483C314.989 189.23 315.689 188.954 316.367 188.654L316.585 189.195C315.896 189.501 315.185 189.783 314.468 190.036ZM318.64 188.16L318.388 187.643C319.043 187.284 319.699 186.896 320.32 186.467L320.611 186.966C319.973 187.431 319.307 187.825 318.64 188.16ZM322.493 185.673L322.163 185.196C322.767 184.732 323.35 184.244 323.899 183.744L324.268 184.185C323.68 184.72 323.12 185.22 322.487 185.696L322.493 185.673ZM325.909 182.545L325.5 182.139C326.015 181.551 326.503 180.963 326.951 180.375L327.393 180.734C326.928 181.38 326.43 181.986 325.92 182.568L325.909 182.545ZM328.681 178.781L328.205 178.47C328.592 177.813 328.936 177.129 329.235 176.424L329.751 176.665C329.434 177.4 329.075 178.115 328.675 178.805L328.681 178.781ZM330.535 174.418L329.975 174.254C330.179 173.516 330.331 172.763 330.428 172.002L330.988 172.078C330.895 172.878 330.742 173.668 330.529 174.442L330.535 174.418ZM331.156 169.714H330.596V169.544C330.596 168.832 330.557 168.109 330.49 167.398L331.05 167.339C331.123 168.071 331.161 168.807 331.162 169.544L331.156 169.714ZM330.148 165.11C329.997 164.352 329.811 163.603 329.588 162.864L330.148 162.688C330.378 163.452 330.574 164.228 330.708 164.987L330.148 165.11ZM328.821 160.683C328.552 159.989 328.261 159.277 327.903 158.56L328.407 158.295C328.748 159.025 329.062 159.754 329.336 160.459L328.821 160.683ZM326.861 156.49C326.514 155.849 326.133 155.173 325.741 154.479L326.217 154.168C326.626 154.867 327.012 155.55 327.337 156.202L326.861 156.49ZM324.52 152.498C324.111 151.851 323.697 151.198 323.271 150.546L323.736 150.216C324.162 150.869 324.576 151.522 324.985 152.18L324.52 152.498ZM322 148.605C321.58 147.958 321.155 147.306 320.74 146.659L321.205 146.33C321.619 146.976 322.039 147.629 322.459 148.27L322 148.605ZM319.497 144.689C319.088 144.031 318.691 143.36 318.299 142.69L318.775 142.384C319.167 143.055 319.564 143.713 319.967 144.372L319.497 144.689ZM317.162 140.65C316.781 139.938 316.428 139.233 316.109 138.556L316.613 138.292C316.927 138.962 317.279 139.656 317.649 140.361L317.162 140.65ZM315.174 136.416C314.877 135.681 314.614 134.934 314.367 134.205L314.927 134.017C315.163 134.728 315.426 135.463 315.717 136.187L315.174 136.416ZM313.718 131.93C313.533 131.165 313.371 130.383 313.247 129.578L313.807 129.483C313.931 130.236 314.082 131.001 314.267 131.753L313.718 131.93ZM312.967 127.226C312.911 126.502 312.883 125.773 312.883 125.044V124.85H313.443V125.038C313.443 125.75 313.443 126.467 313.527 127.173L312.967 127.226ZM313.527 122.522L312.967 122.463C312.967 122.304 312.995 122.139 313.012 121.969C313.079 121.34 313.163 120.711 313.264 120.111L313.824 120.211C313.729 120.799 313.645 121.416 313.578 122.034C313.6 122.216 313.6 122.375 313.555 122.539L313.527 122.522ZM314.306 117.947L313.746 117.788C313.953 117.012 314.194 116.253 314.463 115.53L314.983 115.742C314.729 116.47 314.512 117.212 314.334 117.965L314.306 117.947ZM342.211 114.519C341.897 114.519 341.572 114.472 341.253 114.425C340.816 114.36 340.379 114.284 339.948 114.195L340.06 113.607C340.475 113.69 340.906 113.766 341.331 113.831C341.634 113.872 341.942 113.901 342.239 113.919L342.211 114.519ZM344.512 114.337L344.395 113.749C345.097 113.596 345.771 113.322 346.388 112.937L346.679 113.437C346.02 113.866 345.297 114.176 344.54 114.354L344.512 114.337ZM315.919 113.637L315.42 113.361C315.777 112.659 316.171 111.98 316.602 111.326L317.061 111.661C316.652 112.302 316.28 112.967 315.947 113.655L315.919 113.637ZM337.759 113.602C337.036 113.361 336.325 113.08 335.631 112.761L335.86 112.22C336.533 112.534 337.223 112.807 337.927 113.037L337.759 113.602ZM348.399 111.767L347.934 111.438C348.332 110.83 348.568 110.122 348.617 109.386L349.177 109.427C349.129 110.27 348.866 111.085 348.415 111.785L348.399 111.767ZM333.615 111.679C332.959 111.279 332.325 110.841 331.716 110.368L332.047 109.897C332.639 110.356 333.256 110.78 333.895 111.167L333.615 111.679ZM318.439 109.844L318.024 109.45C318.531 108.858 319.072 108.299 319.643 107.775L320.012 108.216C319.463 108.732 318.943 109.281 318.455 109.862L318.439 109.844ZM329.969 108.851C329.411 108.311 328.882 107.74 328.384 107.139L328.804 106.751C329.289 107.335 329.803 107.89 330.344 108.415L329.969 108.851ZM348.197 107.257C347.876 106.585 347.433 105.986 346.892 105.493L347.262 105.052C347.857 105.593 348.346 106.25 348.701 106.987L348.197 107.257ZM321.754 106.793L321.435 106.31C322.061 105.861 322.71 105.447 323.378 105.07L323.641 105.587C322.998 105.96 322.373 106.369 321.771 106.81L321.754 106.793ZM326.984 105.264C326.771 104.946 326.564 104.623 326.368 104.288L325.64 104.588L325.427 104.047L326.071 103.776C325.971 103.6 325.87 103.423 325.775 103.247L326.262 102.959C326.374 103.165 326.486 103.37 326.603 103.547C326.917 103.429 327.236 103.317 327.561 103.212L327.723 103.8C327.449 103.888 327.163 103.982 326.906 104.082C327.079 104.37 327.259 104.67 327.466 104.923L326.984 105.264ZM345.089 104.252C344.547 103.969 343.985 103.729 343.409 103.535L343.039 103.412L343.202 102.824L343.583 102.953C344.183 103.154 344.767 103.403 345.33 103.7L345.089 104.252ZM329.868 103.2L329.751 102.612C330.473 102.441 331.223 102.3 331.991 102.189L332.075 102.777C331.335 102.9 330.602 103.047 329.885 103.218L329.868 103.2ZM340.9 102.882C340.2 102.753 339.461 102.653 338.705 102.582L338.75 101.994C339.528 102.065 340.284 102.165 340.99 102.3L340.9 102.882ZM334.264 102.541L334.225 101.953C334.891 101.912 335.558 101.889 336.219 101.889H336.493V102.477H336.224C335.591 102.494 334.931 102.512 334.281 102.559L334.264 102.541ZM324.8 101.136C324.498 100.419 324.24 99.6719 323.988 98.9134L324.548 98.7311C324.783 99.472 325.047 100.201 325.338 100.901L324.8 101.136ZM323.383 96.6202C323.215 95.8616 323.075 95.0737 322.969 94.2682L323.529 94.1858C323.635 94.962 323.77 95.7323 323.932 96.479L323.383 96.6202ZM322.756 91.9162C322.728 91.387 322.711 90.846 322.711 90.305C322.711 90.0522 322.711 89.7935 322.711 89.5406H323.271C323.271 89.7935 323.271 90.0404 323.271 90.2933C323.271 90.8225 323.271 91.3576 323.311 91.8691L322.756 91.9162ZM323.423 87.2122L322.863 87.1534C322.941 86.3772 323.047 85.5834 323.176 84.8014L323.736 84.9013C323.585 85.6834 323.479 86.436 323.406 87.2239L323.423 87.2122ZM324.19 82.6199L323.63 82.4788C323.809 81.7202 324.016 80.9558 324.246 80.1914L324.806 80.3737C324.554 81.144 324.347 81.8908 324.173 82.6316L324.19 82.6199ZM325.534 78.1687L325.013 77.957C325.287 77.222 325.573 76.487 325.915 75.7756L326.419 76.0343C326.083 76.7399 325.786 77.4572 325.517 78.204L325.534 78.1687ZM327.46 73.9763L326.973 73.6764C327.354 73.0002 327.763 72.324 328.188 71.6772L328.647 72.0124C328.211 72.6592 327.813 73.3177 327.443 73.988L327.46 73.9763ZM329.986 70.1484L329.549 69.778C330.019 69.19 330.523 68.5667 331.044 68.014L331.447 68.4197C330.921 68.9724 330.428 69.5604 329.969 70.1602L329.986 70.1484ZM333.032 66.7615L332.657 66.3264C333.217 65.8031 333.777 65.2856 334.376 64.7858L334.723 65.2504C334.124 65.7502 333.553 66.2617 333.015 66.7733L333.032 66.7615ZM336.51 63.8568L336.191 63.3688C336.801 62.9278 337.439 62.4926 338.089 62.081L338.375 62.5808C337.725 62.9983 337.12 63.4276 336.493 63.8686L336.51 63.8568ZM340.312 61.4284L340.049 60.9109C340.71 60.5405 341.393 60.1877 342.076 59.8584L342.311 60.3935C341.6 60.7286 340.945 61.0814 340.295 61.4401L340.312 61.4284ZM344.361 59.4762L344.154 58.9235C344.859 58.6354 345.571 58.3355 346.276 58.1179L346.455 58.7059C345.744 58.9294 345.039 59.1998 344.344 59.488L344.361 59.4762Z" fill="#263238"/>
<path d="M348.679 57.9885L348.539 57.4005C349.233 57.2124 349.659 57.1301 349.659 57.1301L349.759 57.7181C349.759 57.7181 349.356 57.8063 348.679 57.9885Z" fill="#263238"/>
<path d="M358.579 54.1901C357.151 49.5449 347.586 51.2148 349.451 57.2889C351.316 63.3629 360.007 58.8412 358.579 54.1901Z" fill="#263238"/>
<path d="M344.249 52.332C344.322 50.2916 347.021 48.7217 350.84 49.4449C354.659 50.1682 358.249 52.873 358.249 52.873C358.249 52.873 354.48 55.272 350.622 55.713C346.763 56.154 344.176 54.3665 344.249 52.332Z" fill="#EBEBEB"/>
<path d="M358.249 52.8612C356.267 52.8612 354.29 52.8024 352.313 52.7377C350.336 52.6731 348.354 52.5672 346.377 52.4026C348.359 52.4026 350.342 52.4555 352.319 52.5202C354.295 52.5849 356.278 52.6907 358.249 52.8612Z" fill="#263238"/>
<path d="M348.085 50.5151C349.21 51.0804 350.272 51.7766 351.249 52.5907C350.686 52.3132 350.14 51.999 349.614 51.6499C349.084 51.3032 348.573 50.9243 348.085 50.5151Z" fill="#263238"/>
<path d="M353.276 52.6672C352.263 53.5292 351.165 54.2744 350 54.8898C351.018 54.0267 352.122 53.2815 353.293 52.6672H353.276Z" fill="#263238"/>
<path d="M353.853 51.5206C354.418 51.8055 354.913 52.2241 355.298 52.7436C355.015 52.6036 354.75 52.4278 354.508 52.2203C354.265 52.014 354.045 51.7793 353.853 51.5206Z" fill="#263238"/>
<path d="M347.889 64.4154C349.082 66.0266 352.145 65.6385 354.838 62.7102C357.532 59.782 358.96 55.3779 358.96 55.3779C358.96 55.3779 354.547 55.7307 351.182 57.7299C347.816 59.7291 346.69 62.7984 347.889 64.4154Z" fill="#EBEBEB"/>
<path d="M358.96 55.3779C357.347 56.5539 355.779 57.8592 354.206 59.1234C352.632 60.3876 351.092 61.693 349.586 63.0395C351.198 61.8635 352.766 60.564 354.334 59.2998C355.902 58.0356 357.431 56.7303 358.96 55.3779Z" fill="#263238"/>
<path d="M352.005 63.504C352.304 62.9328 352.572 62.3438 352.806 61.74C353.044 61.1345 353.246 60.5139 353.41 59.8819C353.11 60.4526 352.843 61.0416 352.61 61.6459C352.374 62.2523 352.172 62.8727 352.005 63.504Z" fill="#263238"/>
<path d="M355.04 58.5883C353.73 58.5148 352.416 58.5877 351.12 58.8059C351.773 58.847 352.427 58.847 353.08 58.8059C353.737 58.7723 354.391 58.6996 355.04 58.5883Z" fill="#263238"/>
<path d="M356.121 59.1704C356.27 58.8801 356.387 58.5722 356.468 58.2532C356.551 57.9365 356.6 57.6111 356.614 57.283C356.316 57.865 356.147 58.5103 356.121 59.1704Z" fill="#263238"/>
<path d="M358.579 54.1901C358.263 54.2979 357.923 54.3047 357.603 54.2098C357.283 54.1148 356.997 53.9222 356.782 53.6565C356.566 53.3908 356.43 53.0638 356.392 52.717C356.353 52.3702 356.413 52.0192 356.565 51.7085C356.716 51.3977 356.952 51.1411 357.243 50.9712C357.533 50.8013 357.865 50.7258 358.197 50.7541C358.528 50.7825 358.844 50.9135 359.105 51.1305C359.365 51.3475 359.558 51.6408 359.66 51.9733C359.796 52.4178 359.758 52.9006 359.556 53.3161C359.353 53.7316 359.002 54.0459 358.579 54.1901Z" fill="#455A64"/>
<path d="M359.61 57.5475C359.293 57.6549 358.954 57.6615 358.635 57.5665C358.315 57.4714 358.029 57.279 357.814 57.0135C357.598 56.748 357.463 56.4214 357.424 56.0749C357.385 55.7285 357.445 55.3777 357.596 55.0671C357.747 54.7564 357.983 54.4997 358.273 54.3295C358.563 54.1593 358.894 54.0832 359.225 54.1108C359.556 54.1384 359.872 54.2684 360.133 54.4845C360.394 54.7007 360.588 54.9931 360.69 55.3249C360.759 55.5454 360.785 55.7777 360.767 56.0088C360.75 56.2398 360.689 56.465 360.589 56.6714C360.488 56.8778 360.35 57.0614 360.182 57.2118C360.014 57.3621 359.82 57.4762 359.61 57.5475Z" fill="#455A64"/>
<path d="M176.014 56.0482C175.745 58.7489 174.767 61.3183 173.189 63.4695C171.611 65.6207 169.495 67.2692 167.076 68.2309C164.658 69.1927 162.032 69.4298 159.493 68.916C156.953 68.4021 154.6 67.1575 152.695 65.3209L145.712 66.397L149.206 60.0583C148.407 57.9958 148.066 55.7693 148.209 53.5477C148.352 51.3262 148.976 49.1681 150.032 47.2374C151.089 45.3067 152.55 43.6542 154.306 42.4053C156.061 41.1565 158.065 40.3442 160.164 40.0302C162.264 39.7161 164.404 39.9085 166.422 40.5929C168.44 41.2772 170.283 42.4354 171.81 43.9795C173.338 45.5237 174.511 47.4131 175.239 49.5043C175.967 51.5955 176.232 53.8334 176.014 56.0482Z" fill="white"/>
<path d="M176.014 56.0482C175.751 58.7475 174.782 61.3179 173.214 63.4746C172.447 64.5654 171.523 65.5236 170.475 66.3146C169.45 67.1353 168.318 67.7986 167.115 68.2844C165.911 68.7823 164.646 69.0991 163.358 69.2252C162.713 69.2859 162.066 69.2997 161.42 69.2664C160.772 69.2489 160.126 69.1781 159.488 69.0547C156.914 68.5575 154.523 67.3176 152.583 65.4738L152.746 65.5267L145.774 66.6498L145.264 66.7321L145.522 66.2617L148.994 59.9113V60.1642C148.174 58.0636 147.826 55.7934 147.975 53.5289C148.125 51.2645 148.768 49.0664 149.856 47.1047C150.942 45.1491 152.435 43.4767 154.224 42.2125C156.01 40.9651 158.041 40.1584 160.166 39.8529C162.291 39.5474 164.454 39.751 166.494 40.4485C168.511 41.1693 170.35 42.3546 171.875 43.9177C173.397 45.4769 174.561 47.3797 175.278 49.4815C175.995 51.5833 176.246 53.829 176.014 56.0482ZM176.014 56.0482C176.24 53.8399 175.98 51.6066 175.253 49.5206C174.527 47.4347 173.354 45.5519 171.825 44.0176C170.295 42.4833 168.45 41.3386 166.433 40.6719C164.415 40.0051 162.279 39.8342 160.188 40.1722C158.118 40.4938 156.147 41.3106 154.426 42.5594C152.719 43.8181 151.294 45.4513 150.248 47.3458C149.218 49.2445 148.611 51.3633 148.473 53.5433C148.336 55.7381 148.673 57.9369 149.458 59.976L149.509 60.1054L149.442 60.2288L145.925 66.5557L145.678 66.1676L152.667 65.1386H152.762L152.83 65.2033C154.698 67.0291 157.013 68.273 159.516 68.796C160.14 68.9294 160.773 69.0101 161.409 69.0371C162.044 69.0841 162.683 69.0841 163.318 69.0371C164.593 68.9292 165.848 68.6384 167.048 68.1727C168.25 67.7131 169.382 67.0712 170.408 66.2676C171.452 65.483 172.377 64.5374 173.152 63.4628C174.74 61.3166 175.731 58.75 176.014 56.0482Z" fill="#263238"/>
<path d="M155.31 61.3578C155.3 61.1631 155.327 60.9682 155.391 60.7852C155.455 60.6021 155.554 60.4348 155.682 60.2937C155.81 60.1525 155.965 60.0405 156.136 59.9646C156.307 59.8887 156.491 59.8506 156.677 59.8525C157.057 59.8525 157.422 60.0111 157.69 60.2934C157.959 60.5757 158.11 60.9586 158.11 61.3578C158.11 61.757 157.959 62.1399 157.69 62.4222C157.422 62.7045 157.057 62.8631 156.677 62.8631C156.491 62.865 156.307 62.8269 156.136 62.751C155.965 62.6751 155.81 62.5631 155.682 62.4219C155.554 62.2808 155.455 62.1135 155.391 61.9304C155.327 61.7474 155.3 61.5525 155.31 61.3578ZM155.87 57.8827L155.546 46.2168H157.786L157.461 57.8827H155.87Z" fill="#407BFF"/>
<path d="M160.636 61.3578C160.625 61.1636 160.652 60.9692 160.716 60.7866C160.78 60.6039 160.878 60.4369 161.006 60.2958C161.133 60.1547 161.287 60.0426 161.457 59.9664C161.628 59.8901 161.811 59.8514 161.997 59.8525C162.377 59.8525 162.741 60.0111 163.01 60.2934C163.279 60.5757 163.43 60.9586 163.43 61.3578C163.43 61.757 163.279 62.1399 163.01 62.4222C162.741 62.7045 162.377 62.8631 161.997 62.8631C161.811 62.8642 161.628 62.8255 161.457 62.7492C161.287 62.673 161.133 62.5608 161.006 62.4198C160.878 62.2787 160.78 62.1117 160.716 61.929C160.652 61.7464 160.625 61.552 160.636 61.3578ZM161.196 57.8827L160.888 46.2168H163.128L162.803 57.8827H161.196Z" fill="#407BFF"/>
<path d="M165.956 61.3578C165.945 61.1631 165.973 60.9682 166.037 60.7852C166.101 60.6021 166.2 60.4348 166.328 60.2937C166.456 60.1525 166.61 60.0405 166.781 59.9646C166.952 59.8887 167.137 59.8506 167.322 59.8525C167.703 59.8525 168.067 60.0111 168.336 60.2934C168.605 60.5757 168.756 60.9586 168.756 61.3578C168.756 61.757 168.605 62.1399 168.336 62.4222C168.067 62.7045 167.703 62.8631 167.322 62.8631C167.137 62.865 166.952 62.8269 166.781 62.751C166.61 62.6751 166.456 62.5631 166.328 62.4219C166.2 62.2808 166.101 62.1135 166.037 61.9304C165.973 61.7474 165.945 61.5525 165.956 61.3578ZM166.516 57.8827L166.191 46.2168H168.431L168.112 57.8827H166.516Z" fill="#407BFF"/>
</svg>
