<svg xmlns="http://www.w3.org/2000/svg" viewBox="0 0 500 500"><g id="freepik--Shadow--inject-25"><ellipse id="freepik--path--inject-25" cx="250" cy="416.24" rx="193.89" ry="11.32" style="fill:#f5f5f5"></ellipse></g><g id="freepik--window-no-data--inject-25"><rect x="103.78" y="202.37" width="1" height="18.49" transform="translate(-14.93 8.04) rotate(-4.12)" style="fill:#0066FF"></rect><rect x="105.38" y="230.35" width="1" height="6.96" transform="translate(-16.53 8.21) rotate(-4.12)" style="fill:#0066FF"></rect><path d="M337.71,315.16H123.55a9.65,9.65,0,0,1-9.44-8.81L103.59,160.22a8.1,8.1,0,0,1,8.17-8.8H325.92a9.65,9.65,0,0,1,9.44,8.8l10.52,146.13A8.11,8.11,0,0,1,337.71,315.16Z" style="fill:#0066FF"></path><path d="M338.53,315.16H124.37a9.65,9.65,0,0,1-9.44-8.81L104.41,160.22a8.1,8.1,0,0,1,8.17-8.8H326.74a9.65,9.65,0,0,1,9.44,8.8L346.7,306.35A8.1,8.1,0,0,1,338.53,315.16Z" style="fill:#0066FF"></path><path d="M338.53,315.16H124.37a9.65,9.65,0,0,1-9.44-8.81L104.41,160.22a8.1,8.1,0,0,1,8.17-8.8H326.74a9.65,9.65,0,0,1,9.44,8.8L346.7,306.35A8.1,8.1,0,0,1,338.53,315.16Z" style="fill:#fff;opacity:0.5"></path><path d="M327.06,155.82H112.9l-.72,0c-5.47.45-4.35,8.78,1.17,8.78H327.87c5.53,0,5.45-8.33-.09-8.78Z" style="fill:#0066FF"></path><path d="M118.48,160.22a1.85,1.85,0,0,1-1.88,2,2.2,2.2,0,0,1-2.16-2,1.85,1.85,0,0,1,1.87-2A2.2,2.2,0,0,1,118.48,160.22Z" style="fill:#fafafa"></path><path d="M125.35,160.22a1.85,1.85,0,0,1-1.88,2,2.2,2.2,0,0,1-2.16-2,1.85,1.85,0,0,1,1.87-2A2.2,2.2,0,0,1,125.35,160.22Z" style="fill:#fafafa"></path><path d="M132.21,160.22a1.85,1.85,0,0,1-1.87,2,2.19,2.19,0,0,1-2.16-2,1.84,1.84,0,0,1,1.87-2A2.2,2.2,0,0,1,132.21,160.22Z" style="fill:#fafafa"></path><path d="M332.85,300.58H128a3.49,3.49,0,0,1-3.42-3.2l-8.65-120.17a2.92,2.92,0,0,1,3-3.19h204.9a3.48,3.48,0,0,1,3.42,3.19l8.66,120.17A2.94,2.94,0,0,1,332.85,300.58Z" style="fill:#fff"></path><polygon points="246.53 254.8 243.19 208.48 233.09 202.4 205.28 202.4 209.06 254.8 246.53 254.8" style="fill:#fff"></polygon><path d="M246.53,255.28H209.06a.48.48,0,0,1-.49-.45l-3.77-52.4a.47.47,0,0,1,.13-.36.48.48,0,0,1,.35-.16h27.81a.55.55,0,0,1,.25.07l10.1,6.08a.48.48,0,0,1,.24.38L247,254.76a.46.46,0,0,1-.13.37A.47.47,0,0,1,246.53,255.28Zm-37-1H246l-3.28-45.55L233,202.88H205.8Z" style="fill:#0066FF"></path><polygon points="243.19 208.48 233.09 202.4 236.8 210.46 243.19 208.48" style="fill:#ebebeb"></polygon><path d="M236.8,210.94a.49.49,0,0,1-.44-.28l-3.71-8.06a.5.5,0,0,1,.11-.57.5.5,0,0,1,.58-.05l10.1,6.08a.5.5,0,0,1,.24.48.49.49,0,0,1-.34.4l-6.4,2Zm-2.61-7.32,2.87,6.25,5-1.53Z" style="fill:#0066FF"></path><path d="M221,226a2,2,0,0,1-2,2.11,2.31,2.31,0,0,1-2.26-2.11,1.94,1.94,0,0,1,2-2.12A2.32,2.32,0,0,1,221,226Z" style="fill:#0066FF"></path><path d="M234.7,226a1.94,1.94,0,0,1-2,2.11,2.32,2.32,0,0,1-2.27-2.11,2,2,0,0,1,2-2.12A2.31,2.31,0,0,1,234.7,226Z" style="fill:#0066FF"></path><path d="M238.58,239.74a.49.49,0,0,1-.48-.45c-.25-3.41-5.59-6.18-11.9-6.18-4.19,0-7.95,1.25-9.81,3.25a3.74,3.74,0,0,0-1.14,2.86.49.49,0,0,1-1,.07,4.76,4.76,0,0,1,1.4-3.59c2-2.19,6.07-3.56,10.52-3.56,6.93,0,12.58,3.11,12.86,7.08a.48.48,0,0,1-.45.51Z" style="fill:#0066FF"></path><path d="M213.17,221.72a.51.51,0,0,1-.33-.13.49.49,0,0,1,0-.69l2.13-2.29a.49.49,0,0,1,.68,0,.48.48,0,0,1,0,.68l-2.13,2.29A.48.48,0,0,1,213.17,221.72Z" style="fill:#0066FF"></path><path d="M237.58,221.72a.55.55,0,0,1-.33-.13l-2.45-2.29a.48.48,0,0,1,0-.69.49.49,0,0,1,.68,0l2.45,2.29a.48.48,0,0,1,0,.68A.52.52,0,0,1,237.58,221.72Z" style="fill:#0066FF"></path><path d="M202.26,265.15h2.26l3.26,4.34-.31-4.34h2.28l.56,7.84H208l-3.24-4.31.31,4.31h-2.28Z" style="fill:#0066FF"></path><path d="M211.33,269.07a3.8,3.8,0,0,1,.86-3,3.76,3.76,0,0,1,2.9-1.07,4.38,4.38,0,0,1,3.09,1.05,4.32,4.32,0,0,1,1.27,2.94,4.77,4.77,0,0,1-.3,2.25,3,3,0,0,1-1.24,1.37,4.16,4.16,0,0,1-2.14.49,5.25,5.25,0,0,1-2.23-.42,3.62,3.62,0,0,1-1.5-1.34A4.66,4.66,0,0,1,211.33,269.07Zm2.43,0a2.73,2.73,0,0,0,.56,1.7,1.59,1.59,0,0,0,1.24.52,1.38,1.38,0,0,0,1.17-.51A2.75,2.75,0,0,0,217,269a2.57,2.57,0,0,0-.56-1.62,1.64,1.64,0,0,0-1.25-.51,1.38,1.38,0,0,0-1.14.52A2.53,2.53,0,0,0,213.76,269.09Z" style="fill:#0066FF"></path><path d="M224.15,265.15h3.6a4.51,4.51,0,0,1,1.74.29,3.06,3.06,0,0,1,1.14.83,3.76,3.76,0,0,1,.71,1.25,6.3,6.3,0,0,1,.3,1.52,5.08,5.08,0,0,1-.15,1.95,2.8,2.8,0,0,1-.71,1.16,2.3,2.3,0,0,1-1,.62,5.6,5.6,0,0,1-1.43.22h-3.59Zm2.55,1.78.31,4.28h.59a2.45,2.45,0,0,0,1.07-.17,1,1,0,0,0,.46-.59,3.54,3.54,0,0,0,.08-1.36,2.72,2.72,0,0,0-.53-1.7,1.81,1.81,0,0,0-1.38-.46Z" style="fill:#0066FF"></path><path d="M237.45,271.69H234.7l-.29,1.3h-2.47l2.38-7.84H237l3.51,7.84h-2.54Zm-.63-1.69-1.06-2.82L235.1,270Z" style="fill:#0066FF"></path><path d="M239.37,265.15h7.36l.14,1.94H244.4l.42,5.9H242.4l-.42-5.9h-2.47Z" style="fill:#0066FF"></path><path d="M252.37,271.69h-2.75l-.29,1.3h-2.47l2.38-7.84h2.64l3.5,7.84h-2.53Zm-.63-1.69-1.07-2.82L250,270Z" style="fill:#0066FF"></path></g></svg>