<svg width="500" height="500" viewBox="0 0 500 500" fill="none" xmlns="http://www.w3.org/2000/svg">
<path d="M470 243C470 243 459 151 409 94C359 37 258 21 202 38C146 55 122 136 107 156C92 176 37 196 26 241C15 286 79 319 88 346C97 373 75 409 136 448C197 487 245 480 309 454C373 428 430 458 458 400C486 342 470 243 470 243Z" fill="#0066FF"/>
<path opacity="0.7" d="M470 243C470 243 459 151 409 94C359 37 258 21 202 38C146 55 122 136 107 156C92 176 37 196 26 241C15 286 79 319 88 346C97 373 75 409 136 448C197 487 245 480 309 454C373 428 430 458 458 400C486 342 470 243 470 243Z" fill="white"/>
<path opacity="0.2" d="M423.2 44.3194L216.756 29.1591L191.928 367.249L398.372 382.409L423.2 44.3194Z" fill="#263238"/>
<path d="M417.199 37.3188L210.755 22.1584L185.927 360.248L392.371 375.408L417.199 37.3188Z" fill="white" stroke="#263238" stroke-miterlimit="10"/>
<path d="M294.61 59.1201V59.7401L292.18 59.5601L292.24 58.8101C292.39 56.7501 291.69 55.4801 289.86 55.3401C288.03 55.2001 287.16 56.3401 287.01 58.3401C286.63 63.4801 294.28 64.5301 293.81 70.9801C293.56 74.4501 291.72 76.5801 288.22 76.3201C284.72 76.0601 283.22 73.6901 283.5 70.2201L283.6 68.9101L285.99 69.0901L285.88 70.5301C285.73 72.5901 286.49 73.8601 288.33 74.0001C290.17 74.1401 291.1 73.0001 291.25 70.9201C291.62 65.8201 284 64.7701 284.48 58.3201C284.74 54.7901 286.53 52.7101 289.97 52.9701C293.41 53.2301 294.87 55.6501 294.61 59.1201Z" fill="#263238"/>
<path d="M298.9 76.9301L300.4 56.3501L296.18 56.0001L296.35 53.6801L307.35 54.4801L307.17 56.8101L302.95 56.5001L301.44 77.0801L298.9 76.9301Z" fill="#263238"/>
<path d="M308.44 60.1601C308.7 56.6601 310.6 54.5301 314.1 54.7901C317.6 55.0501 319.2 57.4301 318.95 60.9301L318.08 72.7801C317.82 76.2501 315.92 78.4101 312.39 78.1501C308.86 77.8901 307.32 75.4801 307.58 72.0101L308.44 60.1601ZM310.09 72.3201C309.93 74.4201 310.73 75.6901 312.56 75.8301C314.39 75.9701 315.36 74.8301 315.56 72.7201L316.44 60.6201C316.6 58.5601 315.84 57.2501 313.97 57.1101C312.1 56.9701 311.16 58.1101 310.97 60.2201L310.09 72.3201Z" fill="#263238"/>
<path d="M326.87 56C330.47 56.26 331.87 58.2 331.6 61.61L331.46 63.47C331.27 65.99 330.27 67.47 328.27 67.97C330.27 68.75 330.98 70.51 330.8 72.97L330.53 76.54C330.388 77.474 330.477 78.4285 330.79 79.32L328.2 79.13C327.91 78.2231 327.834 77.2611 327.98 76.32L328.25 72.72C328.44 70.14 327.25 69.23 325.16 69.07L323.36 68.94L322.64 78.72L320.09 78.54L321.77 55.63L326.87 56ZM325.43 66.75C327.43 66.9 328.72 66.33 328.9 63.84L329.06 61.65C329.21 59.59 328.54 58.45 326.64 58.32L324.15 58.13L323.53 66.61L325.43 66.75Z" fill="#263238"/>
<path d="M342.06 67.27L341.9 69.56L336.3 69.15L335.7 77.3L342.57 77.8L342.4 80.12L333 79.43L334.68 56.53L344.1 57.22L343.93 59.54L337 59L336.43 66.82L342.06 67.27Z" fill="#263238"/>
<path d="M269.51 96.59L270.37 85L267.75 84.81V84.45L273.37 84.86V85.22L270.74 85L269.89 96.63L269.51 96.59Z" fill="#263238"/>
<path d="M278 90.93V91.27L274.42 91L274 96.56L278.2 96.87V97.23L273.63 96.89L274.51 84.89L279.08 85.22V85.58L274.88 85.28L274.48 90.66L278 90.93Z" fill="#263238"/>
<path d="M279.52 97.33L280.4 85.33H280.78L279.92 97L283.92 97.29V97.65L279.52 97.33Z" fill="#263238"/>
<path d="M285.71 96.39L285.6 97.77H285.23L285.33 96.38L285.71 96.39Z" fill="#263238"/>
<path d="M290.28 89.0001C290.4 87.3001 291.22 86.0001 293.05 86.1601C294.88 86.3201 295.51 87.6801 295.38 89.3801L294.94 95.4801C294.81 97.1501 293.99 98.4801 292.16 98.3201C290.33 98.1601 289.71 96.7801 289.83 95.1001L290.28 89.0001ZM290.21 95.1301C290.1 96.6201 290.59 97.8601 292.21 97.9801C293.83 98.1001 294.47 96.9801 294.58 95.4501L295.03 89.3301C295.14 87.8601 294.64 86.6101 293.03 86.5001C291.42 86.3901 290.76 87.5001 290.66 89.0101L290.21 95.1301Z" fill="#263238"/>
<path d="M301.74 89.9001C301.49 93.2401 296.85 94.0201 296.48 98.1401V98.2101L301.04 98.5401V98.9001L296.1 98.5401V98.2801C296.43 93.8001 301.1 93.1101 301.37 89.8901C301.48 88.3801 301.09 87.1101 299.43 86.9901C297.77 86.8701 297.21 88.1301 297.1 89.5701V90.2201H296.74V89.5801C296.86 87.9201 297.62 86.5801 299.47 86.6701C301.32 86.7601 301.86 88.2001 301.74 89.9001Z" fill="#263238"/>
<path d="M308.08 90.33V90.62C308.064 91.1667 307.869 91.693 307.526 92.119C307.183 92.545 306.71 92.8474 306.18 92.98C306.695 93.1473 307.133 93.4932 307.416 93.9553C307.698 94.4175 307.806 94.9653 307.72 95.5L307.65 96.43C307.53 98.11 306.76 99.43 304.93 99.28C303.1 99.13 302.51 97.74 302.63 96.06V95.49H303.01V96.06C302.9 97.53 303.34 98.79 304.94 98.9C306.54 99.01 307.17 97.84 307.28 96.35L307.34 95.44C307.39 95.1642 307.381 94.8811 307.314 94.6088C307.248 94.3366 307.125 94.0815 306.953 93.8599C306.781 93.6383 306.565 93.4553 306.318 93.3227C306.071 93.19 305.799 93.1108 305.52 93.09L304.65 93.02V92.68L305.54 92.75C306.106 92.7448 306.647 92.5177 307.047 92.1175C307.448 91.7173 307.675 91.176 307.68 90.61V90.27C307.79 88.78 307.33 87.54 305.74 87.42C304.15 87.3 303.53 88.42 303.42 89.94V90.3H303.05V89.96C303.17 88.28 303.96 86.96 305.79 87.11C307.62 87.26 308.2 88.65 308.08 90.33Z" fill="#263238"/>
<path d="M314.5 90.73V90.81H314.14V90.7C314.24 89.25 313.78 88.06 312.19 87.94C310.6 87.82 309.9 88.94 309.79 90.49L309.55 93.8C309.752 93.3571 310.095 92.9935 310.526 92.7657C310.956 92.5378 311.45 92.4585 311.93 92.54C313.72 92.67 314.3 94.06 314.18 95.72L314.09 96.92C313.97 98.6 313.15 99.92 311.32 99.77C309.49 99.62 308.85 98.22 308.97 96.55L309.42 90.44C309.54 88.75 310.36 87.44 312.21 87.6C314.06 87.76 314.62 89.05 314.5 90.73ZM309.43 95.37L309.35 96.55C309.24 98.04 309.73 99.27 311.35 99.39C312.97 99.51 313.62 98.39 313.73 96.87L313.81 95.69C313.92 94.23 313.43 92.99 311.81 92.88C310.19 92.77 309.54 94 309.43 95.37Z" fill="#263238"/>
<path d="M316.27 93.29C316.504 92.9569 316.827 92.6955 317.201 92.5348C317.575 92.3741 317.987 92.3205 318.39 92.38C320.15 92.5 320.7 93.92 320.58 95.55L320.45 97.37C320.33 99.03 319.54 100.37 317.73 100.22C315.92 100.07 315.31 98.66 315.43 97V96.48H315.81V97C315.7 98.45 316.16 99.71 317.74 99.83C319.32 99.95 319.97 98.77 320.07 97.31L320.21 95.51C320.31 94.07 319.85 92.81 318.26 92.7C317.816 92.6526 317.37 92.7549 316.991 92.9904C316.612 93.2259 316.323 93.5813 316.17 94V94.14H315.81L316.57 87.98L320.9 88.3V88.66L316.9 88.36L316.27 93.29Z" fill="#263238"/>
<path d="M329.71 89.29L325.08 89V88.64L330.08 89V89.36L325.65 100.75H325.25L329.71 89.29Z" fill="#263238"/>
<path d="M336.52 92.24V92.64C336.56 93.2088 336.386 93.772 336.033 94.2196C335.68 94.6671 335.172 94.9668 334.61 95.06C335.87 95.45 336.24 96.49 336.14 97.79L336.09 98.6C335.96 100.31 335.09 101.49 333.23 101.35C331.37 101.21 330.68 99.92 330.81 98.21L330.87 97.41C330.97 96.07 331.48 95.14 332.87 94.93C332.313 94.7706 331.838 94.4042 331.542 93.9059C331.247 93.4077 331.153 92.8153 331.28 92.25V91.85C331.4 90.14 332.36 89.06 334.12 89.19C335.88 89.32 336.65 90.53 336.52 92.24ZM331.62 91.88V92.31C331.579 92.6167 331.602 92.9286 331.686 93.2263C331.77 93.5241 331.914 93.8015 332.109 94.0415C332.304 94.2816 332.547 94.4792 332.821 94.6222C333.096 94.7652 333.396 94.8505 333.705 94.8731C334.013 94.8956 334.323 94.8548 334.616 94.7532C334.908 94.6516 335.176 94.4913 335.404 94.2821C335.632 94.073 335.815 93.8194 335.942 93.5371C336.068 93.2547 336.136 92.9494 336.14 92.64V92.21C336.25 90.71 335.58 89.64 334.06 89.53C332.54 89.42 331.73 90.37 331.62 91.88ZM331.22 97.4L331.16 98.24C331.04 99.76 331.67 100.89 333.23 101.01C334.79 101.13 335.57 100.1 335.68 98.57L335.74 97.73C335.85 96.17 335.21 95.3 333.65 95.18C332.09 95.06 331.33 95.84 331.22 97.4Z" fill="#263238"/>
<path d="M343 92.89L342.51 99C342.38 100.69 341.58 102 339.73 101.86C337.88 101.72 337.27 100.37 337.4 98.68V98.59H337.76V98.69C337.65 100.16 338.16 101.37 339.76 101.49C341.36 101.61 342.02 100.49 342.13 98.92L342.38 95.58C342.194 96.0376 341.855 96.4164 341.421 96.6517C340.987 96.887 340.485 96.9642 340 96.87C338.22 96.74 337.63 95.35 337.75 93.69L337.84 92.51C337.96 90.81 338.78 89.51 340.61 89.65C342.44 89.79 343.08 91.19 343 92.89ZM338.27 92.52L338.19 93.7C338.08 95.18 338.57 96.42 340.19 96.54C341.81 96.66 342.45 95.54 342.56 94.02L342.65 92.84C342.76 91.37 342.26 90.12 340.65 90.01C339.04 89.9 338.33 91.05 338.22 92.52H338.27Z" fill="#263238"/>
<path d="M344.31 93C344.43 91.31 345.25 90 347.08 90.16C348.91 90.32 349.54 91.68 349.41 93.38L348.97 99.48C348.84 101.16 347.97 102.48 346.19 102.33C344.41 102.18 343.74 100.78 343.86 99.1L344.31 93ZM344.24 99.13C344.13 100.62 344.62 101.87 346.24 101.98C347.86 102.09 348.5 100.98 348.61 99.45L349.06 93.33C349.17 91.86 348.67 90.62 347.06 90.5C345.45 90.38 344.79 91.5 344.68 93.02L344.24 99.13Z" fill="#263238"/>
<path d="M350.75 93.4601C350.88 91.7601 351.69 90.4601 353.53 90.6101C355.37 90.7601 355.98 92.1401 355.86 93.8301L355.41 99.9301C355.29 101.61 354.47 102.93 352.63 102.78C350.79 102.63 350.18 101.24 350.3 99.5601L350.75 93.4601ZM350.68 99.59C350.57 101.08 351.06 102.32 352.68 102.44C354.3 102.56 354.94 101.44 355.05 99.9001L355.5 93.7901C355.61 92.3101 355.11 91.0701 353.5 90.9501C351.89 90.8301 351.24 91.9501 351.13 93.4701L350.68 99.59Z" fill="#263238"/>
<path d="M228.23 113.59C230.06 113.73 230.74 115.07 230.61 116.78L230.17 122.78C230.05 124.47 229.17 125.7 227.37 125.57L224.85 125.38L225.73 113.38L228.23 113.59ZM227.37 125.23C228.99 125.34 229.68 124.23 229.79 122.79L230.24 116.74C230.35 115.23 229.8 114.07 228.24 113.95L226.12 113.8L225.29 125.07L227.37 125.23Z" fill="#263238"/>
<path d="M232.47 123.12L231.56 125.9H231.22L235 114.1H235.53L237.61 126.33H237.24L236.74 123.45L232.47 123.12ZM232.57 122.78L236.7 123.08L235.22 114.53L232.57 122.78Z" fill="#263238"/>
<path d="M240.53 126.55L241.38 114.92L238.77 114.73V114.37L244.37 114.78V115.14L241.75 114.95L240.89 126.58L240.53 126.55Z" fill="#263238"/>
<path d="M248.94 120.88V121.22L245.41 120.97L245 126.52L249.2 126.83V127.19L244.62 126.85L245.5 114.85L250.07 115.19V115.55L245.87 115.24L245.48 120.62L248.94 120.88Z" fill="#263238"/>
<path d="M244.17 138.83C245.92 138.95 246.42 139.83 246.31 141.48L246.25 142.25C246.15 143.59 245.73 144.37 244.36 144.47C245.77 144.78 246.23 145.8 246.13 147.19L246.05 148.25C245.93 149.94 245.13 150.95 243.31 150.82L240.9 150.64L241.78 138.64L244.17 138.83ZM243.31 144.24C244.97 144.36 245.74 144.02 245.87 142.24L245.93 141.44C246.03 140.03 245.66 139.27 244.15 139.16L242.15 139.01L241.77 144.1L243.31 144.24ZM243.31 150.46C244.88 150.58 245.53 149.73 245.64 148.22L245.72 147.14C245.85 145.41 245.07 144.72 243.43 144.6L241.7 144.47L241.27 150.31L243.31 150.46Z" fill="#263238"/>
<path d="M247.18 151.11L248.06 139.11H248.44L247.59 150.74L251.59 151.04V151.4L247.18 151.11Z" fill="#263238"/>
<path d="M253.47 148.6C253.36 150.04 253.78 151.33 255.38 151.45C256.98 151.57 257.58 150.35 257.68 148.91L258.35 139.91H258.71L258.04 148.91C257.92 150.56 257.17 151.91 255.35 151.78C253.53 151.65 252.97 150.19 253.09 148.55L253.75 139.55H254.13L253.47 148.6Z" fill="#263238"/>
<path d="M263.54 146V146.34L260 146.1L259.59 151.65L263.79 151.96V152.32L259.22 151.99L260.1 139.99L264.67 140.33V140.69L260.47 140.38L260.08 145.76L263.54 146Z" fill="#263238"/>
<path d="M273.38 143.88V144.1H273V143.86C273.1 142.43 272.66 141.19 271.1 141.08C269.54 140.97 268.91 142.08 268.8 143.53C268.58 146.6 273.18 146.85 272.94 150.1C272.81 151.77 272.03 153.04 270.2 152.9C268.37 152.76 267.79 151.4 267.92 149.74V149.15H268.28L268.23 149.75C268.13 151.21 268.61 152.4 270.23 152.51C271.85 152.62 272.46 151.51 272.57 150.06C272.79 147.06 268.19 146.8 268.43 143.49C268.56 141.74 269.43 140.6 271.12 140.71C272.81 140.82 273.5 142.23 273.38 143.88Z" fill="#263238"/>
<path d="M274.88 147.28L274.45 153.11H274.07L274.95 141.11H275.33L274.9 146.94L279.24 147.26L279.66 141.43H280.04L279.16 153.43H278.78L279.21 147.61L274.88 147.28Z" fill="#263238"/>
<path d="M281.79 141.59L280.91 153.59H280.53L281.41 141.59H281.79Z" fill="#263238"/>
<path d="M285.54 141.86C287.32 141.99 287.93 143.09 287.81 144.73L287.73 145.81C287.62 147.28 286.98 148.05 285.64 148.19C285.923 148.236 286.195 148.34 286.437 148.494C286.68 148.649 286.888 148.851 287.05 149.089C287.212 149.326 287.323 149.594 287.378 149.876C287.433 150.159 287.43 150.449 287.37 150.73L287.23 152.61C287.165 153.104 287.241 153.607 287.45 154.06H287.04C286.85 153.605 286.788 153.107 286.86 152.62L286.99 150.73C287.12 148.97 286.09 148.43 284.54 148.31L283.06 148.2L282.66 153.74H282.28L283.16 141.74L285.54 141.86ZM284.54 147.92C286.2 148.04 287.19 147.69 287.33 145.84L287.41 144.74C287.52 143.28 287.02 142.33 285.48 142.22L283.48 142.07L283.06 147.81L284.54 147.92Z" fill="#263238"/>
<path d="M291 154.32L291.85 142.69L289.24 142.5V142.14L294.84 142.55V142.91L292.22 142.72L291.36 154.35L291 154.32Z" fill="#263238"/>
<path d="M365 147.62C366.69 147.83 367.21 149.2 367.09 150.77V151H366.73V150.76C366.84 149.34 366.37 148.12 364.82 148C363.27 147.88 362.62 149 362.52 150.43C362.29 153.52 366.89 153.72 366.65 156.97C366.54 158.57 365.81 159.82 364.11 159.79L364.03 160.79H363.71L363.78 159.79C362.07 159.6 361.52 158.25 361.63 156.64V156.04H362.01V156.66C361.9 158.12 362.37 159.31 363.94 159.42C365.51 159.53 366.17 158.42 366.28 156.97C366.5 153.97 361.9 153.74 362.14 150.43C362.26 148.75 363.02 147.62 364.67 147.64L364.75 146.56H365.07L365 147.62Z" fill="#263238"/>
<path d="M376.19 151.41V151.49H375.83V151.39C375.94 149.94 375.47 148.75 373.88 148.63C372.29 148.51 371.6 149.63 371.49 151.18L371.24 154.48C371.444 154.037 371.79 153.674 372.222 153.448C372.654 153.222 373.149 153.145 373.63 153.23C375.41 153.36 376 154.75 375.88 156.41L375.79 157.61C375.66 159.29 374.79 160.61 373.01 160.45C371.23 160.29 370.54 158.91 370.66 157.23L371.11 151.13C371.24 149.43 372.05 148.13 373.9 148.29C375.75 148.45 376.31 149.73 376.19 151.41ZM371.13 156.05L371.04 157.23C370.93 158.72 371.43 159.95 373.04 160.06C374.65 160.17 375.3 159.06 375.41 157.55L375.5 156.37C375.6 154.91 375.11 153.67 373.5 153.55C371.89 153.43 371.23 154.64 371.13 156.05Z" fill="#263238"/>
<path d="M377.4 159.26L377.3 160.65H376.92L377.03 159.27L377.4 159.26Z" fill="#263238"/>
<path d="M384.43 152.08L383.98 158.16C383.85 159.86 383.05 161.16 381.2 161.02C379.35 160.88 378.74 159.53 378.87 157.84V157.75H379.23V157.85C379.12 159.33 379.63 160.53 381.23 160.65C382.83 160.77 383.49 159.65 383.6 158.09L383.85 154.75C383.661 155.203 383.324 155.578 382.892 155.813C382.461 156.048 381.963 156.128 381.48 156.04C379.7 155.91 379.11 154.52 379.23 152.86L379.32 151.67C379.44 149.98 380.26 148.67 382.1 148.81C383.94 148.95 384.55 150.38 384.43 152.08ZM379.7 151.71L379.61 152.9C379.5 154.37 380 155.61 381.61 155.73C383.22 155.85 383.87 154.73 383.98 153.22L384.07 152.03C384.18 150.56 383.68 149.32 382.07 149.2C380.46 149.08 379.81 150.24 379.7 151.71Z" fill="#263238"/>
<path d="M386.17 154.57C386.404 154.236 386.726 153.973 387.1 153.811C387.474 153.648 387.886 153.593 388.29 153.65C390.06 153.78 390.6 155.2 390.49 156.83L390.35 158.65C390.23 160.31 389.44 161.65 387.63 161.5C385.82 161.35 385.21 159.94 385.33 158.28V157.76H385.71V158.28C385.6 159.73 386.06 160.99 387.64 161.1C389.22 161.21 389.87 160.1 389.98 158.59L390.11 156.79C390.21 155.35 389.75 154.09 388.16 153.98C387.718 153.932 387.272 154.033 386.894 154.266C386.515 154.5 386.225 154.853 386.07 155.27V155.41H385.71L386.47 149.25L390.8 149.57V149.93L386.8 149.63L386.17 154.57Z" fill="#263238"/>
<path d="M241.87 173.78H241.32L240 161.58H240.38L241.63 173.22L244.58 162H245.04L246.16 173.49L249 162.24H249.34L246.34 174.08H245.84L244.72 162.83L241.87 173.78Z" fill="#263238"/>
<path d="M250.61 168.56L250.18 174.39H249.8L250.68 162.39H251.06L250.63 168.22L254.97 168.54L255.4 162.71H255.77L254.89 174.71H254.52L254.94 168.88L250.61 168.56Z" fill="#263238"/>
<path d="M257.52 162.87L256.64 174.87H256.26L257.14 162.87H257.52Z" fill="#263238"/>
<path d="M260.26 175.13L261.11 163.49L258.5 163.3V162.94L264.1 163.35V163.71L261.48 163.52L260.62 175.15L260.26 175.13Z" fill="#263238"/>
<path d="M268.66 169.46V169.8L265.13 169.54L264.72 175.09L268.92 175.4V175.76L264.35 175.42L265.23 163.42L269.8 163.75V164.11L265.6 163.81L265.21 169.19L268.66 169.46Z" fill="#263238"/>
<path d="M278.5 167.32V167.54H278.12V167.3C278.22 165.88 277.78 164.64 276.22 164.53C274.66 164.42 274.03 165.53 273.92 166.98C273.7 170.05 278.3 170.3 278.06 173.55C277.94 175.21 277.15 176.48 275.32 176.35C273.49 176.22 272.91 174.85 273.04 173.18V172.6H273.4L273.35 173.2C273.25 174.65 273.73 175.84 275.35 175.96C276.97 176.08 277.57 174.96 277.68 173.51C277.9 170.51 273.3 170.24 273.54 166.94C273.67 165.19 274.54 164.04 276.23 164.15C277.92 164.26 278.63 165.67 278.5 167.32Z" fill="#263238"/>
<path d="M280 170.72L279.57 176.54H279.19L280.07 164.54H280.45L280.02 170.36L284.36 170.68L284.78 164.86H285.16L284.28 176.86H283.9L284.33 171.04L280 170.72Z" fill="#263238"/>
<path d="M286.91 165L286 177H285.62L286.5 165H286.91Z" fill="#263238"/>
<path d="M290.66 165.3C292.44 165.43 293.05 166.52 292.93 168.17L292.85 169.25C292.74 170.72 292.1 171.49 290.77 171.63C291.053 171.677 291.323 171.782 291.564 171.937C291.805 172.092 292.013 172.294 292.173 172.532C292.334 172.769 292.445 173.037 292.5 173.318C292.554 173.6 292.551 173.89 292.49 174.17L292.35 176.05C292.285 176.544 292.362 177.047 292.57 177.5H292.16C291.968 177.025 291.912 176.505 292 176L292.13 174.12C292.26 172.35 291.24 171.81 289.68 171.7L288.2 171.59L287.8 177.13H287.42L288.3 165.13L290.66 165.3ZM289.66 171.36C291.32 171.48 292.32 171.12 292.45 169.27L292.53 168.18C292.64 166.72 292.14 165.77 290.6 165.66L288.6 165.51L288.18 171.25L289.66 171.36Z" fill="#263238"/>
<path d="M296.16 177.76L297.01 166.13L294.4 165.93V165.57L300 165.99V166.35L297.38 166.15L296.52 177.79L296.16 177.76Z" fill="#263238"/>
<path d="M363.34 170.56C365.03 170.77 365.55 172.14 365.44 173.71V173.94H365.08V173.7C365.18 172.28 364.72 171.05 363.16 170.94C361.6 170.83 360.97 171.94 360.86 173.37C360.64 176.46 365.24 176.66 365 179.91C364.89 181.51 364.16 182.76 362.45 182.72L362.38 183.72H362.06L362.13 182.72C360.42 182.53 359.86 181.18 359.98 179.56V178.96H360.35V179.58C360.24 181.04 360.7 182.22 362.28 182.34C363.86 182.46 364.51 181.34 364.61 179.89C364.84 176.89 360.23 176.66 360.48 173.35C360.6 171.67 361.35 170.54 363.01 170.56L363.09 169.48H363.41L363.34 170.56Z" fill="#263238"/>
<path d="M374.51 174.34V174.43H374.15V174.33C374.25 172.87 373.79 171.69 372.2 171.57C370.61 171.45 369.91 172.57 369.8 174.11L369.56 177.42C369.764 176.979 370.108 176.617 370.538 176.391C370.968 176.165 371.461 176.088 371.94 176.17C373.73 176.3 374.31 177.68 374.19 179.35L374.1 180.55C373.98 182.23 373.16 183.55 371.33 183.39C369.5 183.23 368.86 181.85 368.98 180.17L369.43 174.07C369.55 172.37 370.37 171.07 372.22 171.23C374.07 171.39 374.63 172.66 374.51 174.34ZM369.44 179L369.36 180.18C369.25 181.67 369.74 182.89 371.36 183.01C372.98 183.13 373.63 182.01 373.74 180.5L373.82 179.32C373.93 177.86 373.44 176.62 371.82 176.5C370.2 176.38 369.55 177.58 369.44 179Z" fill="#263238"/>
<path d="M375.72 182.2L375.62 183.59H375.24L375.34 182.2H375.72Z" fill="#263238"/>
<path d="M382.74 175L382.3 181.08C382.17 182.78 381.37 184.08 379.52 183.94C377.67 183.8 377.06 182.45 377.19 180.76V180.67H377.55V180.77C377.44 182.24 377.95 183.45 379.55 183.57C381.15 183.69 381.82 182.57 381.93 181L382.18 177.66C382.001 178.126 381.666 178.514 381.231 178.759C380.797 179.004 380.291 179.089 379.8 179C378.01 178.87 377.43 177.49 377.55 175.82L377.64 174.64C377.76 172.95 378.58 171.64 380.41 171.78C382.24 171.92 382.87 173.32 382.74 175ZM378.01 174.63L377.93 175.82C377.82 177.29 378.31 178.53 379.93 178.65C381.55 178.77 382.19 177.65 382.3 176.13L382.39 174.95C382.5 173.48 382 172.24 380.39 172.12C378.78 172 378.12 173.18 378 174.65L378.01 174.63Z" fill="#263238"/>
<path d="M384.49 177.51C384.722 177.174 385.044 176.91 385.419 176.748C385.793 176.585 386.206 176.53 386.61 176.59C388.37 176.72 388.92 178.14 388.8 179.77L388.67 181.58C388.55 183.25 387.76 184.58 385.94 184.43C384.12 184.28 383.53 182.88 383.65 181.22V180.7H384.02V181.21C383.91 182.67 384.37 183.93 385.94 184.04C387.51 184.15 388.18 182.98 388.28 181.53L388.41 179.73C388.52 178.29 388.06 177.03 386.47 176.91C386.025 176.86 385.576 176.961 385.195 177.197C384.815 177.433 384.524 177.789 384.37 178.21V178.35H384.01L384.78 172.19L389.11 172.5V172.86L385.11 172.57L384.49 177.51Z" fill="#263238"/>
<path d="M240 199.71L241.11 184.66L238.02 184.43L238.15 182.73L246.15 183.32L246.02 185.02L242.94 184.79L241.83 199.85L240 199.71Z" fill="#263238"/>
<path d="M247.06 187.45C247.25 184.89 248.64 183.33 251.2 183.52C253.76 183.71 254.93 185.45 254.74 188.01L254.11 196.68C253.92 199.22 252.53 200.8 249.94 200.61C247.35 200.42 246.24 198.61 246.42 196.11L247.06 187.45ZM248.26 196.35C248.15 197.88 248.73 198.81 250.07 198.91C251.41 199.01 252.12 198.17 252.23 196.64L252.88 187.78C252.99 186.27 252.44 185.32 251.07 185.22C249.7 185.12 249.07 185.98 248.91 187.49L248.26 196.35Z" fill="#263238"/>
<path d="M258 201L259.13 186L256.04 185.77L256.17 184.07L264.17 184.66L264.04 186.36L260.95 186.13L259.85 201.19L258 201Z" fill="#263238"/>
<path d="M265.5 198.19L264.61 201.52L262.88 201.39L267.32 184.87L270.02 185.07L272.02 202.07L270.16 201.93L269.76 198.51L265.5 198.19ZM265.86 196.6L269.59 196.88L268.41 187.07L265.86 196.6Z" fill="#263238"/>
<path d="M273.46 202.17L274.69 185.41L276.56 185.55L275.45 200.55L280.24 200.9L280.12 202.6L273.46 202.17Z" fill="#263238"/>
<path d="M341.2 190.36C343.2 190.8 344.03 192.45 343.86 194.7V195.15L342.11 195.02V194.45C342.22 192.96 341.69 192.01 340.35 191.91C339.01 191.81 338.35 192.68 338.26 194.16C337.98 197.92 343.61 198.36 343.26 203.08C343.1 205.33 342.02 206.86 339.97 207L339.87 208.27L338.34 208.15L338.43 206.88C336.37 206.44 335.56 204.8 335.72 202.52L335.8 201.52L337.54 201.65L337.46 202.8C337.35 204.31 337.91 205.22 339.25 205.31C340.59 205.4 341.25 204.6 341.39 203.09C341.66 199.35 336.06 198.9 336.39 194.18C336.56 191.88 337.6 190.44 339.63 190.28L339.73 188.94L341.27 189.05L341.2 190.36Z" fill="#263238"/>
<path d="M352.92 194.2C352.188 194.578 351.373 194.767 350.55 194.75L350.66 193.22C351.313 193.278 351.966 193.111 352.512 192.748C353.057 192.384 353.462 191.845 353.66 191.22L354.95 191.31L353.72 208.07L351.88 207.93L352.92 194.2Z" fill="#263238"/>
<path d="M365 196.1V196.53C365.026 197.254 364.817 197.966 364.404 198.561C363.991 199.156 363.397 199.601 362.71 199.83C364.09 200.46 364.61 201.77 364.49 203.45L364.4 204.74C364.21 207.3 362.89 208.89 360.3 208.74C357.71 208.59 356.67 206.79 356.86 204.23L356.94 203.08L358.69 203.21L358.6 204.48C358.48 205.98 359.04 206.94 360.38 207.04C361.72 207.14 362.38 206.3 362.53 204.6L362.63 203.3C362.75 201.65 362.11 200.81 360.7 200.66L359.7 200.58L359.82 198.91L360.92 198.99C361.206 199.003 361.491 198.954 361.757 198.847C362.022 198.74 362.262 198.577 362.459 198.369C362.656 198.162 362.807 197.914 362.9 197.643C362.993 197.373 363.027 197.085 363 196.8L363.06 196.03C363.19 194.31 362.65 193.38 361.29 193.28C359.93 193.18 359.29 194.07 359.14 195.58L359.08 196.44L357.33 196.31L357.39 195.55C357.58 192.98 358.9 191.42 361.46 191.61C364.02 191.8 365.15 193.54 365 196.1Z" fill="#263238"/>
<path d="M367.81 206.75L367.64 209.07L365.85 208.94L366.02 206.62L367.81 206.75Z" fill="#263238"/>
<path d="M378 197.06L377.37 205.6C377.17 208.26 375.85 209.85 373.17 209.65C370.49 209.45 369.51 207.72 369.7 205.16V204.85L371.45 204.98V205.41C371.34 206.92 371.92 207.85 373.26 207.95C374.6 208.05 375.39 207.19 375.52 205.42L375.79 201.66C375.554 202.194 375.149 202.637 374.639 202.92C374.128 203.204 373.538 203.313 372.96 203.23C370.8 203.07 369.96 201.47 370.13 199.05L370.32 196.49C370.51 193.93 371.88 192.37 374.46 192.56C377.04 192.75 378.19 194.49 378 197.06ZM372.16 196.53L371.98 199.05C371.87 200.55 372.45 201.51 373.79 201.61C375.13 201.71 375.84 200.85 375.95 199.34L376.14 196.82C376.25 195.29 375.69 194.36 374.33 194.26C372.97 194.16 372.28 195 372.17 196.53H372.16Z" fill="#263238"/>
<path d="M379.66 197.18C379.84 194.62 381.23 193.06 383.79 193.25C386.35 193.44 387.53 195.18 387.34 197.74L386.71 206.38C386.52 208.94 385.13 210.53 382.54 210.38C379.95 210.23 378.83 208.38 379.02 205.86L379.66 197.18ZM380.86 206.07C380.75 207.58 381.33 208.54 382.67 208.64C384.01 208.74 384.72 207.87 384.83 206.36L385.48 197.51C385.59 195.98 385.04 195.02 383.67 194.92C382.3 194.82 381.62 195.68 381.51 197.22L380.86 206.07Z" fill="#263238"/>
<path d="M243.86 215.29L243.75 216.8L241.98 216.67L242.1 215.06C242.21 213.56 241.68 212.6 240.31 212.5C238.94 212.4 238.31 213.27 238.17 214.78L237.52 223.63C237.41 225.14 237.97 226.1 239.31 226.19C240.65 226.28 241.31 225.43 241.45 223.92L241.61 221.74L243.38 221.87L243.23 223.96C243.04 226.49 241.72 228.08 239.14 227.89C236.56 227.7 235.5 225.94 235.69 223.4L236.32 214.74C236.51 212.2 237.83 210.61 240.39 210.8C242.95 210.99 244.05 212.75 243.86 215.29Z" fill="#263238"/>
<path d="M246.77 224.89L245.87 228.22L244.15 228.09L248.59 211.57L251.29 211.77L253.29 228.77L251.42 228.63L251.02 225.21L246.77 224.89ZM247.13 223.3L250.86 223.58L249.68 213.77L247.13 223.3Z" fill="#263238"/>
<path d="M262.92 216.66V217.12L261.15 216.99V216.44C261.26 214.93 260.75 214 259.41 213.9C258.07 213.8 257.41 214.65 257.32 216.13C257.05 219.89 262.65 220.66 262.32 225.38C262.14 227.92 260.79 229.48 258.23 229.29C255.67 229.1 254.6 227.36 254.78 224.83L254.85 223.83L256.6 223.96L256.52 225.01C256.41 226.52 256.97 227.45 258.31 227.55C259.65 227.65 260.31 226.81 260.45 225.3C260.72 221.56 255.15 220.79 255.45 216.08C255.64 213.49 256.96 211.98 259.45 212.16C261.94 212.34 263.1 214.13 262.92 216.66Z" fill="#263238"/>
<path d="M266.05 222.12L265.5 229.66L263.63 229.52L264.86 212.76L266.73 212.9L266.18 220.44L270.29 220.74L270.85 213.2L272.71 213.34L271.49 230.1L269.62 229.96L270.17 222.42L266.05 222.12Z" fill="#263238"/>
<path d="M337.93 218.2C339.93 218.63 340.76 220.28 340.59 222.53V222.99L338.84 222.86V222.28C338.95 220.8 338.42 219.85 337.08 219.75C335.74 219.65 335.08 220.52 334.99 222C334.71 225.76 340.34 226.19 339.99 230.91C339.83 233.16 338.75 234.69 336.7 234.83L336.6 236.1L335.07 235.99L335.16 234.72C333.1 234.28 332.28 232.63 332.45 230.36L332.53 229.36L334.27 229.49L334.19 230.64C334.08 232.14 334.64 233.05 335.98 233.15C337.32 233.25 337.98 232.43 338.12 230.92C338.39 227.19 332.79 226.73 333.12 222.01C333.29 219.72 334.33 218.28 336.36 218.11L336.46 216.77L338 216.88L337.93 218.2Z" fill="#263238"/>
<path d="M353.69 223.37C353.32 228.37 347.52 229.83 347.21 233.68V233.94L352.72 234.35L352.59 236.04L345.24 235.51L345.35 234.07C345.75 228.66 351.5 228.07 351.84 223.31C351.97 221.58 351.46 220.63 350.07 220.53C348.68 220.43 348.07 221.37 347.93 222.85L347.82 224.33L346.07 224.21L346.17 222.84C346.36 220.28 347.66 218.67 350.24 218.84C352.82 219.01 353.88 220.81 353.69 223.37Z" fill="#263238"/>
<path d="M355.28 223.46C355.46 220.9 356.85 219.34 359.41 219.53C361.97 219.72 363.15 221.47 362.96 224.03L362.32 232.67C362.14 235.23 360.75 236.81 358.16 236.67C355.57 236.53 354.45 234.67 354.64 232.15L355.28 223.46ZM356.48 232.36C356.36 233.87 356.94 234.83 358.28 234.92C359.62 235.01 360.34 234.16 360.45 232.65L361.1 223.79C361.21 222.26 360.66 221.31 359.29 221.21C357.92 221.11 357.24 221.97 357.13 223.5L356.48 232.36Z" fill="#263238"/>
<path d="M365.76 234.68L365.59 237L363.8 236.87L363.97 234.55L365.76 234.68Z" fill="#263238"/>
<path d="M368.3 224.42C368.48 221.86 369.87 220.3 372.43 220.49C374.99 220.68 376.17 222.42 375.98 224.98L375.35 233.62C375.16 236.19 373.77 237.77 371.18 237.62C368.59 237.47 367.47 235.62 367.66 233.1L368.3 224.42ZM369.5 233.32C369.39 234.82 369.97 235.78 371.31 235.88C372.65 235.98 373.36 235.11 373.47 233.61L374.12 224.75C374.23 223.22 373.68 222.26 372.31 222.16C370.94 222.06 370.26 222.93 370.15 224.46L369.5 233.32Z" fill="#263238"/>
<path d="M377.61 225.1C377.79 222.54 379.18 220.98 381.75 221.17C384.32 221.36 385.48 223.1 385.29 225.67L384.66 234.31C384.47 236.87 383.08 238.45 380.49 238.26C377.9 238.07 376.78 236.26 376.97 233.74L377.61 225.1ZM378.81 234C378.7 235.51 379.28 236.46 380.62 236.56C381.96 236.66 382.67 235.8 382.78 234.29L383.43 225.43C383.54 223.9 382.99 222.95 381.62 222.85C380.25 222.75 379.57 223.61 379.46 225.14L378.81 234Z" fill="#263238"/>
<path d="M241.59 246.21L241.48 247.71L239.71 247.58L239.83 245.98C239.94 244.47 239.41 243.52 238.04 243.42C236.67 243.32 236.04 244.19 235.9 245.69L235.25 254.55C235.14 256.06 235.7 257.01 237.04 257.11C238.38 257.21 239.04 256.35 239.18 254.84L239.34 252.66L241.11 252.79L240.96 254.87C240.77 257.41 239.45 259 236.87 258.81C234.29 258.62 233.23 256.86 233.42 254.32L234.05 245.65C234.24 243.12 235.56 241.53 238.12 241.72C240.68 241.91 241.78 243.67 241.59 246.21Z" fill="#263238"/>
<path d="M244.78 251.64L244.23 259.18L242.36 259.04L243.59 242.29L245.46 242.42L244.9 250L249.02 250.3L249.57 242.76L251.44 242.9L250.21 259.66L248.35 259.52L248.9 251.98L244.78 251.64Z" fill="#263238"/>
<path d="M254.26 256.52L253.37 259.85L251.65 259.72L256.08 243.2L258.79 243.4L260.79 260.4L258.92 260.27L258.52 256.84L254.26 256.52ZM254.62 254.94L258.36 255.21L257.17 245.4L254.62 254.94Z" fill="#263238"/>
<path d="M263.88 260.62L262.2 260.5L263.43 243.74L265.8 243.91L268.8 256.31L269.69 244.2L271.34 244.32L270.11 261.08L268.17 260.93L264.88 247.07L263.88 260.62Z" fill="#263238"/>
<path d="M280.35 249.05L280.24 250.49L278.47 250.36L278.58 248.82C278.69 247.32 278.16 246.36 276.8 246.26C275.44 246.16 274.8 247.03 274.66 248.54L274.01 257.39C273.89 258.9 274.45 259.86 275.79 259.95C277.13 260.04 277.79 259.19 277.93 257.68L278.18 254.33L276.45 254.2L276.58 252.53L280.07 252.78L279.71 257.72C279.52 260.25 278.2 261.84 275.62 261.65C273.04 261.46 271.98 259.7 272.17 257.16L272.81 248.5C272.99 245.96 274.31 244.37 276.87 244.56C279.43 244.75 280.53 246.51 280.35 249.05Z" fill="#263238"/>
<path d="M287.83 253L287.71 254.68L283.61 254.38L283.17 260.38L288.17 260.75L288.05 262.45L281.15 261.94L282.38 245.18L289.28 245.69L289.15 247.39L284.15 247.02L283.74 252.74L287.83 253Z" fill="#263238"/>
<path d="M250.22 324.41C250.456 324.079 250.779 323.818 251.152 323.656C251.526 323.493 251.936 323.436 252.34 323.49C254.11 323.62 254.66 325.04 254.54 326.67L254.4 328.49C254.28 330.15 253.5 331.49 251.68 331.34C249.86 331.19 249.26 329.78 249.38 328.12V327.6H249.76V328.12C249.65 329.57 250.11 330.83 251.69 330.95C253.27 331.07 253.92 329.89 254.03 328.43L254.16 326.63C254.26 325.19 253.81 323.93 252.21 323.82C251.768 323.772 251.322 323.873 250.944 324.106C250.565 324.34 250.275 324.693 250.12 325.11V325.25H249.76L250.52 319.09L254.86 319.41V319.77L250.86 319.47L250.22 324.41Z" fill="#263238"/>
<path d="M258.51 320.42C258.295 320.785 257.988 321.088 257.62 321.297C257.251 321.506 256.834 321.614 256.41 321.61V321.26C256.887 321.247 257.348 321.089 257.732 320.806C258.116 320.524 258.405 320.131 258.56 319.68H258.92L258.04 331.68H257.66L258.51 320.42Z" fill="#263238"/>
<path d="M265.28 323.19C265.04 326.53 260.4 327.31 260.03 331.43V331.5L264.59 331.84V332.2L259.66 331.83V331.58C259.99 327.09 264.66 326.4 264.93 323.18C265.04 321.67 264.65 320.4 262.99 320.28C261.33 320.16 260.76 321.42 260.66 322.86L260.61 323.51H260.25V322.87C260.37 321.21 261.13 319.82 262.98 319.96C264.83 320.1 265.41 321.49 265.28 323.19Z" fill="#263238"/>
<path d="M271.62 323.65C271.38 326.99 266.74 327.77 266.37 331.9V332L270.93 332.33V332.69L266 332.3V332.04C266.33 327.55 271 326.86 271.27 323.64C271.38 322.13 270.99 320.87 269.33 320.74C267.67 320.61 267.11 321.89 267 323.33L266.95 323.98H266.59L266.64 323.35C266.76 321.69 267.52 320.3 269.37 320.43C271.22 320.56 271.75 322 271.62 323.65Z" fill="#263238"/>
<path d="M278 324.08V324.37C277.98 324.916 277.785 325.441 277.442 325.866C277.1 326.291 276.629 326.594 276.1 326.73C276.613 326.903 277.05 327.251 277.331 327.714C277.613 328.177 277.722 328.724 277.64 329.26L277.57 330.18C277.45 331.86 276.68 333.18 274.85 333.03C273.02 332.88 272.43 331.49 272.55 329.81V329.25H272.93V329.81C272.82 331.29 273.26 332.54 274.85 332.66C276.44 332.78 277.08 331.6 277.19 330.11L277.26 329.2C277.311 328.924 277.304 328.639 277.238 328.366C277.172 328.092 277.049 327.836 276.877 327.613C276.705 327.391 276.489 327.207 276.241 327.073C275.993 326.94 275.72 326.861 275.44 326.84L274.56 326.78V326.44L275.45 326.5C276.015 326.497 276.556 326.273 276.957 325.874C277.357 325.475 277.585 324.935 277.59 324.37V324.03C277.7 322.53 277.24 321.3 275.65 321.18C274.06 321.06 273.43 322.18 273.33 323.7V324.06H272.95V323.72C273.07 322.04 273.85 320.72 275.69 320.87C277.53 321.02 278.09 322.4 278 324.08Z" fill="#263238"/>
<path d="M279.7 326.57C279.933 326.238 280.253 325.977 280.626 325.816C280.998 325.655 281.408 325.601 281.81 325.66C283.58 325.79 284.13 327.21 284.01 328.83L283.88 330.65C283.75 332.31 282.97 333.65 281.15 333.5C279.33 333.35 278.73 331.94 278.86 330.28V329.77H279.24V330.29C279.14 331.75 279.6 333 281.17 333.12C282.74 333.24 283.4 332.06 283.51 330.6L283.64 328.8C283.75 327.36 283.29 326.11 281.7 325.99C281.256 325.94 280.808 326.039 280.427 326.273C280.047 326.507 279.756 326.861 279.6 327.28V327.42H279.24L280 321.26L284.34 321.58V321.94L280.34 321.65L279.7 326.57Z" fill="#263238"/>
<path d="M286.06 327C286.291 326.666 286.612 326.403 286.984 326.24C287.357 326.078 287.767 326.022 288.17 326.08C289.94 326.21 290.49 327.63 290.37 329.26L290.23 331.08C290.11 332.74 289.33 334.08 287.51 333.93C285.69 333.78 285.09 332.37 285.21 330.71V330.19H285.59V330.71C285.48 332.16 285.94 333.42 287.52 333.53C289.1 333.64 289.75 332.48 289.86 331.02L289.99 329.22C290.1 327.78 289.64 326.52 288.04 326.41C287.598 326.362 287.152 326.463 286.773 326.696C286.395 326.93 286.105 327.283 285.95 327.7V327.84H285.59L286.35 321.68L290.69 322V322.35L286.69 322.06L286.06 327Z" fill="#263238"/>
<path d="M297.1 325.42V325.5H296.74V325.39C296.84 323.94 296.38 322.75 294.79 322.63C293.2 322.51 292.5 323.63 292.39 325.18L292.15 328.49C292.352 328.047 292.695 327.684 293.126 327.456C293.556 327.228 294.05 327.149 294.53 327.23C296.32 327.36 296.9 328.75 296.78 330.41L296.69 331.61C296.57 333.29 295.75 334.61 293.92 334.46C292.09 334.31 291.45 332.91 291.57 331.23L292.02 325.13C292.14 323.44 292.96 322.13 294.81 322.29C296.66 322.45 297.22 323.74 297.1 325.42ZM292 330.06L291.92 331.24C291.81 332.73 292.3 333.96 293.92 334.08C295.54 334.2 296.18 333.08 296.29 331.56L296.37 330.38C296.48 328.92 295.99 327.68 294.37 327.56C292.75 327.44 292.14 328.65 292 330.06Z" fill="#263238"/>
<path d="M303.56 325.89V326H303.2V325.9C303.3 324.44 302.84 323.25 301.25 323.14C299.66 323.03 298.97 324.14 298.85 325.68L298.61 328.99C298.813 328.546 299.158 328.182 299.591 327.956C300.024 327.73 300.519 327.654 301 327.74C302.78 327.87 303.37 329.25 303.24 330.92L303.16 332.11C303.03 333.79 302.16 335.11 300.38 334.96C298.6 334.81 297.91 333.42 298.03 331.74L298.48 325.64C298.6 323.94 299.42 322.64 301.27 322.79C303.12 322.94 303.68 324.21 303.56 325.89ZM298.49 330.53L298.41 331.72C298.3 333.21 298.79 334.43 300.41 334.55C302.03 334.67 302.67 333.55 302.78 332.04L302.86 330.85C302.97 329.4 302.48 328.16 300.86 328.04C299.24 327.92 298.6 329.13 298.49 330.53Z" fill="#263238"/>
<path d="M305.33 328.45C305.564 328.117 305.887 327.855 306.261 327.695C306.635 327.534 307.047 327.48 307.45 327.54C309.22 327.67 309.77 329.09 309.65 330.71L309.51 332.53C309.39 334.19 308.6 335.53 306.79 335.38C304.98 335.23 304.37 333.82 304.49 332.16V331.65H304.87V332.16C304.76 333.62 305.22 334.87 306.8 334.99C308.38 335.11 309.03 333.93 309.14 332.47L309.27 330.67C309.37 329.23 308.91 327.98 307.32 327.86C306.878 327.812 306.432 327.913 306.054 328.146C305.675 328.38 305.385 328.733 305.23 329.15V329.29H304.87L305.63 323.13L309.97 323.45V323.81L305.97 323.52L305.33 328.45Z" fill="#263238"/>
<path d="M316.32 326.93C316.07 330.27 311.43 331.05 311.06 335.18V335.25L315.62 335.58V335.94L310.68 335.58V335.32C311.01 330.83 315.68 330.14 315.95 326.92C316.06 325.41 315.67 324.14 314.01 324.02C312.35 323.9 311.79 325.17 311.68 326.61L311.63 327.26H311.27L311.32 326.63C311.44 324.97 312.2 323.57 314.05 323.71C315.9 323.85 316.44 325.23 316.32 326.93Z" fill="#263238"/>
<path d="M320 324.92C319.787 325.287 319.48 325.59 319.111 325.8C318.742 326.009 318.324 326.116 317.9 326.11V325.77C318.377 325.757 318.838 325.599 319.222 325.316C319.606 325.034 319.895 324.641 320.05 324.19H320.41L319.53 336.19H319.15L320 324.92Z" fill="#263238"/>
<path d="M322.11 329.68C322.344 329.347 322.667 329.086 323.041 328.925C323.415 328.764 323.827 328.711 324.23 328.77C325.99 328.9 326.54 330.32 326.42 331.94L326.29 333.76C326.17 335.42 325.38 336.76 323.56 336.61C321.74 336.46 321.15 335.06 321.27 333.39V332.88H321.64V333.39C321.53 334.85 321.99 336.1 323.56 336.22C325.13 336.34 325.8 335.16 325.9 333.7L326.03 331.9C326.14 330.47 325.68 329.21 324.09 329.09C323.645 329.04 323.196 329.141 322.815 329.377C322.434 329.613 322.144 329.97 321.99 330.39V330.52H321.63L322.4 324.35L326.73 324.67V325.03L322.73 324.74L322.11 329.68Z" fill="#263238"/>
<path d="M333.09 328.16C332.85 331.5 328.21 332.28 327.84 336.41V336.48L332.4 336.81V337.17L327.47 336.81V336.55C327.79 332.06 332.47 331.37 332.73 328.15C332.84 326.64 332.45 325.38 330.79 325.25C329.13 325.12 328.57 326.4 328.47 327.84L328.42 328.49H328.06V327.86C328.18 326.2 328.93 324.81 330.78 324.94C332.63 325.07 333.22 326.47 333.09 328.16Z" fill="#263238"/>
<path d="M334.81 330.61C335.043 330.278 335.363 330.017 335.736 329.856C336.109 329.695 336.518 329.641 336.92 329.7C338.69 329.83 339.24 331.25 339.12 332.88L338.99 334.69C338.86 336.36 338.08 337.69 336.26 337.54C334.44 337.39 333.84 335.99 333.97 334.32V333.81H334.35V334.32C334.25 335.78 334.7 337.04 336.28 337.15C337.86 337.26 338.51 336.09 338.62 334.64L338.75 332.84C338.86 331.4 338.4 330.14 336.8 330.02C336.356 329.973 335.91 330.075 335.531 330.31C335.153 330.546 334.863 330.901 334.71 331.32V331.45H334.35L335.11 325.28L339.45 325.6V325.96L335.45 325.67L334.81 330.61Z" fill="#263238"/>
<path d="M346.14 249.88C348.14 250.32 348.97 251.97 348.81 254.22V254.67L347.07 254.54V253.97C347.18 252.49 346.65 251.53 345.31 251.43C343.97 251.33 343.31 252.2 343.22 253.69C342.94 257.44 348.56 257.88 348.22 262.6C348.05 264.85 346.98 266.38 344.92 266.52L344.83 267.79L343.3 267.67L343.39 266.41C341.33 265.97 340.51 264.32 340.68 262.04L340.75 261.04L342.5 261.17L342.42 262.32C342.3 263.83 342.86 264.74 344.2 264.84C345.54 264.94 346.2 264.12 346.34 262.61C346.62 258.87 341.02 258.42 341.34 253.7C341.51 251.4 342.56 249.96 344.59 249.8L344.69 248.46L346.22 248.57L346.14 249.88Z" fill="#263238"/>
<path d="M361.89 255V255.31L360.14 255.18V254.75C360.25 253.24 359.69 252.31 358.33 252.21C356.97 252.11 356.23 252.97 356.1 254.77L355.82 258.52C356.057 257.983 356.463 257.538 356.975 257.251C357.487 256.965 358.078 256.852 358.66 256.93C360.81 257.09 361.66 258.71 361.48 261.13L361.29 263.67C361.1 266.23 359.71 267.81 357.15 267.62C354.59 267.43 353.42 265.62 353.61 263.1L354.23 254.56C354.43 251.9 355.75 250.34 358.4 250.56C361.05 250.78 362.08 252.45 361.89 255ZM355.66 260.85L355.48 263.36C355.36 264.87 355.92 265.82 357.28 265.92C358.64 266.02 359.34 265.16 359.45 263.65L359.63 261.14C359.74 259.63 359.16 258.67 357.82 258.57C356.48 258.47 355.77 259.35 355.66 260.86V260.85Z" fill="#263238"/>
<path d="M364.71 265.68L364.54 268.01L362.75 267.87L362.92 265.55L364.71 265.68Z" fill="#263238"/>
<path d="M370.89 254.68C370.154 255.057 369.337 255.246 368.51 255.23L368.63 253.7C369.283 253.76 369.937 253.594 370.483 253.23C371.029 252.866 371.434 252.326 371.63 251.7L372.92 251.8L371.69 268.55L369.85 268.42L370.89 254.68Z" fill="#263238"/>
<path d="M375.34 256C375.53 253.44 376.92 251.88 379.48 252.07C382.04 252.26 383.21 254 383.02 256.56L382.39 265.2C382.2 267.76 380.81 269.35 378.22 269.2C375.63 269.05 374.52 267.2 374.7 264.68L375.34 256ZM376.54 264.9C376.43 266.4 377.01 267.36 378.35 267.46C379.69 267.56 380.35 266.69 380.51 265.19L381.16 256.33C381.27 254.8 380.72 253.84 379.35 253.74C377.98 253.64 377.3 254.51 377.19 256.04L376.54 264.9Z" fill="#263238"/>
<path d="M280.92 118.18C280.707 118.547 280.4 118.85 280.031 119.06C279.662 119.269 279.244 119.376 278.82 119.37V119.03C279.296 119.014 279.756 118.855 280.14 118.573C280.523 118.291 280.813 117.899 280.97 117.45H281.33L280.45 129.45H280.07L280.92 118.18Z" fill="#263238"/>
<path d="M283.07 122.94C283.304 122.607 283.627 122.346 284.001 122.185C284.375 122.024 284.787 121.971 285.19 122.03C286.95 122.15 287.5 123.57 287.38 125.2L287.25 127.02C287.13 128.68 286.34 130.02 284.53 129.87C282.72 129.72 282.11 128.31 282.23 126.65V126.14H282.6V126.66C282.49 128.11 282.95 129.37 284.52 129.49C286.09 129.61 286.76 128.43 286.86 126.97L286.99 125.17C287.1 123.73 286.64 122.47 285.05 122.36C284.606 122.31 284.158 122.409 283.778 122.643C283.397 122.877 283.106 123.231 282.95 123.65V123.79H282.59L283.36 117.63L287.69 117.95V118.31L283.69 118.01L283.07 122.94Z" fill="#263238"/>
<path d="M294.27 118.44L288.66 130.08H288.32L293.93 118.43L294.27 118.44Z" fill="#263238"/>
<path d="M295.34 121.48C295.47 119.78 296.28 118.48 298.12 118.63C299.96 118.78 300.57 120.16 300.45 121.85L300 128C299.88 129.68 299.06 131 297.22 130.85C295.38 130.7 294.77 129.31 294.89 127.63L295.34 121.48ZM295.27 127.61C295.16 129.1 295.66 130.34 297.27 130.46C298.88 130.58 299.53 129.46 299.64 127.93L300.09 121.81C300.2 120.33 299.71 119.09 298.09 118.98C296.47 118.87 295.83 119.98 295.72 121.49L295.27 127.61Z" fill="#263238"/>
<path d="M306.8 122.32V122.61C306.784 123.155 306.591 123.681 306.25 124.107C305.909 124.532 305.439 124.835 304.91 124.97C305.422 125.141 305.857 125.488 306.137 125.949C306.417 126.411 306.525 126.957 306.44 127.49L306.38 128.42C306.25 130.1 305.49 131.42 303.65 131.27C301.81 131.12 301.23 129.73 301.36 128.05V127.49H301.73V128.06C301.62 129.53 302.07 130.79 303.66 130.9C305.25 131.01 305.89 129.9 306 128.35L306.07 127.45C306.121 127.173 306.114 126.888 306.047 126.614C305.981 126.34 305.857 126.083 305.684 125.86C305.511 125.637 305.293 125.453 305.044 125.32C304.795 125.188 304.521 125.109 304.24 125.09L303.37 125.03V124.68L304.26 124.75C304.827 124.747 305.37 124.521 305.77 124.12C306.171 123.72 306.397 123.177 306.4 122.61V122.27C306.51 120.78 306.05 119.54 304.45 119.42C302.85 119.3 302.24 120.42 302.13 121.94V122.3H301.75V121.96C301.88 120.28 302.66 118.96 304.49 119.11C306.32 119.26 306.93 120.64 306.8 122.32Z" fill="#263238"/>
<path d="M313.38 119.84L307.77 131.49H307.43L313 119.81L313.38 119.84Z" fill="#263238"/>
<path d="M319.46 123.28C319.22 126.62 314.58 127.4 314.21 131.53V131.6L318.77 131.93V132.29L313.83 131.93V131.67C314.16 127.18 318.83 126.49 319.1 123.27C319.21 121.76 318.82 120.5 317.16 120.37C315.5 120.24 314.94 121.52 314.83 122.96L314.78 123.61H314.42V122.98C314.54 121.32 315.3 119.98 317.15 120.06C319 120.14 319.59 121.59 319.46 123.28Z" fill="#263238"/>
<path d="M320.79 123.35C320.91 121.65 321.73 120.35 323.56 120.5C325.39 120.65 326.02 122.02 325.89 123.72L325.45 129.82C325.32 131.5 324.5 132.82 322.67 132.67C320.84 132.52 320.22 131.12 320.34 129.45L320.79 123.35ZM320.72 129.47C320.61 130.96 321.1 132.21 322.72 132.32C324.34 132.43 324.98 131.32 325.09 129.79L325.54 123.67C325.65 122.2 325.15 120.96 323.54 120.84C321.93 120.72 321.27 121.84 321.17 123.36L320.72 129.47Z" fill="#263238"/>
<path d="M332.25 124.22C332 127.56 327.36 128.34 326.99 132.47V132.53L331.55 132.87V133.23L326.61 132.87V132.61C326.94 128.12 331.61 127.43 331.88 124.21C331.99 122.7 331.6 121.43 329.94 121.31C328.28 121.19 327.72 122.46 327.61 123.9V124.55H327.25V123.92C327.37 122.26 328.13 120.86 329.98 121C331.83 121.14 332.37 122.52 332.25 124.22Z" fill="#263238"/>
<path d="M335.89 122.21C335.677 122.577 335.37 122.88 335.001 123.09C334.632 123.299 334.214 123.406 333.79 123.4V123.06C334.266 123.046 334.727 122.887 335.111 122.605C335.495 122.323 335.784 121.93 335.94 121.48H336.29L335.41 133.48H335.04L335.89 122.21Z" fill="#263238"/>
<path d="M380.1 127.64V127.87H379.72V127.63C379.83 126.21 379.38 124.97 377.82 124.85C376.26 124.73 375.63 125.85 375.52 127.3C375.3 130.37 379.9 130.62 379.66 133.88C379.54 135.54 378.76 136.81 376.92 136.68C375.08 136.55 374.52 135.17 374.64 133.51V132.93H375V133.53C374.89 134.99 375.37 136.18 376.95 136.3C378.53 136.42 379.17 135.3 379.28 133.85C379.5 130.85 374.9 130.58 375.15 127.27C375.27 125.53 376.15 124.38 377.83 124.49C379.51 124.6 380.22 126 380.1 127.64Z" fill="#263238"/>
<path d="M382 134.09L381.09 136.86H380.75L384.53 125.06H385.06L387.14 137.29H386.77L386.27 134.41L382 134.09ZM382.1 133.75L386.23 134.05L384.75 125.5L382.1 133.75Z" fill="#263238"/>
<path d="M390 137.52L390.85 125.89L388.25 125.7V125.34L393.86 125.75V126.11L391.24 125.91L390.38 137.55L390 137.52Z" fill="#263238"/>
<path d="M216.723 281.299L212.734 281.006L210.537 310.925L214.526 311.218L216.723 281.299Z" fill="#263238"/>
<path d="M227.119 282.069L223.13 281.776L220.933 311.695L224.922 311.988L227.119 282.069Z" fill="#263238"/>
<path d="M220.498 281.575L218.513 281.429L216.316 311.349L218.301 311.494L220.498 281.575Z" fill="#263238"/>
<path d="M233.528 282.547L229.538 282.254L227.341 312.173L231.33 312.466L233.528 282.547Z" fill="#263238"/>
<path d="M239.177 282.918L238.389 282.86L236.197 312.78L236.985 312.837L239.177 282.918Z" fill="#263238"/>
<path d="M237.322 282.823L235.337 282.678L233.14 312.597L235.125 312.743L237.322 282.823Z" fill="#263238"/>
<path d="M245.313 283.397L241.324 283.104L239.127 313.024L243.116 313.317L245.313 283.397Z" fill="#263238"/>
<path d="M255.709 284.157L251.72 283.864L249.523 313.783L253.512 314.076L255.709 284.157Z" fill="#263238"/>
<path d="M249.107 283.673L247.123 283.527L244.925 313.447L246.91 313.593L249.107 283.673Z" fill="#263238"/>
<path d="M262.128 284.635L258.138 284.342L255.941 314.261L259.931 314.554L262.128 284.635Z" fill="#263238"/>
<path d="M267.754 285.024L266.966 284.966L264.769 314.885L265.557 314.943L267.754 285.024Z" fill="#263238"/>
<path d="M265.921 284.912L263.937 284.766L261.739 314.685L263.724 314.831L265.921 284.912Z" fill="#263238"/>
<path d="M273.945 285.461L269.956 285.169L267.764 315.089L271.753 315.381L273.945 285.461Z" fill="#263238"/>
<path d="M284.352 286.22L280.363 285.927L278.171 315.847L282.16 316.139L284.352 286.22Z" fill="#263238"/>
<path d="M277.73 285.737L275.745 285.591L273.553 315.511L275.538 315.657L277.73 285.737Z" fill="#263238"/>
<path d="M290.761 286.697L286.771 286.404L284.58 316.324L288.569 316.616L290.761 286.697Z" fill="#263238"/>
<path d="M296.357 287.104L295.569 287.046L293.377 316.966L294.165 317.024L296.357 287.104Z" fill="#263238"/>
<path d="M296.218 286.84L294.228 286.701L292.128 316.701L294.118 316.84L296.218 286.84Z" fill="#263238"/>
<path d="M302.492 287.603L298.502 287.311L296.305 317.23L300.295 317.523L302.492 287.603Z" fill="#263238"/>
<path d="M312.888 288.363L308.899 288.07L306.702 317.99L310.691 318.283L312.888 288.363Z" fill="#263238"/>
<path d="M306.266 287.89L304.281 287.744L302.084 317.663L304.069 317.809L306.266 287.89Z" fill="#263238"/>
<path d="M319.307 288.832L315.317 288.539L313.12 318.458L317.109 318.751L319.307 288.832Z" fill="#263238"/>
<path d="M324.933 289.22L324.145 289.162L321.948 319.082L322.735 319.14L324.933 289.22Z" fill="#263238"/>
<path d="M323.091 289.118L321.106 288.972L318.909 318.892L320.893 319.038L323.091 289.118Z" fill="#263238"/>
<path d="M331.127 289.648L327.137 289.356L324.945 319.276L328.935 319.568L331.127 289.648Z" fill="#263238"/>
<path d="M341.478 290.471L337.488 290.178L335.291 320.098L339.28 320.391L341.478 290.471Z" fill="#263238"/>
<path d="M334.856 289.978L332.872 289.832L330.674 319.751L332.659 319.897L334.856 289.978Z" fill="#263238"/>
<path d="M347.896 290.94L343.907 290.647L341.71 320.566L345.699 320.859L347.896 290.94Z" fill="#263238"/>
<path d="M353.538 291.291L352.75 291.233L350.558 321.153L351.346 321.211L353.538 291.291Z" fill="#263238"/>
<path d="M351.68 291.216L349.696 291.071L347.498 320.99L349.483 321.136L351.68 291.216Z" fill="#263238"/>
<path d="M359.671 291.8L355.682 291.507L353.485 321.427L357.474 321.72L359.671 291.8Z" fill="#263238"/>
<path d="M370.068 292.56L366.078 292.267L363.881 322.186L367.87 322.479L370.068 292.56Z" fill="#263238"/>
<path d="M363.446 292.086L361.461 291.94L359.264 321.86L361.248 322.006L363.446 292.086Z" fill="#263238"/>
<path d="M376.486 293.028L372.497 292.735L370.3 322.655L374.289 322.947L376.486 293.028Z" fill="#263238"/>
<path d="M382.112 293.407L381.324 293.349L379.127 323.268L379.915 323.326L382.112 293.407Z" fill="#263238"/>
<path d="M380.326 293.262L378.341 293.117L376.149 323.037L378.134 323.182L380.326 293.262Z" fill="#263238"/>
<path d="M427.25 297.66L441.44 433.63" stroke="#263238" stroke-width="2" stroke-miterlimit="10"/>
<path d="M439.15 407.61L432.72 400.81" stroke="#263238" stroke-width="2" stroke-miterlimit="10"/>
<path d="M434.67 402.85C434.659 401.81 434.425 400.784 433.984 399.842C433.542 398.9 432.903 398.063 432.11 397.39C430.46 395.92 421.77 392.26 420.95 395.32C420.05 398.65 429 405.19 434.67 402.85Z" fill="#0066FF" stroke="#263238" stroke-miterlimit="10"/>
<path d="M434.67 402.85L426.4 397.69" stroke="#263238" stroke-width="0.5" stroke-miterlimit="10"/>
<path d="M440.77 423.07L434.33 416.27" stroke="#263238" stroke-width="2" stroke-miterlimit="10"/>
<path d="M436.29 418.31C436.276 417.27 436.041 416.245 435.599 415.304C435.158 414.362 434.52 413.526 433.73 412.85C432.08 411.38 423.39 407.72 422.56 410.78C421.67 414.11 430.56 420.65 436.29 418.31Z" fill="#0066FF" stroke="#263238" stroke-miterlimit="10"/>
<path d="M436.29 418.31L428.02 413.15" stroke="#263238" stroke-width="0.5" stroke-miterlimit="10"/>
<path d="M435.21 369.87L428.78 363.08" stroke="#263238" stroke-width="2" stroke-miterlimit="10"/>
<path d="M430.74 365.11C430.726 364.072 430.49 363.048 430.049 362.108C429.607 361.168 428.97 360.334 428.18 359.66C426.53 358.18 417.84 354.53 417.01 357.59C416.11 360.92 425 367.45 430.74 365.11Z" fill="#0066FF" stroke="#263238" stroke-miterlimit="10"/>
<path d="M430.74 365.11L422.46 359.96" stroke="#263238" stroke-width="0.5" stroke-miterlimit="10"/>
<path d="M436.83 385.34L430.4 378.54" stroke="#263238" stroke-width="2" stroke-miterlimit="10"/>
<path d="M432.35 380.58C432.336 379.54 432.101 378.515 431.659 377.574C431.218 376.632 430.58 375.796 429.79 375.12C428.14 373.65 419.45 369.99 418.62 373.05C417.73 376.38 426.62 382.92 432.35 380.58Z" fill="#0066FF" stroke="#263238" stroke-miterlimit="10"/>
<path d="M432.35 380.58L424.08 375.42" stroke="#263238" stroke-width="0.5" stroke-miterlimit="10"/>
<path d="M432.59 344.75L426.16 337.96" stroke="#263238" stroke-width="2" stroke-miterlimit="10"/>
<path d="M428.12 340C428.105 338.961 427.869 337.937 427.425 336.997C426.982 336.057 426.343 335.222 425.55 334.55C423.9 333.07 415.21 329.42 414.39 332.48C413.49 335.8 422.39 342.33 428.12 340Z" fill="#0066FF" stroke="#263238" stroke-miterlimit="10"/>
<path d="M428.12 339.99L419.84 334.84" stroke="#263238" stroke-width="0.5" stroke-miterlimit="10"/>
<path d="M429.96 319.52L423.53 312.73" stroke="#263238" stroke-width="2" stroke-miterlimit="10"/>
<path d="M425.48 314.77C425.469 313.729 425.235 312.704 424.794 311.762C424.352 310.819 423.713 309.983 422.92 309.31C421.27 307.83 412.58 304.18 411.76 307.24C410.86 310.57 419.75 317.11 425.48 314.77Z" fill="#0066FF" stroke="#263238" stroke-miterlimit="10"/>
<path d="M425.48 314.77L417.21 309.61" stroke="#263238" stroke-width="0.5" stroke-miterlimit="10"/>
<path d="M438.07 398.46L442.96 390.48" stroke="#263238" stroke-width="2" stroke-miterlimit="10"/>
<path d="M441.47 392.88C441.268 391.86 441.287 390.808 441.525 389.796C441.763 388.783 442.214 387.833 442.85 387.01C444.16 385.22 451.91 379.85 453.35 382.68C454.91 385.75 447.56 394 441.47 392.88Z" fill="#0066FF" stroke="#263238" stroke-miterlimit="10"/>
<path d="M441.47 392.88L448.92 385.76" stroke="#263238" stroke-width="0.5" stroke-miterlimit="10"/>
<path d="M433.82 357.76L438.72 349.79" stroke="#263238" stroke-width="2" stroke-miterlimit="10"/>
<path d="M437.22 352.18C437.018 351.161 437.037 350.111 437.275 349.1C437.513 348.09 437.965 347.141 438.6 346.32C439.91 344.53 447.66 339.16 449.1 341.99C450.67 345.06 443.31 353.29 437.22 352.18Z" fill="#0066FF" stroke="#263238" stroke-miterlimit="10"/>
<path d="M437.22 352.18L444.67 345.06" stroke="#263238" stroke-width="0.5" stroke-miterlimit="10"/>
<path d="M431.96 339.88L436.85 331.91" stroke="#263238" stroke-width="2" stroke-miterlimit="10"/>
<path d="M435.36 334.3C435.158 333.28 435.176 332.228 435.414 331.216C435.652 330.203 436.104 329.253 436.74 328.43C438.05 326.65 445.8 321.28 447.23 324.1C448.8 327.17 441.45 335.41 435.36 334.3Z" fill="#0066FF" stroke="#263238" stroke-miterlimit="10"/>
<path d="M435.36 334.3L442.81 327.18" stroke="#263238" stroke-width="0.5" stroke-miterlimit="10"/>
<path d="M429.22 313.67L434.11 305.69" stroke="#263238" stroke-width="2" stroke-miterlimit="10"/>
<path d="M432.62 308.09C432.418 307.07 432.436 306.018 432.674 305.006C432.912 303.993 433.364 303.043 434 302.22C435.31 300.43 443.06 295.06 444.5 297.89C446.06 301 438.71 309.19 432.62 308.09Z" fill="#0066FF" stroke="#263238" stroke-miterlimit="10"/>
<path d="M432.62 308.09L440.07 300.97" stroke="#263238" stroke-width="0.5" stroke-miterlimit="10"/>
<path d="M427.13 296.9C426.928 295.881 426.947 294.831 427.185 293.82C427.423 292.81 427.875 291.861 428.51 291.04C429.82 289.25 437.57 283.88 439.01 286.71C440.57 289.78 433.22 298 427.13 296.9Z" fill="#0066FF" stroke="#263238" stroke-miterlimit="10"/>
<path d="M427.13 296.9L434.58 289.78" stroke="#263238" stroke-width="0.5" stroke-miterlimit="10"/>
<path d="M427.56 297.21C426.524 297.301 425.48 297.17 424.499 296.825C423.517 296.48 422.621 295.93 421.87 295.21C420.24 293.71 415.71 285.45 418.67 284.31C421.88 283.1 429.3 291.27 427.56 297.21Z" fill="#0066FF" stroke="#263238" stroke-miterlimit="10"/>
<path d="M427.56 297.21L421.26 289.06" stroke="#263238" stroke-width="0.5" stroke-miterlimit="10"/>
<path d="M464.68 316.38L450.57 452.36" stroke="#263238" stroke-width="2" stroke-miterlimit="10"/>
<path d="M453.69 426.42L448.79 418.45" stroke="#263238" stroke-width="2" stroke-miterlimit="10"/>
<path d="M450.28 420.85C450.479 419.833 450.459 418.785 450.221 417.776C449.983 416.767 449.533 415.821 448.9 415C447.59 413.22 439.84 407.85 438.4 410.67C436.84 413.73 444.2 422 450.28 420.85Z" fill="#0066FF" stroke="#263238" stroke-miterlimit="10"/>
<path d="M450.28 420.85L443.25 414.1" stroke="#263238" stroke-width="0.5" stroke-miterlimit="10"/>
<path d="M457.6 388.69L452.71 380.72" stroke="#263238" stroke-width="2" stroke-miterlimit="10"/>
<path d="M454.2 383.11C454.402 382.09 454.383 381.038 454.145 380.026C453.907 379.013 453.455 378.063 452.82 377.24C451.5 375.46 443.75 370.09 442.32 372.92C440.75 376 448.11 384.22 454.2 383.11Z" fill="#0066FF" stroke="#263238" stroke-miterlimit="10"/>
<path d="M454.2 383.11L447.16 376.36" stroke="#263238" stroke-width="0.5" stroke-miterlimit="10"/>
<path d="M456 404.15L451.1 396.18" stroke="#263238" stroke-width="2" stroke-miterlimit="10"/>
<path d="M452.59 398.57C452.792 397.551 452.773 396.501 452.535 395.491C452.297 394.48 451.845 393.532 451.21 392.71C449.9 390.93 442.15 385.56 440.71 388.38C439.15 391.46 446.51 399.68 452.59 398.57Z" fill="#0066FF" stroke="#263238" stroke-miterlimit="10"/>
<path d="M452.59 398.57L445.56 391.83" stroke="#263238" stroke-width="0.5" stroke-miterlimit="10"/>
<path d="M460.21 363.57L455.31 355.6" stroke="#263238" stroke-width="2" stroke-miterlimit="10"/>
<path d="M456.81 358C457.009 356.979 456.987 355.927 456.748 354.915C456.508 353.903 456.055 352.954 455.42 352.13C454.11 350.35 446.36 344.98 444.92 347.81C443.36 350.87 450.72 359.1 456.81 358Z" fill="#0066FF" stroke="#263238" stroke-miterlimit="10"/>
<path d="M456.81 357.99L449.77 351.24" stroke="#263238" stroke-width="0.5" stroke-miterlimit="10"/>
<path d="M462.83 338.34L457.93 330.37" stroke="#263238" stroke-width="2" stroke-miterlimit="10"/>
<path d="M459.42 332.76C459.622 331.74 459.603 330.688 459.365 329.676C459.127 328.663 458.675 327.713 458.04 326.89C456.73 325.11 448.98 319.74 447.54 322.57C446 325.64 453.34 333.87 459.42 332.76Z" fill="#0066FF" stroke="#263238" stroke-miterlimit="10"/>
<path d="M459.42 332.76L452.39 326.01" stroke="#263238" stroke-width="0.5" stroke-miterlimit="10"/>
<path d="M454.51 417.25L460.94 410.45" stroke="#263238" stroke-width="2" stroke-miterlimit="10"/>
<path d="M459 412.49C459.01 411.45 459.243 410.425 459.683 409.483C460.123 408.541 460.759 407.705 461.55 407.03C463.2 405.55 471.89 401.89 472.72 404.95C473.61 408.28 464.72 414.82 459 412.49Z" fill="#0066FF" stroke="#263238" stroke-miterlimit="10"/>
<path d="M458.99 412.49L467.74 407.05" stroke="#263238" stroke-width="0.5" stroke-miterlimit="10"/>
<path d="M458.73 376.55L465.16 369.76" stroke="#263238" stroke-width="2" stroke-miterlimit="10"/>
<path d="M463.21 371.79C463.221 370.751 463.456 369.727 463.897 368.787C464.339 367.846 464.978 367.012 465.77 366.34C467.42 364.86 476.1 361.2 476.93 364.26C477.83 367.59 468.94 374.13 463.21 371.79Z" fill="#0066FF" stroke="#263238" stroke-miterlimit="10"/>
<path d="M463.21 371.79L471.97 366.36" stroke="#263238" stroke-width="0.5" stroke-miterlimit="10"/>
<path d="M460.59 358.67L467.02 351.87" stroke="#263238" stroke-width="2" stroke-miterlimit="10"/>
<path d="M465.07 353.91C465.08 352.871 465.313 351.845 465.752 350.903C466.192 349.961 466.829 349.125 467.62 348.45C469.27 346.98 477.96 343.32 478.79 346.38C479.69 349.7 470.8 356.25 465.07 353.91Z" fill="#0066FF" stroke="#263238" stroke-miterlimit="10"/>
<path d="M465.07 353.91L473.82 348.48" stroke="#263238" stroke-width="0.5" stroke-miterlimit="10"/>
<path d="M463.31 332.45L469.74 325.66" stroke="#263238" stroke-width="2" stroke-miterlimit="10"/>
<path d="M467.79 327.69C467.801 326.652 468.034 325.629 468.474 324.688C468.914 323.748 469.55 322.913 470.34 322.24C471.99 320.76 480.68 317.1 481.51 320.16C482.41 323.49 473.52 330 467.79 327.69Z" fill="#0066FF" stroke="#263238" stroke-miterlimit="10"/>
<path d="M467.79 327.69L476.54 322.26" stroke="#263238" stroke-width="0.5" stroke-miterlimit="10"/>
<path d="M464.71 315.62C464.724 314.58 464.96 313.556 465.402 312.614C465.843 311.673 466.48 310.836 467.27 310.16C468.92 308.69 477.61 305.03 478.44 308.09C479.33 311.41 470.44 318 464.71 315.62Z" fill="#0066FF" stroke="#263238" stroke-miterlimit="10"/>
<path d="M464.71 315.62L473.47 310.19" stroke="#263238" stroke-width="0.5" stroke-miterlimit="10"/>
<path d="M465.07 316C464.038 315.879 463.044 315.538 462.154 315.002C461.264 314.466 460.499 313.746 459.91 312.89C458.62 311.09 455.91 302.07 459.02 301.56C462.42 301 468 310.56 465.07 316Z" fill="#0066FF" stroke="#263238" stroke-miterlimit="10"/>
<path d="M465.07 316.01L460.59 306.73" stroke="#263238" stroke-width="0.5" stroke-miterlimit="10"/>
<path d="M448.51 261.02V432.96" stroke="#263238" stroke-width="2" stroke-miterlimit="10"/>
<path d="M448.64 407.11L442.95 399.68" stroke="#263238" stroke-width="2" stroke-miterlimit="10"/>
<path d="M444.68 401.91C444.774 400.874 444.645 399.829 444.3 398.847C443.955 397.865 443.402 396.969 442.68 396.22C441.19 394.58 432.93 390.04 431.79 393C430.58 396.22 438.74 403.64 444.68 401.91Z" fill="#0066FF" stroke="#263238" stroke-miterlimit="10"/>
<path d="M444.68 401.91L436.99 395.93" stroke="#263238" stroke-width="0.5" stroke-miterlimit="10"/>
<path d="M448.64 374.8L442.95 367.37" stroke="#263238" stroke-width="2" stroke-miterlimit="10"/>
<path d="M444.68 369.6C444.774 368.564 444.645 367.519 444.3 366.537C443.955 365.555 443.402 364.659 442.68 363.91C441.19 362.27 432.93 357.73 431.79 360.69C430.58 363.91 438.74 371.33 444.68 369.6Z" fill="#0066FF" stroke="#263238" stroke-miterlimit="10"/>
<path d="M444.68 369.6L436.99 363.61" stroke="#263238" stroke-width="0.5" stroke-miterlimit="10"/>
<path d="M448.64 336.86L442.95 329.43" stroke="#263238" stroke-width="2" stroke-miterlimit="10"/>
<path d="M444.68 331.66C444.774 330.624 444.645 329.579 444.3 328.597C443.955 327.615 443.402 326.719 442.68 325.97C441.19 324.33 432.93 319.79 431.79 322.75C430.58 326 438.74 333.39 444.68 331.66Z" fill="#0066FF" stroke="#263238" stroke-miterlimit="10"/>
<path d="M444.68 331.66L436.99 325.67" stroke="#263238" stroke-width="0.5" stroke-miterlimit="10"/>
<path d="M448.64 311.6L442.95 304.18" stroke="#263238" stroke-width="2" stroke-miterlimit="10"/>
<path d="M444.68 306.41C444.775 305.372 444.645 304.326 444.3 303.342C443.955 302.359 443.402 301.461 442.68 300.71C441.19 299.07 432.93 294.54 431.79 297.49C430.58 300.71 438.74 308.14 444.68 306.41Z" fill="#0066FF" stroke="#263238" stroke-miterlimit="10"/>
<path d="M444.68 306.41L436.99 300.42" stroke="#263238" stroke-width="0.5" stroke-miterlimit="10"/>
<path d="M448.64 286.24L442.95 278.81" stroke="#263238" stroke-width="2" stroke-miterlimit="10"/>
<path d="M444.68 281C444.774 279.964 444.645 278.919 444.3 277.937C443.955 276.955 443.402 276.059 442.68 275.31C441.19 273.67 432.93 269.13 431.79 272.09C430.58 275.35 438.74 282.77 444.68 281Z" fill="#0066FF" stroke="#263238" stroke-miterlimit="10"/>
<path d="M444.68 281.04L436.99 275.05" stroke="#263238" stroke-width="0.5" stroke-miterlimit="10"/>
<path d="M448.52 416.98L454.21 409.55" stroke="#263238" stroke-width="2" stroke-miterlimit="10"/>
<path d="M452.48 411.78C452.385 410.744 452.515 409.699 452.86 408.717C453.205 407.735 453.758 406.839 454.48 406.09C455.97 404.45 464.23 399.91 465.37 402.87C466.59 406.09 458.42 413.51 452.48 411.78Z" fill="#0066FF" stroke="#263238" stroke-miterlimit="10"/>
<path d="M452.48 411.78L460.63 405.47" stroke="#263238" stroke-width="0.5" stroke-miterlimit="10"/>
<path d="M448.52 365.58L454.21 358.16" stroke="#263238" stroke-width="2" stroke-miterlimit="10"/>
<path d="M452.48 360.39C452.386 359.352 452.516 358.306 452.861 357.323C453.206 356.339 453.758 355.442 454.48 354.69C455.97 353.06 464.23 348.52 465.37 351.48C466.59 354.69 458.42 362.12 452.48 360.39Z" fill="#0066FF" stroke="#263238" stroke-miterlimit="10"/>
<path d="M452.48 360.39L460.63 354.08" stroke="#263238" stroke-width="0.5" stroke-miterlimit="10"/>
<path d="M448.52 340.22L454.21 332.79" stroke="#263238" stroke-width="2" stroke-miterlimit="10"/>
<path d="M452.48 335C452.385 333.964 452.515 332.919 452.86 331.937C453.205 330.955 453.758 330.059 454.48 329.31C455.97 327.67 464.23 323.13 465.37 326.09C466.59 329.33 458.42 336.75 452.48 335Z" fill="#0066FF" stroke="#263238" stroke-miterlimit="10"/>
<path d="M452.48 335.02L460.63 328.71" stroke="#263238" stroke-width="0.5" stroke-miterlimit="10"/>
<path d="M448.52 306.69L454.21 299.27" stroke="#263238" stroke-width="2" stroke-miterlimit="10"/>
<path d="M452.48 301.49C452.385 300.454 452.515 299.409 452.86 298.427C453.205 297.445 453.758 296.549 454.48 295.8C455.97 294.16 464.23 289.63 465.37 292.58C466.59 295.8 458.42 303.23 452.48 301.49Z" fill="#0066FF" stroke="#263238" stroke-miterlimit="10"/>
<path d="M452.48 301.49L460.63 295.19" stroke="#263238" stroke-width="0.5" stroke-miterlimit="10"/>
<path d="M448.52 280.33L454.21 272.91" stroke="#263238" stroke-width="2" stroke-miterlimit="10"/>
<path d="M452.48 275.14C452.386 274.102 452.516 273.056 452.861 272.073C453.206 271.089 453.758 270.192 454.48 269.44C455.97 267.81 464.23 263.27 465.37 266.23C466.59 269.44 458.42 276.87 452.48 275.14Z" fill="#0066FF" stroke="#263238" stroke-miterlimit="10"/>
<path d="M452.48 275.14L460.63 268.83" stroke="#263238" stroke-width="0.5" stroke-miterlimit="10"/>
<path d="M448.18 263.45C448.086 262.412 448.216 261.366 448.561 260.383C448.906 259.399 449.458 258.501 450.18 257.75C451.67 256.12 459.93 251.58 461.07 254.54C462.28 257.75 454.12 265.18 448.18 263.45Z" fill="#0066FF" stroke="#263238" stroke-miterlimit="10"/>
<path d="M448.18 263.45L456.32 257.14" stroke="#263238" stroke-width="0.5" stroke-miterlimit="10"/>
<path d="M448.57 263.8C447.531 263.785 446.507 263.549 445.567 263.105C444.626 262.662 443.792 262.023 443.12 261.23C441.65 259.58 438 250.88 441.06 250.06C444.39 249.17 450.92 258.07 448.57 263.8Z" fill="#0066FF" stroke="#263238" stroke-miterlimit="10"/>
<path d="M448.57 263.8L443.16 255.03" stroke="#263238" stroke-width="0.5" stroke-miterlimit="10"/>
<path d="M455.58 477.56H437.37L435.09 431.57H457.86L455.58 477.56Z" fill="#263238" stroke="#263238" stroke-miterlimit="10"/>
<path d="M105.408 123.398C109.22 121.849 111.055 117.504 109.506 113.692C107.958 109.88 103.612 108.045 99.8001 109.594C95.9881 111.142 94.1534 115.488 95.702 119.3C97.2507 123.112 101.596 124.946 105.408 123.398Z" fill="white" stroke="#263238" stroke-miterlimit="10"/>
<path d="M135.81 118H68.8101L92.2601 90H112.36L135.81 118Z" fill="#263238"/>
<path d="M106.73 84.58H97.89V93.42H106.73V84.58Z" fill="#263238"/>
<path d="M102.67 86.24V24.33" stroke="#263238" stroke-miterlimit="10"/>
<path d="M155.36 279.46C155.36 279.46 148.87 274.46 146.92 273.46C144.97 272.46 139.36 273.22 137.15 272.96C134.94 272.7 131.29 277.4 131.29 277.4C131.29 277.4 132.07 278.67 133.07 278.72C134.07 278.77 139.66 279.11 141.07 279.1C142.48 279.09 145.35 278.65 145.35 278.65L153.43 284.95L155.36 279.46Z" fill="white" stroke="#263238" stroke-miterlimit="10"/>
<path d="M175.71 292.63L155.38 279.15L148.76 286.68C148.76 286.68 171.83 313.02 173.17 313.68C174.51 314.34 175.71 292.63 175.71 292.63Z" fill="#0066FF" stroke="#263238" stroke-miterlimit="10"/>
<path d="M63.45 278.53H45.13V328.87H63.45V278.53Z" fill="#263238" stroke="#263238" stroke-miterlimit="10"/>
<path d="M81.12 278.53H27.45V321.08H81.12V278.53Z" fill="#263238" stroke="#263238" stroke-miterlimit="10"/>
<path d="M76.85 281.92H31.72V317.7H76.85V281.92Z" fill="#263238" stroke="white" stroke-miterlimit="10"/>
<path d="M92.8299 284.86C96.2091 283.714 99.521 282.379 102.75 280.86C105.38 279.38 116.43 271.08 116.43 271.08C116.43 271.08 117.59 267.14 118.57 266.59C120.413 265.825 122.296 265.157 124.21 264.59C124.21 264.59 132.44 264.01 132.01 265.59C131.58 267.17 120.63 274.08 119.51 275.32C118.39 276.56 103.29 288.26 101.91 291.03C100.53 293.8 89.5999 301.21 89.5999 301.21C89.5999 301.21 88.0899 301.45 89.5999 298.21C91.1099 294.97 92.4599 287.58 92.8299 284.86Z" fill="white" stroke="#263238" stroke-miterlimit="10"/>
<path d="M89.6 301.21C89.6 301.21 100.53 293.75 101.91 290.99C102.722 289.808 103.691 288.741 104.79 287.82C104.369 285.39 103.798 282.989 103.08 280.63L102.75 280.83C99.5211 282.349 96.2092 283.684 92.83 284.83C92.46 287.55 91.14 294.83 89.62 298.14C88.1 301.45 89.6 301.21 89.6 301.21Z" fill="white" stroke="#263238" stroke-miterlimit="10"/>
<path d="M100.92 281.26C100.92 281.26 102.78 288.26 101.92 290.99C101.038 293.534 99.5238 295.812 97.52 297.61C95.91 299.04 90.69 302.67 89.17 302.61C87.65 302.55 89.53 296.19 89.99 295.32C90.45 294.45 91.99 285.44 93.48 284.19C94.97 282.94 100.24 281.12 100.92 281.26Z" fill="white" stroke="#263238" stroke-miterlimit="10"/>
<path d="M131.2 266.4C131.706 265.88 132.02 265.203 132.09 264.48C132.065 262.779 131.951 261.08 131.75 259.39C131.58 257.79 129.98 257.95 130.02 258.85C130.06 259.75 130.02 263.15 130.02 263.15L130.11 265.02L131.2 266.4Z" fill="white" stroke="#263238" stroke-miterlimit="10"/>
<path d="M129.3 267.84C130.142 267.197 130.916 266.47 131.61 265.67C131.122 263.889 130.406 262.178 129.48 260.58C128.6 259.1 127.34 258.89 127.48 259.96C127.62 261.03 129.17 265.16 129.28 265.6C129.39 266.04 128.55 267.07 128.55 267.07" fill="white"/>
<path d="M129.3 267.84C130.142 267.197 130.916 266.47 131.61 265.67C131.122 263.889 130.406 262.178 129.48 260.58C128.6 259.1 127.34 258.89 127.48 259.96C127.62 261.03 129.17 265.16 129.28 265.6C129.39 266.04 128.55 267.07 128.55 267.07" stroke="#263238" stroke-miterlimit="10"/>
<path d="M124.72 271.48C124.72 271.48 129.8 268.48 129.72 267.48C129.64 266.48 127.89 261.16 126.83 260.2C125.77 259.24 125.31 260.28 125.73 261.94C126.15 263.6 127.13 266.26 127.13 266.26L125.21 268.38" fill="white"/>
<path d="M124.72 271.48C124.72 271.48 129.8 268.48 129.72 267.48C129.64 266.48 127.89 261.16 126.83 260.2C125.77 259.24 125.31 260.28 125.73 261.94C126.15 263.6 127.13 266.26 127.13 266.26L125.21 268.38" stroke="#263238" stroke-miterlimit="10"/>
<path d="M118.05 273C118.845 271.656 119.737 270.373 120.72 269.16C121.88 268.575 123.101 268.119 124.36 267.8C123.63 266.691 123.111 265.457 122.83 264.16C122.77 262.82 123.4 261.94 124.27 262.57C125.14 263.2 126.66 266.5 127.09 268.34C127.52 270.18 120.31 274.41 120.31 274.41" fill="white"/>
<path d="M118.05 273C118.845 271.656 119.737 270.373 120.72 269.16C121.88 268.575 123.101 268.119 124.36 267.8C123.63 266.691 123.111 265.457 122.83 264.16C122.77 262.82 123.4 261.94 124.27 262.57C125.14 263.2 126.66 266.5 127.09 268.34C127.52 270.18 120.31 274.41 120.31 274.41" stroke="#263238" stroke-miterlimit="10"/>
<path d="M104.17 229.74C104.743 229.533 105.227 229.137 105.544 228.617C105.86 228.096 105.99 227.484 105.91 226.88C105.85 224.5 104.91 219.88 98.83 217.32C92.75 214.76 82.76 213.2 73.92 220.5C65.08 227.8 68 243 67.66 245.13C67.32 247.26 62.77 260.65 61.2 264.5C59.63 268.35 62.58 272.64 63.49 272.99C64.4 273.34 73.25 269.12 76.9 264.41C80.55 259.7 81.66 252.16 83.31 248.81C84.96 245.46 87.31 237.36 89.9 235.22C92.49 233.08 94.63 233.91 97.17 231.77C99.71 229.63 101.4 229.52 101.4 229.52L104.17 229.74Z" fill="#263238" stroke="#263238" stroke-miterlimit="10"/>
<path d="M75.9 254.78C75.9 254.78 66.46 258.15 61.58 264.05C56.7 269.95 56 281.9 55.69 286.11C55.38 290.32 55.69 302.11 55.69 302.11C55.69 302.11 48.11 319.11 46.59 323.83C45.07 328.55 44.4 330.4 45.92 331.75C47.44 333.1 88.02 333.1 91.92 332.42C95.82 331.74 92.76 319.96 92.59 317.26C92.42 314.56 89.89 303.45 89.89 302.11C89.89 300.77 95.28 294.53 95.79 289.48C96.3 284.43 95.96 280.55 96.46 278.48C96.96 276.41 97.64 265.48 95.79 261.81C93.94 258.14 91.79 255.74 89.89 254.73C87.99 253.72 81.62 251.92 75.9 254.78Z" fill="white" stroke="#263238" stroke-miterlimit="10"/>
<path d="M76.62 252.67C75.5327 252.98 74.5684 253.619 73.86 254.5C73.3668 255.093 73.0238 255.796 72.86 256.55L81.4 269.8L87.14 263.36L94.14 265.42C93.0637 261.571 91.7273 257.799 90.14 254.13C88.38 250.51 80.1 248 76.62 252.67Z" fill="white" stroke="#263238" stroke-miterlimit="10"/>
<path d="M104.15 230.59C104.51 232.184 104.728 233.807 104.8 235.44C104.8 237.49 102.65 239.9 102.65 239.9C102.65 239.9 103.49 243.9 103.65 244.85C103.81 245.8 100.48 247.27 100.48 247.27C100.48 247.27 98.48 252.73 97.14 253.81C95.8 254.89 92.49 254.6 91.88 254.02C91.1719 253.61 90.3685 253.392 89.55 253.39C89.55 253.39 88.26 257.88 88.43 258.87C88.6 259.86 89.87 272.46 89.87 272.46C89.87 272.46 86.98 267.46 84.96 264.58C82.94 261.7 79.37 256.82 78.48 255.58C77.59 254.34 76.62 252.65 76.62 252.65C76.62 252.65 79.38 245.65 80.28 242.98C81.18 240.31 81.15 235.98 82.87 237.07C84.59 238.16 85.87 238.45 86.39 236.65C86.91 234.85 87.49 233.05 90.97 232.46C94.45 231.87 95.12 227.66 97.05 226.99C98.98 226.32 103.83 226.72 104.15 230.59Z" fill="white" stroke="#263238" stroke-miterlimit="10"/>
<path d="M85.73 239.86C85.73 239.86 85.39 234.79 82.48 234.77C79.57 234.75 79.03 238.6 79.42 240.92C79.81 243.24 83.61 243.46 83.61 243.46" fill="white"/>
<path d="M85.73 239.86C85.73 239.86 85.39 234.79 82.48 234.77C79.57 234.75 79.03 238.6 79.42 240.92C79.81 243.24 83.61 243.46 83.61 243.46" stroke="#263238" stroke-miterlimit="10"/>
<path d="M99.42 239.27C99.31 239.96 98.85 240.46 98.42 240.38C97.99 240.3 97.68 239.69 97.79 239C97.9 238.31 98.36 237.81 98.79 237.89C99.22 237.97 99.53 238.58 99.42 239.27Z" fill="#263238"/>
<path d="M96.46 235.65C96.46 235.65 99.46 233.43 101.72 235.45" stroke="#263238" stroke-miterlimit="10"/>
<path d="M94.05 245.62C94.05 245.62 94.66 248.25 98.05 248.02" stroke="#263238" stroke-miterlimit="10"/>
<path d="M87.85 305.31C87.85 305.31 108.91 316.09 110.42 316.59C111.93 317.09 113.42 317.94 114.63 317.26C115.84 316.58 119.85 318.26 120.86 318.61C122.87 318.909 124.898 319.079 126.93 319.12C126.93 319.12 128.78 318.12 128.78 319.29C128.78 320.46 122.72 323.5 121.37 324C120.02 324.5 115.98 325 114.46 324C112.94 323 101.83 319.62 101.83 319.62C101.83 319.62 88.53 316.25 87.01 315.75C85.5142 315.328 83.9949 314.994 82.46 314.75L87.85 305.31Z" fill="white" stroke="#263238" stroke-miterlimit="10"/>
<path d="M124.74 318.78C124.74 318.78 127.09 319.12 124.74 319.96C123.346 320.53 121.795 320.591 120.36 320.13C119.522 320.009 118.677 319.952 117.83 319.96" fill="white"/>
<path d="M124.74 318.78C124.74 318.78 127.09 319.12 124.74 319.96C123.346 320.53 121.795 320.591 120.36 320.13C119.522 320.009 118.677 319.952 117.83 319.96" stroke="#263238" stroke-miterlimit="10"/>
<path d="M87.85 305.31L82.46 314.74C83.9949 314.984 85.5142 315.318 87.01 315.74L87.51 315.89L90.71 306.76L87.85 305.31Z" fill="white" stroke="#263238" stroke-miterlimit="10"/>
<path d="M76.23 270.61C76.23 270.61 76.4 279.37 78.93 285.77C81.46 292.17 85.16 295.88 84.65 296.77C84.266 297.476 83.9319 298.208 83.65 298.96C83.65 298.96 85.84 298.62 86.01 299.96C86.0992 300.573 86.1559 301.191 86.18 301.81C86.18 301.81 87.7 302.99 88.37 303.49C89.04 303.99 89.04 305.68 89.04 305.68C89.04 305.68 85.51 315.12 84.04 316.29C82.57 317.46 78.31 317.81 72.76 315.45C67.21 313.09 64.84 308.38 62.82 301.98C60.8 295.58 60.63 278.4 61.47 275.2" fill="white"/>
<path d="M76.23 270.61C76.23 270.61 76.4 279.37 78.93 285.77C81.46 292.17 85.16 295.88 84.65 296.77C84.266 297.476 83.9319 298.208 83.65 298.96C83.65 298.96 85.84 298.62 86.01 299.96C86.0992 300.573 86.1559 301.191 86.18 301.81C86.18 301.81 87.7 302.99 88.37 303.49C89.04 303.99 89.04 305.68 89.04 305.68C89.04 305.68 85.51 315.12 84.04 316.29C82.57 317.46 78.31 317.81 72.76 315.45C67.21 313.09 64.84 308.38 62.82 301.98C60.8 295.58 60.63 278.4 61.47 275.2" stroke="#263238" stroke-miterlimit="10"/>
<path d="M124.36 267.79L118.97 279.47" stroke="#263238" stroke-miterlimit="10"/>
<path d="M131.2 266.4L142.65 277.52" stroke="#263238" stroke-miterlimit="10"/>
<path d="M141.56 274.62L136.73 275.35C135.37 275.55 131.82 274.35 131.83 275.69C131.84 277.03 134.22 277.11 135 276.99C135.78 276.87 137.74 278.16 139.77 278.45C141.366 278.494 142.945 278.118 144.35 277.36" fill="white"/>
<path d="M141.56 274.62L136.73 275.35C135.37 275.55 131.82 274.35 131.83 275.69C131.84 277.03 134.22 277.11 135 276.99C135.78 276.87 137.74 278.16 139.77 278.45C141.366 278.494 142.945 278.118 144.35 277.36" stroke="#263238" stroke-miterlimit="10"/>
<path d="M118.97 279.47L142.65 277.52L152.24 312.94L120.54 322.13L113.5 320.18L118.97 279.47Z" fill="#0066FF" stroke="#263238" stroke-miterlimit="10"/>
<path d="M118.97 279.47L120.54 322.13L113.5 320.18L118.97 279.47Z" fill="#0066FF" stroke="#263238" stroke-miterlimit="10"/>
<path d="M127.07 279.41C126.416 282.705 126.331 286.087 126.82 289.41C127.7 294.31 129.96 301.71 129.96 301.71L133.59 299.95C133.59 299.95 130.96 291.55 129.96 286.78C129.416 284.423 129.038 282.03 128.83 279.62L127.07 279.41Z" fill="#263238"/>
<path d="M127 278.9C127 278.9 127 286.53 128.18 290.25C129.36 293.97 132.87 301.61 132.87 301.61L142.67 297.3C142.67 297.3 137.35 289.86 136 286C135.137 283.496 134.416 280.945 133.84 278.36L127 278.9Z" fill="white" stroke="#263238" stroke-miterlimit="10"/>
<path d="M152.24 330.92H27V477.56H152.24V330.92Z" fill="white" stroke="#263238" stroke-miterlimit="10"/>
<path d="M152.24 328.4H27V337.79H152.24V328.4Z" fill="#263238" stroke="#263238" stroke-miterlimit="10"/>
<path d="M158.5 328.4H27V334.14H158.5V328.4Z" fill="white" stroke="#263238" stroke-miterlimit="10"/>
<path d="M221.51 455.73L222.33 464.14C222.33 464.14 223.97 463.73 223.97 466.4C223.97 469.07 225.62 475.4 223.36 476.86C221.1 478.32 210.23 477.07 207.76 477.07C205.29 477.07 200.58 476.66 195.45 476.66C190.32 476.66 192.17 474.2 193.19 473.37C194.21 472.54 202.43 470.5 204.69 468.86C206.673 467.125 208.219 464.946 209.2 462.5C209.4 461.68 209.2 454.91 209.2 454.91L221.51 455.73Z" fill="white" stroke="#263238" stroke-miterlimit="10"/>
<path d="M224 466.4C224 464.69 223.33 464.24 222.85 464.15C220.31 465.63 213.95 466.15 213.95 466.15C213.295 464.941 212.384 463.89 211.28 463.07C211.092 462.959 210.883 462.886 210.667 462.857C210.45 462.828 210.229 462.843 210.019 462.901C209.808 462.959 209.611 463.058 209.439 463.194C209.268 463.33 209.125 463.498 209.02 463.69H208.67C207.712 465.637 206.368 467.369 204.72 468.78C202.46 470.42 194.25 472.47 193.22 473.29C192.19 474.11 190.35 476.58 195.48 476.58C200.61 476.58 205.33 476.99 207.79 476.99C210.25 476.99 221.13 478.22 223.39 476.78C225.65 475.34 224 469.07 224 466.4Z" fill="white" stroke="#263238" stroke-miterlimit="10"/>
<path d="M214.12 361.16C214.12 361.16 214.12 391.74 214.74 395.23C215.36 398.72 215.56 402.23 215.74 402.82C215.92 403.41 217.74 405.69 217.74 407.33C217.74 408.97 216 410 216 410C216.438 410.295 216.799 410.692 217.049 411.157C217.3 411.623 217.434 412.142 217.44 412.67C217.635 413.646 217.49 414.658 217.03 415.54C217.03 415.54 220.93 428.88 221.34 434.83C221.75 440.78 221.75 452.27 221.75 452.27C221.75 452.27 218.26 452.48 214.15 452.89C211.698 453.138 209.232 453.204 206.77 453.09C206.77 453.09 211.08 424.16 209.43 417.8C207.78 411.44 204.51 405.49 204.92 398.51C205.33 391.53 207.59 370.4 208.41 368.14C209.23 365.88 212.48 357.06 214.12 361.16Z" fill="#263238" stroke="#263238" stroke-miterlimit="10"/>
<path d="M209.4 447.14C209.4 447.14 215.97 447.35 217.82 447.35C219.67 447.35 220.9 445.5 222.33 446.94C223.76 448.38 223.15 454.53 222.74 455.55C222.33 456.57 218.64 457.2 215.36 457.2H207.76L209.4 447.14Z" fill="#6E6E6E" stroke="#263238" stroke-miterlimit="10"/>
<path d="M195.25 454.12L194.84 460.07C194.84 460.07 192.58 460.89 192.17 461.92C191.28 464.024 189.779 465.811 187.86 467.05C184.24 468.944 180.463 470.52 176.57 471.76C174.73 472.18 172.88 474.02 174.11 475.66C175.34 477.3 186.42 477.72 192.17 477.51C197.92 477.3 207.35 477.31 210.02 476.69C212.69 476.07 211.25 470.94 210.64 468.69C210.269 467.342 209.995 465.968 209.82 464.58L209.2 455.58L195.25 454.12Z" fill="white" stroke="#263238" stroke-miterlimit="10"/>
<path d="M192.17 461.92C191.28 464.024 189.779 465.811 187.86 467.05C184.24 468.944 180.463 470.52 176.57 471.76C174.73 472.18 172.88 474.02 174.11 475.66C175.34 477.3 186.42 477.72 192.17 477.51C197.92 477.3 207.35 477.31 210.02 476.69C212.69 476.07 211.25 470.94 210.64 468.69C210.344 467.614 210.107 466.522 209.93 465.42C206.65 466 201.61 464.79 201.61 464.79C200.465 464.123 199.482 463.211 198.73 462.12C197.73 460.48 194.84 460.07 194.84 460.07C194.84 460.07 192.58 460.89 192.17 461.92Z" fill="white" stroke="#263238" stroke-miterlimit="10"/>
<path d="M181.09 344.54L182.93 355.42C182.104 364.909 182.104 374.451 182.93 383.94C184.37 397.89 187.45 413.28 187.45 413.28C187.45 413.28 191.96 431.34 192.58 434.83C193.2 438.32 194.43 451.66 194.43 451.66C197.323 453.2 200.591 453.893 203.86 453.66C209.2 453.25 210.02 451.4 210.02 451.4C210.02 451.4 213.1 428.01 212.48 423.9C211.86 419.79 209.82 411 209.82 411C209.82 411 210.23 408.12 210.23 406.69C210.227 405.796 210.157 404.904 210.02 404.02C210.268 403.364 210.407 402.671 210.43 401.97C210.43 400.97 209.82 397.45 209.82 397.45L212.48 369.55L214.53 362.98C214.53 362.98 217.82 360.93 218.84 355.59C219.86 350.25 219.05 341.64 219.05 341.64C219.05 341.64 203.05 344.72 194.05 342.46C185.05 340.2 180.72 340.2 180.72 340.2L181.09 344.54Z" fill="#263238" stroke="#263238" stroke-miterlimit="10"/>
<path d="M178.83 274.36C178.83 274.36 176.16 274.98 174.93 285.24C173.7 295.5 173.7 301.65 173.93 302.68C174.16 303.71 173.93 331 173.93 333.46C173.93 335.92 173.31 343.51 173.31 343.51C173.31 343.51 180.08 347.82 193.83 348.44C207.58 349.06 225 343.72 225 343.72C225 343.72 223.56 318.27 222.95 313.35C222.34 308.43 219.87 281.75 216.79 273.54C213.71 265.33 212.28 263.49 211.66 263.08C211.04 262.67 203.04 258.97 196.66 261.84C190.28 264.71 183.73 270.26 182.3 271.08C181.007 272.019 179.84 273.121 178.83 274.36Z" fill="#0066FF" stroke="#263238" stroke-miterlimit="10"/>
<path d="M215.3 329.3C216.39 329.01 217.48 328.7 218.59 328.35" stroke="#263238" stroke-miterlimit="10"/>
<path d="M180.12 329.64C180.12 329.64 193.8 333.99 212.07 330.07" stroke="#263238" stroke-miterlimit="10"/>
<path d="M219.37 306.92C217.076 307.599 214.737 308.117 212.37 308.47" stroke="#263238" stroke-miterlimit="10"/>
<path d="M177.28 294.78C177.28 294.78 182.96 296.07 187.61 294.52" stroke="#263238" stroke-miterlimit="10"/>
<path d="M178.85 225.86L176.42 231C176.42 233.08 177.42 236.41 176.83 237.24C176.24 238.07 171.4 241.58 172.24 243.24C172.813 244.274 173.768 245.042 174.9 245.38C175.55 248.122 176.037 250.9 176.36 253.7C176.36 255.57 176.77 256.61 180.52 257.44C184.27 258.27 185.71 257.65 185.71 257.65L188 264.72L204.84 256.61C204.84 256.61 203.18 248.52 203 245C202.82 241.48 205.85 240.33 206.12 230.24C206.12 228.32 202.38 224 196.12 221.71C189.86 219.42 181.76 223 178.85 225.86Z" fill="white" stroke="#263238" stroke-miterlimit="10"/>
<path d="M180.41 237.64C180.41 238.28 180.12 238.79 179.77 238.79C179.42 238.79 179.13 238.28 179.13 237.64C179.13 237 179.42 236.49 179.77 236.49C180.12 236.49 180.41 237 180.41 237.64Z" fill="#263238"/>
<path d="M177.85 233.17C177.85 233.17 180.92 231.17 182.32 234.17" stroke="#263238" stroke-miterlimit="10"/>
<path d="M176.58 247.22C177.61 247.443 178.678 247.421 179.698 247.155C180.717 246.889 181.66 246.388 182.45 245.69" stroke="#263238" stroke-miterlimit="10"/>
<path d="M209.62 221.28C206.3 215.88 193.2 215.67 191.12 215.88C189.431 215.93 187.745 215.721 186.12 215.26C186.12 215.26 177.39 212.55 176.56 215.46C175.73 218.37 178.84 221.08 178.84 221.08C178.84 221.08 169.9 219.21 172.4 223.16C174.9 227.11 179.88 227.16 179.88 227.16C179.88 227.16 189.88 223.16 189.65 226.16C189.42 229.16 185.5 229.28 187.57 230.94C189.64 232.6 190.9 233.85 190.9 234.68C190.9 235.51 189.77 238.18 190.55 239.6C190.5 241.22 190.43 243.44 190.36 245.39C190.23 248.97 189.85 250.63 187.04 251.91C185.024 252.76 182.927 253.4 180.78 253.82C180.233 252.713 179.337 251.818 178.23 251.27C176.7 250.76 175.93 251.27 175.93 252.16C175.93 253.05 175.67 256.63 178.1 258.16C180.53 259.69 182.95 259.16 187.55 256.38C192.15 253.6 192.79 249.23 192.66 246.03C192.57 243.77 192.54 241.03 192.66 239.18C192.97 238.12 193.38 236.76 195.47 236.76C199.21 236.76 199.21 240.92 198.79 243C198.37 245.08 195.9 246 195.9 246C195.9 246 200.68 247.87 202.55 247.87C204.42 247.87 209.42 244.96 210.87 239.76C212.32 234.56 213 226.69 209.62 221.28Z" fill="#263238" stroke="#263238" stroke-miterlimit="10"/>
<path d="M193.6 445.7C197.329 446.381 201.102 446.796 204.89 446.94C206.946 446.98 209.002 446.91 211.05 446.73C211.05 446.73 210.84 453.09 210.23 455.35C209.62 457.61 204.48 458.63 199.97 457.61C195.46 456.59 193.81 456.38 193.6 455.14C193.39 453.9 193.6 445.7 193.6 445.7Z" fill="#6E6E6E" stroke="#263238" stroke-miterlimit="10"/>
<path d="M185 272.93L184.81 290.1C184.807 290.246 184.838 290.39 184.902 290.521C184.965 290.652 185.059 290.767 185.175 290.854C185.291 290.942 185.426 291.001 185.57 291.027C185.713 291.052 185.861 291.043 186 291C186.181 290.938 186.338 290.82 186.449 290.664C186.56 290.508 186.62 290.322 186.62 290.13L186.82 272.53L185 272.93Z" fill="white" stroke="#263238" stroke-miterlimit="10"/>
<path d="M206.53 253.64C206.53 253.64 190.73 261.84 186.01 264.31C181.29 266.78 175.34 277.23 176.16 277.44C176.98 277.65 185.4 273.75 186.01 273.75C186.62 273.75 194.43 266.15 201.81 264.75C209.19 263.35 212.89 268.24 215.56 266.59C218.23 264.94 214.74 258.59 212.69 255.72C210.64 252.85 206.53 253.64 206.53 253.64Z" fill="#0066FF" stroke="#263238" stroke-miterlimit="10"/>
<path d="M177.19 274.69C176.33 276.26 175.9 277.37 176.19 277.44C177.01 277.65 185.43 273.75 186.04 273.75C186.38 273.75 188.9 271.44 192.33 269.13L177.19 274.69Z" fill="white" stroke="#263238" stroke-miterlimit="10"/>
<path d="M160.82 314.89L155.07 315.01C155.07 315.01 151.23 313.34 150.75 313.22C149.301 313.223 147.856 313.38 146.44 313.69C144.71 314.066 142.935 314.187 141.17 314.05C139.85 313.81 141.05 316.45 141.77 316.69C142.49 316.93 144.28 317.69 145.24 317.29C146.145 317.08 147.08 317.039 148 317.17L144.4 319.17C144.4 319.17 136.4 318.57 135.4 318.17C134.4 317.77 133.6 318.53 134.08 319.17C136.519 320.81 139.131 322.175 141.87 323.24C142.87 323.36 156.13 321.08 156.13 321.08L162.96 321.56L160.82 314.89Z" fill="white" stroke="#263238" stroke-miterlimit="10"/>
<path d="M199.14 269.85C199.14 269.85 192.99 272.52 191.96 277.44C190.93 282.36 187.24 305.14 187.24 305.14C187.24 305.14 183.55 305.76 183.55 306.78C183.528 307.607 183.458 308.432 183.34 309.25C183.34 309.25 178.83 310.48 174.93 311.09C171.03 311.7 159.93 313.76 159.93 313.76C159.93 313.76 159.93 313.35 159.32 316.63C158.71 319.91 160.75 326.48 160.75 326.48C160.75 326.48 170.81 327.1 177.99 326.69C185.17 326.28 202.99 324.02 205.08 321.35C207.17 318.68 211.23 304.73 211.64 299.6C212.05 294.47 212.87 283.39 212.87 283.39" fill="#0066FF"/>
<path d="M199.14 269.85C199.14 269.85 192.99 272.52 191.96 277.44C190.93 282.36 187.24 305.14 187.24 305.14C187.24 305.14 183.55 305.76 183.55 306.78C183.528 307.607 183.458 308.432 183.34 309.25C183.34 309.25 178.83 310.48 174.93 311.09C171.03 311.7 159.93 313.76 159.93 313.76C159.93 313.76 159.93 313.35 159.32 316.63C158.71 319.91 160.75 326.48 160.75 326.48C160.75 326.48 170.81 327.1 177.99 326.69C185.17 326.28 202.99 324.02 205.08 321.35C207.17 318.68 211.23 304.73 211.64 299.6C212.05 294.47 212.87 283.39 212.87 283.39" stroke="#263238" stroke-miterlimit="10"/>
<path d="M185.54 309.5C185.54 309.5 187.61 312.34 193.29 312.6" stroke="#263238" stroke-miterlimit="10"/>
<path d="M188.64 306.14H192.51" stroke="#263238" stroke-miterlimit="10"/>
<path d="M356 477.56H468" stroke="#263238" stroke-miterlimit="10"/>
<path d="M12 477.56H346" stroke="#263238" stroke-miterlimit="10"/>
</svg>
