<svg width="24" height="24" viewBox="0 0 24 24" fill="none" xmlns="http://www.w3.org/2000/svg">
<path d="M17 11H17.8C18.9201 11 19.4802 11 19.908 11.218C20.2843 11.4097 20.5903 11.7157 20.782 12.092C21 12.5198 21 13.0799 21 14.2V17.8C21 18.9201 21 19.4802 20.782 19.908C20.5903 20.2843 20.2843 20.5903 19.908 20.782C19.4802 21 18.9201 21 17.8 21H6.2C5.0799 21 4.51984 21 4.09202 20.782C3.71569 20.5903 3.40973 20.2843 3.21799 19.908C3 19.4802 3 18.9201 3 17.8V14.2C3 13.0799 3 12.5198 3.21799 12.092C3.40973 11.7157 3.71569 11.4097 4.09202 11.218C4.51984 11 5.07989 11 6.2 11H7" stroke="black" stroke-opacity="0.6" stroke-width="2" stroke-linecap="round"/>
<path d="M5.5 21L7 11M18.5 21L17 11" stroke="black" stroke-opacity="0.6" stroke-width="2" stroke-linecap="round"/>
<path d="M12 17L12 14" stroke="black" stroke-opacity="0.6" stroke-width="2" stroke-linecap="round"/>
<path d="M12 7V3.5C12 3.2643 12 3.14645 12.0732 3.07322C12.1464 3 12.2643 3 12.5 3H17L15.5 5L17 7H12ZM12 7V10" stroke="black" stroke-opacity="0.6" stroke-width="2" stroke-linecap="round" stroke-linejoin="round"/>
</svg>
